<ttFont>
    <TTGlyph name="A" xMin="-3" yMin="0" xMax="536" yMax="699">
      <contour>
        <pt x="-3" y="0" on="1"/>
        <pt x="196" y="699" on="1"/>
        <pt x="338" y="699" on="1"/>
        <pt x="536" y="0" on="1"/>
        <pt x="415" y="0" on="1"/>
        <pt x="371" y="172" on="1"/>
        <pt x="163" y="172" on="1"/>
        <pt x="118" y="0" on="1"/>
      </contour>
      <contour>
        <pt x="185" y="270" on="1"/>
        <pt x="349" y="270" on="1"/>
        <pt x="270" y="596" on="1"/>
        <pt x="264" y="596" on="1"/>
      </contour>
    </TTGlyph>
    <TTGlyph name="AE" xMin="-7" yMin="0" xMax="747" yMax="699">
      <contour>
        <pt x="747" y="699" on="1"/>
        <pt x="747" y="596" on="1"/>
        <pt x="485" y="599" on="1"/>
        <pt x="481" y="404" on="1"/>
        <pt x="723" y="404" on="1"/>
        <pt x="723" y="305" on="1"/>
        <pt x="481" y="305" on="1"/>
        <pt x="485" y="100" on="1"/>
        <pt x="747" y="102" on="1"/>
        <pt x="747" y="0" on="1"/>
        <pt x="370" y="0" on="1"/>
        <pt x="370" y="171" on="1"/>
        <pt x="187" y="171" on="1"/>
        <pt x="114" y="0" on="1"/>
        <pt x="-7" y="0" on="1"/>
        <pt x="301" y="699" on="1"/>
      </contour>
      <contour>
        <pt x="370" y="270" on="1"/>
        <pt x="370" y="592" on="1"/>
        <pt x="352" y="592" on="1"/>
        <pt x="217" y="270" on="1"/>
      </contour>
    </TTGlyph>
    <TTGlyph name="Aacute" xMin="-3" yMin="0" xMax="536" yMax="887">
      <contour>
        <pt x="-3" y="0" on="1"/>
        <pt x="196" y="699" on="1"/>
        <pt x="338" y="699" on="1"/>
        <pt x="536" y="0" on="1"/>
        <pt x="415" y="0" on="1"/>
        <pt x="371" y="172" on="1"/>
        <pt x="163" y="172" on="1"/>
        <pt x="118" y="0" on="1"/>
      </contour>
      <contour>
        <pt x="185" y="270" on="1"/>
        <pt x="349" y="270" on="1"/>
        <pt x="270" y="596" on="1"/>
        <pt x="264" y="596" on="1"/>
      </contour>
      <contour>
        <pt x="157" y="742" on="1"/>
        <pt x="138" y="808" on="1"/>
        <pt x="394" y="887" on="1"/>
        <pt x="422" y="798" on="1"/>
      </contour>
    </TTGlyph>
    <TTGlyph name="Acircumflex" xMin="-3" yMin="0" xMax="536" yMax="884">
      <contour>
        <pt x="-3" y="0" on="1"/>
        <pt x="196" y="699" on="1"/>
        <pt x="338" y="699" on="1"/>
        <pt x="536" y="0" on="1"/>
        <pt x="415" y="0" on="1"/>
        <pt x="371" y="172" on="1"/>
        <pt x="163" y="172" on="1"/>
        <pt x="118" y="0" on="1"/>
      </contour>
      <contour>
        <pt x="185" y="270" on="1"/>
        <pt x="349" y="270" on="1"/>
        <pt x="270" y="596" on="1"/>
        <pt x="264" y="596" on="1"/>
      </contour>
      <contour>
        <pt x="126" y="738" on="1"/>
        <pt x="96" y="786" on="1"/>
        <pt x="237" y="884" on="1"/>
        <pt x="298" y="884" on="1"/>
        <pt x="440" y="786" on="1"/>
        <pt x="410" y="738" on="1"/>
        <pt x="271" y="798" on="1"/>
        <pt x="264" y="798" on="1"/>
        <pt x="256" y="794" on="0"/>
      </contour>
    </TTGlyph>
    <TTGlyph name="Adieresis" xMin="-3" yMin="0" xMax="536" yMax="857">
      <contour>
        <pt x="-3" y="0" on="1"/>
        <pt x="196" y="699" on="1"/>
        <pt x="338" y="699" on="1"/>
        <pt x="536" y="0" on="1"/>
        <pt x="415" y="0" on="1"/>
        <pt x="371" y="172" on="1"/>
        <pt x="163" y="172" on="1"/>
        <pt x="118" y="0" on="1"/>
      </contour>
      <contour>
        <pt x="185" y="270" on="1"/>
        <pt x="349" y="270" on="1"/>
        <pt x="270" y="596" on="1"/>
        <pt x="264" y="596" on="1"/>
      </contour>
      <contour>
        <pt x="103" y="764" on="1"/>
        <pt x="103" y="857" on="1"/>
        <pt x="223" y="857" on="1"/>
        <pt x="223" y="764" on="1"/>
      </contour>
      <contour>
        <pt x="316" y="764" on="1"/>
        <pt x="316" y="857" on="1"/>
        <pt x="436" y="857" on="1"/>
        <pt x="436" y="764" on="1"/>
      </contour>
    </TTGlyph>
    <TTGlyph name="Agrave" xMin="-3" yMin="0" xMax="536" yMax="886">
      <contour>
        <pt x="-3" y="0" on="1"/>
        <pt x="196" y="699" on="1"/>
        <pt x="338" y="699" on="1"/>
        <pt x="536" y="0" on="1"/>
        <pt x="415" y="0" on="1"/>
        <pt x="371" y="172" on="1"/>
        <pt x="163" y="172" on="1"/>
        <pt x="118" y="0" on="1"/>
      </contour>
      <contour>
        <pt x="185" y="270" on="1"/>
        <pt x="349" y="270" on="1"/>
        <pt x="270" y="596" on="1"/>
        <pt x="264" y="596" on="1"/>
      </contour>
      <contour>
        <pt x="128" y="798" on="1"/>
        <pt x="154" y="886" on="1"/>
        <pt x="412" y="809" on="1"/>
        <pt x="394" y="743" on="1"/>
      </contour>
    </TTGlyph>
    <TTGlyph name="Aring" xMin="-3" yMin="0" xMax="536" yMax="903">
      <contour>
        <pt x="-3" y="0" on="1"/>
        <pt x="196" y="699" on="1"/>
        <pt x="338" y="699" on="1"/>
        <pt x="536" y="0" on="1"/>
        <pt x="415" y="0" on="1"/>
        <pt x="371" y="172" on="1"/>
        <pt x="163" y="172" on="1"/>
        <pt x="118" y="0" on="1"/>
      </contour>
      <contour>
        <pt x="185" y="270" on="1"/>
        <pt x="349" y="270" on="1"/>
        <pt x="270" y="596" on="1"/>
        <pt x="264" y="596" on="1"/>
      </contour>
      <contour>
        <pt x="228" y="727" on="0"/>
        <pt x="174" y="768" on="0"/>
        <pt x="174" y="862" on="0"/>
        <pt x="228" y="903" on="0"/>
        <pt x="309" y="903" on="0"/>
        <pt x="362" y="862" on="0"/>
        <pt x="362" y="768" on="0"/>
        <pt x="308" y="727" on="0"/>
      </contour>
      <contour>
        <pt x="249" y="848" on="0"/>
        <pt x="232" y="835" on="0"/>
        <pt x="232" y="795" on="0"/>
        <pt x="249" y="781" on="0"/>
        <pt x="288" y="781" on="0"/>
        <pt x="303" y="794" on="0"/>
        <pt x="303" y="835" on="0"/>
        <pt x="288" y="848" on="0"/>
      </contour>
    </TTGlyph>
    <TTGlyph name="Atilde" xMin="-3" yMin="0" xMax="536" yMax="870">
      <contour>
        <pt x="-3" y="0" on="1"/>
        <pt x="196" y="699" on="1"/>
        <pt x="338" y="699" on="1"/>
        <pt x="536" y="0" on="1"/>
        <pt x="415" y="0" on="1"/>
        <pt x="371" y="172" on="1"/>
        <pt x="163" y="172" on="1"/>
        <pt x="118" y="0" on="1"/>
      </contour>
      <contour>
        <pt x="185" y="270" on="1"/>
        <pt x="349" y="270" on="1"/>
        <pt x="270" y="596" on="1"/>
        <pt x="264" y="596" on="1"/>
      </contour>
      <contour>
        <pt x="165" y="870" on="1"/>
        <pt x="194" y="870" on="0"/>
        <pt x="356" y="825" on="0"/>
        <pt x="363" y="825" on="1"/>
        <pt x="376" y="825" on="0"/>
        <pt x="392" y="867" on="1"/>
        <pt x="455" y="858" on="1"/>
        <pt x="454" y="746" on="0"/>
        <pt x="373" y="746" on="1"/>
        <pt x="344" y="746" on="0"/>
        <pt x="181" y="793" on="0"/>
        <pt x="167" y="793" on="0"/>
        <pt x="152" y="772" on="0"/>
        <pt x="144" y="750" on="1"/>
        <pt x="82" y="758" on="1"/>
        <pt x="82" y="870" on="0"/>
      </contour>
    </TTGlyph>
    <TTGlyph name="B" xMin="97" yMin="-13" xMax="561" yMax="712">
      <contour>
        <pt x="328" y="712" on="1"/>
        <pt x="543" y="712" on="0"/>
        <pt x="543" y="520" on="1"/>
        <pt x="543" y="472" on="0"/>
        <pt x="518" y="425" on="0"/>
        <pt x="502" y="403" on="0"/>
        <pt x="490" y="394" on="1"/>
        <pt x="470" y="380" on="0"/>
        <pt x="444" y="368" on="1"/>
        <pt x="444" y="364" on="1"/>
        <pt x="561" y="333" on="0"/>
        <pt x="561" y="209" on="1"/>
        <pt x="561" y="81" on="0"/>
        <pt x="490" y="30" on="1"/>
        <pt x="427" y="-13" on="0"/>
        <pt x="335" y="-13" on="1"/>
        <pt x="256" y="-13" on="0"/>
        <pt x="97" y="4" on="1"/>
        <pt x="102" y="326" on="1"/>
        <pt x="97" y="699" on="1"/>
        <pt x="230" y="712" on="0"/>
      </contour>
      <contour>
        <pt x="214" y="88" on="1"/>
        <pt x="286" y="79" on="0"/>
        <pt x="398" y="79" on="0"/>
        <pt x="438" y="137" on="0"/>
        <pt x="438" y="273" on="0"/>
        <pt x="380" y="319" on="0"/>
        <pt x="326" y="319" on="1"/>
        <pt x="214" y="320" on="1"/>
      </contour>
      <contour>
        <pt x="214" y="409" on="1"/>
        <pt x="286" y="408" on="0"/>
        <pt x="384" y="408" on="0"/>
        <pt x="423" y="456" on="0"/>
        <pt x="423" y="575" on="0"/>
        <pt x="378" y="622" on="0"/>
        <pt x="325" y="622" on="1"/>
        <pt x="214" y="616" on="1"/>
      </contour>
    </TTGlyph>
    <TTGlyph name="C" xMin="64" yMin="-13" xMax="554" yMax="712">
      <contour>
        <pt x="324" y="-13" on="1"/>
        <pt x="202" y="-13" on="0"/>
        <pt x="64" y="157" on="0"/>
        <pt x="64" y="342" on="1"/>
        <pt x="64" y="595" on="0"/>
        <pt x="176" y="670" on="1"/>
        <pt x="212" y="694" on="0"/>
        <pt x="290" y="712" on="0"/>
        <pt x="443" y="712" on="0"/>
        <pt x="525" y="692" on="1"/>
        <pt x="512" y="594" on="1"/>
        <pt x="418" y="608" on="0"/>
        <pt x="259" y="608" on="0"/>
        <pt x="237" y="585" on="1"/>
        <pt x="188" y="534" on="0"/>
        <pt x="188" y="339" on="1"/>
        <pt x="188" y="248" on="0"/>
        <pt x="222" y="127" on="0"/>
        <pt x="269" y="86" on="0"/>
        <pt x="360" y="86" on="0"/>
        <pt x="460" y="114" on="0"/>
        <pt x="518" y="141" on="1"/>
        <pt x="554" y="52" on="1"/>
        <pt x="543" y="45" on="0"/>
        <pt x="504" y="23" on="0"/>
        <pt x="384" y="-13" on="0"/>
      </contour>
    </TTGlyph>
    <TTGlyph name="Ccedilla" xMin="64" yMin="-179" xMax="554" yMax="712">
      <contour>
        <pt x="216" y="-94" on="1"/>
        <pt x="260" y="-99" on="0"/>
        <pt x="312" y="-99" on="0"/>
        <pt x="332" y="-87" on="0"/>
        <pt x="332" y="-41" on="0"/>
        <pt x="325" y="-13" on="1"/>
        <pt x="64" y="-13" on="0"/>
        <pt x="64" y="342" on="1"/>
        <pt x="64" y="595" on="0"/>
        <pt x="176" y="670" on="1"/>
        <pt x="212" y="694" on="0"/>
        <pt x="290" y="712" on="0"/>
        <pt x="443" y="712" on="0"/>
        <pt x="525" y="692" on="1"/>
        <pt x="512" y="594" on="1"/>
        <pt x="418" y="608" on="0"/>
        <pt x="259" y="608" on="0"/>
        <pt x="237" y="585" on="1"/>
        <pt x="188" y="534" on="0"/>
        <pt x="188" y="339" on="1"/>
        <pt x="188" y="248" on="0"/>
        <pt x="222" y="127" on="0"/>
        <pt x="269" y="86" on="0"/>
        <pt x="360" y="86" on="0"/>
        <pt x="460" y="114" on="0"/>
        <pt x="518" y="141" on="1"/>
        <pt x="554" y="52" on="1"/>
        <pt x="492" y="10" on="0"/>
        <pt x="399" y="-6" on="1"/>
        <pt x="409" y="-46" on="0"/>
        <pt x="409" y="-74" on="1"/>
        <pt x="409" y="-122" on="0"/>
        <pt x="347" y="-179" on="0"/>
        <pt x="295" y="-179" on="1"/>
        <pt x="266" y="-179" on="0"/>
        <pt x="216" y="-170" on="1"/>
      </contour>
    </TTGlyph>
    <TTGlyph name="D" xMin="97" yMin="-13" xMax="590" yMax="712">
      <contour>
        <pt x="97" y="699" on="1"/>
        <pt x="247" y="712" on="0"/>
        <pt x="389" y="712" on="0"/>
        <pt x="485" y="673" on="0"/>
        <pt x="543" y="610" on="0"/>
        <pt x="560" y="563" on="1"/>
        <pt x="590" y="484" on="0"/>
        <pt x="590" y="358" on="1"/>
        <pt x="590" y="-13" on="0"/>
        <pt x="313" y="-13" on="1"/>
        <pt x="268" y="-13" on="0"/>
        <pt x="97" y="0" on="1"/>
      </contour>
      <contour>
        <pt x="311" y="88" on="1"/>
        <pt x="386" y="88" on="0"/>
        <pt x="412" y="112" on="1"/>
        <pt x="463" y="159" on="0"/>
        <pt x="463" y="554" on="0"/>
        <pt x="415" y="592" on="1"/>
        <pt x="392" y="611" on="0"/>
        <pt x="327" y="611" on="1"/>
        <pt x="213" y="605" on="1"/>
        <pt x="214" y="96" on="1"/>
        <pt x="268" y="88" on="0"/>
      </contour>
    </TTGlyph>
    <TTGlyph name="E" xMin="97" yMin="0" xMax="475" yMax="699">
      <contour>
        <pt x="97" y="0" on="1"/>
        <pt x="97" y="699" on="1"/>
        <pt x="475" y="699" on="1"/>
        <pt x="475" y="597" on="1"/>
        <pt x="214" y="600" on="1"/>
        <pt x="209" y="404" on="1"/>
        <pt x="450" y="404" on="1"/>
        <pt x="450" y="305" on="1"/>
        <pt x="209" y="305" on="1"/>
        <pt x="214" y="100" on="1"/>
        <pt x="475" y="102" on="1"/>
        <pt x="475" y="0" on="1"/>
      </contour>
    </TTGlyph>
    <TTGlyph name="Eacute" xMin="97" yMin="0" xMax="475" yMax="887">
      <contour>
        <pt x="97" y="0" on="1"/>
        <pt x="97" y="699" on="1"/>
        <pt x="475" y="699" on="1"/>
        <pt x="475" y="596" on="1"/>
        <pt x="214" y="599" on="1"/>
        <pt x="209" y="404" on="1"/>
        <pt x="450" y="404" on="1"/>
        <pt x="450" y="305" on="1"/>
        <pt x="209" y="305" on="1"/>
        <pt x="214" y="100" on="1"/>
        <pt x="475" y="102" on="1"/>
        <pt x="475" y="0" on="1"/>
      </contour>
      <contour>
        <pt x="166" y="742" on="1"/>
        <pt x="147" y="808" on="1"/>
        <pt x="403" y="887" on="1"/>
        <pt x="431" y="798" on="1"/>
      </contour>
    </TTGlyph>
    <TTGlyph name="Ecircumflex" xMin="97" yMin="0" xMax="475" yMax="884">
      <contour>
        <pt x="97" y="0" on="1"/>
        <pt x="97" y="699" on="1"/>
        <pt x="475" y="699" on="1"/>
        <pt x="475" y="596" on="1"/>
        <pt x="214" y="599" on="1"/>
        <pt x="209" y="404" on="1"/>
        <pt x="450" y="404" on="1"/>
        <pt x="450" y="305" on="1"/>
        <pt x="209" y="305" on="1"/>
        <pt x="214" y="100" on="1"/>
        <pt x="475" y="102" on="1"/>
        <pt x="475" y="0" on="1"/>
      </contour>
      <contour>
        <pt x="280" y="798" on="1"/>
        <pt x="141" y="738" on="1"/>
        <pt x="111" y="786" on="1"/>
        <pt x="253" y="884" on="1"/>
        <pt x="314" y="884" on="1"/>
        <pt x="455" y="786" on="1"/>
        <pt x="425" y="738" on="1"/>
        <pt x="287" y="798" on="1"/>
      </contour>
    </TTGlyph>
    <TTGlyph name="Edieresis" xMin="97" yMin="0" xMax="475" yMax="857">
      <contour>
        <pt x="97" y="0" on="1"/>
        <pt x="97" y="699" on="1"/>
        <pt x="475" y="699" on="1"/>
        <pt x="475" y="596" on="1"/>
        <pt x="214" y="599" on="1"/>
        <pt x="209" y="404" on="1"/>
        <pt x="450" y="404" on="1"/>
        <pt x="450" y="305" on="1"/>
        <pt x="209" y="305" on="1"/>
        <pt x="214" y="100" on="1"/>
        <pt x="475" y="102" on="1"/>
        <pt x="475" y="0" on="1"/>
      </contour>
      <contour>
        <pt x="122" y="764" on="1"/>
        <pt x="122" y="857" on="1"/>
        <pt x="243" y="857" on="1"/>
        <pt x="243" y="764" on="1"/>
      </contour>
      <contour>
        <pt x="335" y="764" on="1"/>
        <pt x="335" y="857" on="1"/>
        <pt x="455" y="857" on="1"/>
        <pt x="455" y="764" on="1"/>
      </contour>
    </TTGlyph>
    <TTGlyph name="Egrave" xMin="97" yMin="0" xMax="475" yMax="886">
      <contour>
        <pt x="97" y="0" on="1"/>
        <pt x="97" y="699" on="1"/>
        <pt x="475" y="699" on="1"/>
        <pt x="475" y="596" on="1"/>
        <pt x="214" y="599" on="1"/>
        <pt x="209" y="404" on="1"/>
        <pt x="450" y="404" on="1"/>
        <pt x="450" y="305" on="1"/>
        <pt x="209" y="305" on="1"/>
        <pt x="214" y="100" on="1"/>
        <pt x="475" y="102" on="1"/>
        <pt x="475" y="0" on="1"/>
      </contour>
      <contour>
        <pt x="136" y="798" on="1"/>
        <pt x="162" y="886" on="1"/>
        <pt x="421" y="809" on="1"/>
        <pt x="402" y="743" on="1"/>
      </contour>
    </TTGlyph>
    <TTGlyph name="Eth" xMin="44" yMin="-13" xMax="603" yMax="712">
      <contour>
        <pt x="110" y="311" on="1"/>
        <pt x="44" y="311" on="1"/>
        <pt x="44" y="402" on="1"/>
        <pt x="110" y="402" on="1"/>
        <pt x="110" y="699" on="1"/>
        <pt x="259" y="712" on="0"/>
        <pt x="401" y="712" on="0"/>
        <pt x="497" y="673" on="0"/>
        <pt x="555" y="610" on="0"/>
        <pt x="572" y="563" on="1"/>
        <pt x="603" y="481" on="0"/>
        <pt x="603" y="358" on="1"/>
        <pt x="603" y="-13" on="0"/>
        <pt x="326" y="-13" on="1"/>
        <pt x="279" y="-13" on="0"/>
        <pt x="110" y="0" on="1"/>
      </contour>
      <contour>
        <pt x="226" y="311" on="1"/>
        <pt x="226" y="95" on="1"/>
        <pt x="280" y="88" on="0"/>
        <pt x="323" y="88" on="1"/>
        <pt x="400" y="88" on="0"/>
        <pt x="425" y="111" on="1"/>
        <pt x="476" y="160" on="0"/>
        <pt x="476" y="554" on="0"/>
        <pt x="427" y="592" on="1"/>
        <pt x="406" y="611" on="0"/>
        <pt x="339" y="611" on="1"/>
        <pt x="226" y="604" on="1"/>
        <pt x="226" y="402" on="1"/>
        <pt x="340" y="402" on="1"/>
        <pt x="340" y="311" on="1"/>
      </contour>
    </TTGlyph>
    <TTGlyph name="Euro" xMin="38" yMin="-13" xMax="579" yMax="712">
      <contour>
        <pt x="38" y="242" on="1"/>
        <pt x="38" y="323" on="1"/>
        <pt x="508" y="323" on="1"/>
        <pt x="508" y="242" on="1"/>
        <pt x="225" y="242" on="1"/>
        <pt x="236" y="148" on="0"/>
        <pt x="292" y="86" on="0"/>
        <pt x="394" y="86" on="0"/>
        <pt x="493" y="108" on="0"/>
        <pt x="546" y="130" on="1"/>
        <pt x="579" y="43" on="1"/>
        <pt x="569" y="37" on="0"/>
        <pt x="532" y="18" on="0"/>
        <pt x="417" y="-13" on="0"/>
        <pt x="357" y="-13" on="1"/>
        <pt x="136" y="-13" on="0"/>
        <pt x="102" y="242" on="1"/>
      </contour>
      <contour>
        <pt x="38" y="383" on="1"/>
        <pt x="38" y="464" on="1"/>
        <pt x="103" y="464" on="1"/>
        <pt x="123" y="604" on="0"/>
        <pt x="259" y="712" on="0"/>
        <pt x="475" y="712" on="0"/>
        <pt x="555" y="692" on="1"/>
        <pt x="543" y="595" on="1"/>
        <pt x="417" y="608" on="0"/>
        <pt x="370" y="608" on="1"/>
        <pt x="287" y="608" on="0"/>
        <pt x="236" y="557" on="0"/>
        <pt x="225" y="464" on="1"/>
        <pt x="508" y="464" on="1"/>
        <pt x="508" y="383" on="1"/>
      </contour>
    </TTGlyph>
    <TTGlyph name="F" xMin="97" yMin="0" xMax="475" yMax="699">
      <contour>
        <pt x="97" y="0" on="1"/>
        <pt x="97" y="699" on="1"/>
        <pt x="475" y="699" on="1"/>
        <pt x="475" y="594" on="1"/>
        <pt x="213" y="597" on="1"/>
        <pt x="209" y="402" on="1"/>
        <pt x="443" y="402" on="1"/>
        <pt x="443" y="304" on="1"/>
        <pt x="209" y="304" on="1"/>
        <pt x="214" y="0" on="1"/>
      </contour>
    </TTGlyph>
    <TTGlyph name="G" xMin="64" yMin="-13" xMax="550" yMax="712">
      <contour>
        <pt x="333" y="377" on="1"/>
        <pt x="550" y="377" on="1"/>
        <pt x="550" y="29" on="1"/>
        <pt x="462" y="-13" on="0"/>
        <pt x="341" y="-13" on="1"/>
        <pt x="293" y="-13" on="0"/>
        <pt x="216" y="4" on="0"/>
        <pt x="143" y="52" on="0"/>
        <pt x="118" y="92" on="1"/>
        <pt x="64" y="181" on="0"/>
        <pt x="64" y="352" on="1"/>
        <pt x="64" y="569" on="0"/>
        <pt x="146" y="645" on="1"/>
        <pt x="187" y="683" on="0"/>
        <pt x="286" y="712" on="0"/>
        <pt x="455" y="712" on="0"/>
        <pt x="548" y="691" on="1"/>
        <pt x="534" y="594" on="1"/>
        <pt x="397" y="608" on="0"/>
        <pt x="351" y="608" on="1"/>
        <pt x="258" y="608" on="0"/>
        <pt x="235" y="584" on="1"/>
        <pt x="188" y="537" on="0"/>
        <pt x="188" y="166" on="0"/>
        <pt x="237" y="114" on="1"/>
        <pt x="263" y="86" on="0"/>
        <pt x="406" y="86" on="0"/>
        <pt x="437" y="97" on="1"/>
        <pt x="437" y="286" on="1"/>
        <pt x="333" y="292" on="1"/>
      </contour>
    </TTGlyph>
    <TTGlyph name="H" xMin="97" yMin="0" xMax="591" yMax="699">
      <contour>
        <pt x="97" y="0" on="1"/>
        <pt x="97" y="699" on="1"/>
        <pt x="214" y="699" on="1"/>
        <pt x="211" y="406" on="1"/>
        <pt x="477" y="406" on="1"/>
        <pt x="474" y="699" on="1"/>
        <pt x="591" y="699" on="1"/>
        <pt x="591" y="0" on="1"/>
        <pt x="474" y="0" on="1"/>
        <pt x="477" y="305" on="1"/>
        <pt x="212" y="305" on="1"/>
        <pt x="214" y="0" on="1"/>
      </contour>
    </TTGlyph>
    <TTGlyph name="I" xMin="97" yMin="-1" xMax="215" yMax="699">
      <contour>
        <pt x="97" y="-1" on="1"/>
        <pt x="101" y="321" on="1"/>
        <pt x="97" y="699" on="1"/>
        <pt x="215" y="699" on="1"/>
        <pt x="211" y="389" on="1"/>
        <pt x="215" y="-1" on="1"/>
      </contour>
    </TTGlyph>
    <TTGlyph name="IJ" xMin="97" yMin="-13" xMax="543" yMax="699">
      <contour>
        <pt x="215" y="0" on="1"/>
        <pt x="97" y="-1" on="1"/>
        <pt x="101" y="321" on="1"/>
        <pt x="97" y="699" on="1"/>
        <pt x="215" y="699" on="1"/>
        <pt x="211" y="389" on="1"/>
      </contour>
      <contour>
        <pt x="294" y="95" on="1"/>
        <pt x="329" y="87" on="0"/>
        <pt x="392" y="87" on="0"/>
        <pt x="402" y="96" on="1"/>
        <pt x="427" y="115" on="0"/>
        <pt x="427" y="233" on="1"/>
        <pt x="427" y="699" on="1"/>
        <pt x="543" y="699" on="1"/>
        <pt x="543" y="241" on="1"/>
        <pt x="543" y="-13" on="0"/>
        <pt x="361" y="-13" on="1"/>
        <pt x="328" y="-13" on="0"/>
        <pt x="281" y="-4" on="1"/>
      </contour>
    </TTGlyph>
    <TTGlyph name="Iacute" xMin="45" yMin="-1" xMax="316" yMax="887">
      <contour>
        <pt x="63" y="742" on="1"/>
        <pt x="45" y="809" on="1"/>
        <pt x="288" y="887" on="1"/>
        <pt x="316" y="797" on="1"/>
      </contour>
      <contour>
        <pt x="215" y="0" on="1"/>
        <pt x="97" y="-1" on="1"/>
        <pt x="101" y="321" on="1"/>
        <pt x="97" y="699" on="1"/>
        <pt x="215" y="699" on="1"/>
        <pt x="211" y="389" on="1"/>
      </contour>
    </TTGlyph>
    <TTGlyph name="Icircumflex" xMin="-4" yMin="-1" xMax="316" yMax="884">
      <contour>
        <pt x="25" y="741" on="1"/>
        <pt x="-4" y="792" on="1"/>
        <pt x="126" y="884" on="1"/>
        <pt x="187" y="884" on="1"/>
        <pt x="316" y="792" on="1"/>
        <pt x="287" y="741" on="1"/>
        <pt x="160" y="798" on="1"/>
        <pt x="153" y="798" on="1"/>
      </contour>
      <contour>
        <pt x="215" y="0" on="1"/>
        <pt x="97" y="-1" on="1"/>
        <pt x="101" y="321" on="1"/>
        <pt x="97" y="699" on="1"/>
        <pt x="215" y="699" on="1"/>
        <pt x="211" y="389" on="1"/>
      </contour>
    </TTGlyph>
    <TTGlyph name="Idieresis" xMin="3" yMin="-1" xMax="310" yMax="857">
      <contour>
        <pt x="3" y="764" on="1"/>
        <pt x="3" y="857" on="1"/>
        <pt x="122" y="857" on="1"/>
        <pt x="122" y="764" on="1"/>
      </contour>
      <contour>
        <pt x="191" y="764" on="1"/>
        <pt x="191" y="857" on="1"/>
        <pt x="310" y="857" on="1"/>
        <pt x="310" y="764" on="1"/>
      </contour>
      <contour>
        <pt x="215" y="0" on="1"/>
        <pt x="97" y="-1" on="1"/>
        <pt x="101" y="321" on="1"/>
        <pt x="97" y="699" on="1"/>
        <pt x="215" y="699" on="1"/>
        <pt x="211" y="389" on="1"/>
      </contour>
    </TTGlyph>
    <TTGlyph name="Igrave" xMin="-3" yMin="-1" xMax="268" yMax="886">
      <contour>
        <pt x="-3" y="797" on="1"/>
        <pt x="23" y="886" on="1"/>
        <pt x="268" y="809" on="1"/>
        <pt x="249" y="743" on="1"/>
      </contour>
      <contour>
        <pt x="215" y="0" on="1"/>
        <pt x="97" y="-1" on="1"/>
        <pt x="101" y="321" on="1"/>
        <pt x="97" y="699" on="1"/>
        <pt x="215" y="699" on="1"/>
        <pt x="211" y="389" on="1"/>
      </contour>
    </TTGlyph>
    <TTGlyph name="Itilde" xMin="-7" yMin="-1" xMax="320" yMax="870">
      <contour>
        <pt x="71" y="870" on="1"/>
        <pt x="98" y="870" on="0"/>
        <pt x="222" y="826" on="0"/>
        <pt x="236" y="826" on="0"/>
        <pt x="250" y="846" on="0"/>
        <pt x="257" y="867" on="1"/>
        <pt x="320" y="858" on="1"/>
        <pt x="319" y="746" on="0"/>
        <pt x="243" y="746" on="1"/>
        <pt x="216" y="746" on="0"/>
        <pt x="91" y="792" on="0"/>
        <pt x="84" y="792" on="1"/>
        <pt x="72" y="792" on="0"/>
        <pt x="56" y="750" on="1"/>
        <pt x="-7" y="758" on="1"/>
        <pt x="-6" y="870" on="0"/>
      </contour>
      <contour>
        <pt x="215" y="0" on="1"/>
        <pt x="97" y="-1" on="1"/>
        <pt x="101" y="321" on="1"/>
        <pt x="97" y="699" on="1"/>
        <pt x="215" y="699" on="1"/>
        <pt x="211" y="389" on="1"/>
      </contour>
    </TTGlyph>
    <TTGlyph name="J" xMin="-13" yMin="-13" xMax="249" yMax="699">
      <contour>
        <pt x="0" y="95" on="1"/>
        <pt x="35" y="87" on="0"/>
        <pt x="98" y="87" on="0"/>
        <pt x="108" y="96" on="1"/>
        <pt x="133" y="115" on="0"/>
        <pt x="133" y="233" on="1"/>
        <pt x="133" y="699" on="1"/>
        <pt x="249" y="699" on="1"/>
        <pt x="249" y="241" on="1"/>
        <pt x="249" y="-13" on="0"/>
        <pt x="67" y="-13" on="1"/>
        <pt x="34" y="-13" on="0"/>
        <pt x="-13" y="-4" on="1"/>
      </contour>
    </TTGlyph>
    <TTGlyph name="Jcircumflex" xMin="-13" yMin="-13" xMax="349" yMax="884">
      <contour>
        <pt x="0" y="95" on="1"/>
        <pt x="35" y="87" on="0"/>
        <pt x="98" y="87" on="0"/>
        <pt x="108" y="96" on="1"/>
        <pt x="133" y="115" on="0"/>
        <pt x="133" y="233" on="1"/>
        <pt x="133" y="699" on="1"/>
        <pt x="249" y="699" on="1"/>
        <pt x="249" y="241" on="1"/>
        <pt x="249" y="-13" on="0"/>
        <pt x="67" y="-13" on="1"/>
        <pt x="34" y="-13" on="0"/>
        <pt x="-13" y="-4" on="1"/>
      </contour>
      <contour>
        <pt x="58" y="741" on="1"/>
        <pt x="29" y="792" on="1"/>
        <pt x="159" y="884" on="1"/>
        <pt x="220" y="884" on="1"/>
        <pt x="349" y="792" on="1"/>
        <pt x="320" y="741" on="1"/>
        <pt x="193" y="798" on="1"/>
        <pt x="186" y="798" on="1"/>
      </contour>
    </TTGlyph>
    <TTGlyph name="K" xMin="97" yMin="0" xMax="631" yMax="699">
      <contour>
        <pt x="484" y="0" on="1"/>
        <pt x="217" y="360" on="1"/>
        <pt x="464" y="699" on="1"/>
        <pt x="604" y="699" on="1"/>
        <pt x="342" y="365" on="1"/>
        <pt x="342" y="359" on="1"/>
        <pt x="631" y="0" on="1"/>
      </contour>
      <contour>
        <pt x="215" y="699" on="1"/>
        <pt x="215" y="0" on="1"/>
        <pt x="97" y="0" on="1"/>
        <pt x="102" y="355" on="1"/>
        <pt x="97" y="699" on="1"/>
      </contour>
    </TTGlyph>
    <TTGlyph name="L" xMin="97" yMin="0" xMax="464" yMax="699">
      <contour>
        <pt x="97" y="0" on="1"/>
        <pt x="97" y="699" on="1"/>
        <pt x="214" y="699" on="1"/>
        <pt x="209" y="102" on="1"/>
        <pt x="464" y="104" on="1"/>
        <pt x="464" y="0" on="1"/>
      </contour>
    </TTGlyph>
    <TTGlyph name="Ldotaccent" xMin="97" yMin="0" xMax="464" yMax="699">
      <contour>
        <pt x="97" y="0" on="1"/>
        <pt x="97" y="699" on="1"/>
        <pt x="214" y="699" on="1"/>
        <pt x="209" y="102" on="1"/>
        <pt x="464" y="104" on="1"/>
        <pt x="464" y="0" on="1"/>
      </contour>
      <contour>
        <pt x="300" y="341" on="1"/>
        <pt x="300" y="449" on="1"/>
        <pt x="430" y="449" on="1"/>
        <pt x="430" y="341" on="1"/>
      </contour>
    </TTGlyph>
    <TTGlyph name="Lslash" xMin="31" yMin="0" xMax="464" yMax="699">
      <contour>
        <pt x="97" y="0" on="1"/>
        <pt x="97" y="253" on="1"/>
        <pt x="31" y="212" on="1"/>
        <pt x="31" y="306" on="1"/>
        <pt x="97" y="347" on="1"/>
        <pt x="97" y="699" on="1"/>
        <pt x="214" y="699" on="1"/>
        <pt x="211" y="417" on="1"/>
        <pt x="367" y="517" on="1"/>
        <pt x="367" y="422" on="1"/>
        <pt x="211" y="322" on="1"/>
        <pt x="209" y="102" on="1"/>
        <pt x="464" y="104" on="1"/>
        <pt x="464" y="0" on="1"/>
      </contour>
    </TTGlyph>
    <TTGlyph name="M" xMin="93" yMin="0" xMax="727" yMax="699">
      <contour>
        <pt x="93" y="0" on="1"/>
        <pt x="116" y="699" on="1"/>
        <pt x="274" y="699" on="1"/>
        <pt x="407" y="275" on="1"/>
        <pt x="413" y="275" on="1"/>
        <pt x="544" y="699" on="1"/>
        <pt x="703" y="699" on="1"/>
        <pt x="727" y="0" on="1"/>
        <pt x="611" y="0" on="1"/>
        <pt x="609" y="584" on="1"/>
        <pt x="604" y="584" on="1"/>
        <pt x="473" y="172" on="1"/>
        <pt x="349" y="172" on="1"/>
        <pt x="215" y="584" on="1"/>
        <pt x="209" y="584" on="1"/>
        <pt x="210" y="0" on="1"/>
      </contour>
    </TTGlyph>
    <TTGlyph name="N" xMin="97" yMin="0" xMax="603" yMax="699">
      <contour>
        <pt x="97" y="0" on="1"/>
        <pt x="97" y="699" on="1"/>
        <pt x="250" y="699" on="1"/>
        <pt x="501" y="135" on="1"/>
        <pt x="506" y="135" on="1"/>
        <pt x="492" y="699" on="1"/>
        <pt x="603" y="699" on="1"/>
        <pt x="603" y="0" on="1"/>
        <pt x="450" y="0" on="1"/>
        <pt x="200" y="563" on="1"/>
        <pt x="195" y="563" on="1"/>
        <pt x="208" y="0" on="1"/>
      </contour>
    </TTGlyph>
    <TTGlyph name="Nacute" xMin="97" yMin="0" xMax="603" yMax="887">
      <contour>
        <pt x="97" y="0" on="1"/>
        <pt x="97" y="699" on="1"/>
        <pt x="250" y="699" on="1"/>
        <pt x="501" y="135" on="1"/>
        <pt x="506" y="135" on="1"/>
        <pt x="492" y="699" on="1"/>
        <pt x="603" y="699" on="1"/>
        <pt x="603" y="0" on="1"/>
        <pt x="450" y="0" on="1"/>
        <pt x="200" y="563" on="1"/>
        <pt x="195" y="563" on="1"/>
        <pt x="208" y="0" on="1"/>
      </contour>
      <contour>
        <pt x="259" y="742" on="1"/>
        <pt x="240" y="808" on="1"/>
        <pt x="496" y="887" on="1"/>
        <pt x="524" y="798" on="1"/>
      </contour>
    </TTGlyph>
    <TTGlyph name="Ntilde" xMin="97" yMin="0" xMax="603" yMax="870">
      <contour>
        <pt x="97" y="0" on="1"/>
        <pt x="97" y="699" on="1"/>
        <pt x="250" y="699" on="1"/>
        <pt x="501" y="135" on="1"/>
        <pt x="506" y="135" on="1"/>
        <pt x="492" y="699" on="1"/>
        <pt x="603" y="699" on="1"/>
        <pt x="603" y="0" on="1"/>
        <pt x="450" y="0" on="1"/>
        <pt x="200" y="563" on="1"/>
        <pt x="195" y="563" on="1"/>
        <pt x="208" y="0" on="1"/>
      </contour>
      <contour>
        <pt x="250" y="870" on="1"/>
        <pt x="279" y="870" on="0"/>
        <pt x="440" y="825" on="0"/>
        <pt x="447" y="825" on="1"/>
        <pt x="460" y="825" on="0"/>
        <pt x="476" y="867" on="1"/>
        <pt x="539" y="858" on="1"/>
        <pt x="538" y="746" on="0"/>
        <pt x="457" y="746" on="1"/>
        <pt x="428" y="746" on="0"/>
        <pt x="265" y="793" on="0"/>
        <pt x="252" y="793" on="0"/>
        <pt x="237" y="772" on="0"/>
        <pt x="229" y="750" on="1"/>
        <pt x="166" y="758" on="1"/>
        <pt x="167" y="870" on="0"/>
      </contour>
    </TTGlyph>
    <TTGlyph name="O" xMin="64" yMin="-13" xMax="616" yMax="712">
      <contour>
        <pt x="340" y="-13" on="1"/>
        <pt x="292" y="-13" on="0"/>
        <pt x="214" y="6" on="0"/>
        <pt x="142" y="55" on="0"/>
        <pt x="118" y="95" on="1"/>
        <pt x="64" y="182" on="0"/>
        <pt x="64" y="351" on="1"/>
        <pt x="64" y="564" on="0"/>
        <pt x="146" y="642" on="1"/>
        <pt x="186" y="680" on="0"/>
        <pt x="279" y="712" on="0"/>
        <pt x="401" y="712" on="0"/>
        <pt x="494" y="680" on="0"/>
        <pt x="534" y="642" on="1"/>
        <pt x="616" y="564" on="0"/>
        <pt x="616" y="351" on="1"/>
        <pt x="616" y="108" on="0"/>
        <pt x="502" y="30" on="1"/>
        <pt x="438" y="-13" on="0"/>
      </contour>
      <contour>
        <pt x="261" y="102" on="0"/>
        <pt x="306" y="91" on="0"/>
        <pt x="398" y="91" on="0"/>
        <pt x="428" y="108" on="1"/>
        <pt x="494" y="145" on="0"/>
        <pt x="494" y="348" on="1"/>
        <pt x="494" y="432" on="0"/>
        <pt x="478" y="534" on="0"/>
        <pt x="437" y="590" on="0"/>
        <pt x="384" y="608" on="0"/>
        <pt x="296" y="608" on="0"/>
        <pt x="244" y="590" on="0"/>
        <pt x="203" y="534" on="0"/>
        <pt x="187" y="432" on="0"/>
        <pt x="187" y="281" on="0"/>
        <pt x="199" y="189" on="0"/>
        <pt x="221" y="132" on="0"/>
      </contour>
    </TTGlyph>
    <TTGlyph name="OE" xMin="64" yMin="-13" xMax="881" yMax="712">
      <contour>
        <pt x="503" y="0" on="1"/>
        <pt x="503" y="41" on="1"/>
        <pt x="499" y="41" on="1"/>
        <pt x="434" y="-13" on="0"/>
        <pt x="340" y="-13" on="1"/>
        <pt x="184" y="-13" on="0"/>
        <pt x="118" y="95" on="1"/>
        <pt x="64" y="182" on="0"/>
        <pt x="64" y="351" on="1"/>
        <pt x="64" y="564" on="0"/>
        <pt x="146" y="642" on="1"/>
        <pt x="186" y="680" on="0"/>
        <pt x="279" y="712" on="0"/>
        <pt x="340" y="712" on="1"/>
        <pt x="436" y="712" on="0"/>
        <pt x="499" y="659" on="1"/>
        <pt x="503" y="659" on="1"/>
        <pt x="503" y="699" on="1"/>
        <pt x="881" y="699" on="1"/>
        <pt x="881" y="596" on="1"/>
        <pt x="619" y="599" on="1"/>
        <pt x="615" y="404" on="1"/>
        <pt x="856" y="404" on="1"/>
        <pt x="856" y="305" on="1"/>
        <pt x="615" y="305" on="1"/>
        <pt x="619" y="100" on="1"/>
        <pt x="881" y="102" on="1"/>
        <pt x="881" y="0" on="1"/>
      </contour>
      <contour>
        <pt x="261" y="102" on="0"/>
        <pt x="306" y="91" on="0"/>
        <pt x="398" y="91" on="0"/>
        <pt x="428" y="108" on="1"/>
        <pt x="494" y="145" on="0"/>
        <pt x="494" y="348" on="1"/>
        <pt x="494" y="432" on="0"/>
        <pt x="478" y="534" on="0"/>
        <pt x="437" y="590" on="0"/>
        <pt x="384" y="608" on="0"/>
        <pt x="296" y="608" on="0"/>
        <pt x="244" y="590" on="0"/>
        <pt x="203" y="534" on="0"/>
        <pt x="187" y="432" on="0"/>
        <pt x="187" y="281" on="0"/>
        <pt x="199" y="189" on="0"/>
        <pt x="221" y="132" on="0"/>
      </contour>
    </TTGlyph>
    <TTGlyph name="Oacute" xMin="64" yMin="-13" xMax="616" yMax="887">
      <contour>
        <pt x="340" y="-13" on="1"/>
        <pt x="292" y="-13" on="0"/>
        <pt x="214" y="6" on="0"/>
        <pt x="142" y="55" on="0"/>
        <pt x="118" y="95" on="1"/>
        <pt x="64" y="182" on="0"/>
        <pt x="64" y="351" on="1"/>
        <pt x="64" y="564" on="0"/>
        <pt x="146" y="642" on="1"/>
        <pt x="186" y="680" on="0"/>
        <pt x="279" y="712" on="0"/>
        <pt x="401" y="712" on="0"/>
        <pt x="494" y="680" on="0"/>
        <pt x="534" y="642" on="1"/>
        <pt x="616" y="564" on="0"/>
        <pt x="616" y="351" on="1"/>
        <pt x="616" y="108" on="0"/>
        <pt x="502" y="30" on="1"/>
        <pt x="438" y="-13" on="0"/>
      </contour>
      <contour>
        <pt x="261" y="102" on="0"/>
        <pt x="306" y="91" on="0"/>
        <pt x="398" y="91" on="0"/>
        <pt x="428" y="108" on="1"/>
        <pt x="494" y="145" on="0"/>
        <pt x="494" y="348" on="1"/>
        <pt x="494" y="432" on="0"/>
        <pt x="478" y="534" on="0"/>
        <pt x="437" y="590" on="0"/>
        <pt x="384" y="608" on="0"/>
        <pt x="296" y="608" on="0"/>
        <pt x="244" y="590" on="0"/>
        <pt x="203" y="534" on="0"/>
        <pt x="187" y="432" on="0"/>
        <pt x="187" y="281" on="0"/>
        <pt x="199" y="189" on="0"/>
        <pt x="221" y="132" on="0"/>
      </contour>
      <contour>
        <pt x="237" y="742" on="1"/>
        <pt x="218" y="808" on="1"/>
        <pt x="474" y="887" on="1"/>
        <pt x="502" y="798" on="1"/>
      </contour>
    </TTGlyph>
    <TTGlyph name="Ocircumflex" xMin="64" yMin="-13" xMax="616" yMax="884">
      <contour>
        <pt x="340" y="-13" on="1"/>
        <pt x="292" y="-13" on="0"/>
        <pt x="214" y="6" on="0"/>
        <pt x="142" y="55" on="0"/>
        <pt x="118" y="95" on="1"/>
        <pt x="64" y="182" on="0"/>
        <pt x="64" y="351" on="1"/>
        <pt x="64" y="564" on="0"/>
        <pt x="146" y="642" on="1"/>
        <pt x="186" y="680" on="0"/>
        <pt x="279" y="712" on="0"/>
        <pt x="401" y="712" on="0"/>
        <pt x="494" y="680" on="0"/>
        <pt x="534" y="642" on="1"/>
        <pt x="616" y="564" on="0"/>
        <pt x="616" y="351" on="1"/>
        <pt x="616" y="108" on="0"/>
        <pt x="502" y="30" on="1"/>
        <pt x="438" y="-13" on="0"/>
      </contour>
      <contour>
        <pt x="261" y="102" on="0"/>
        <pt x="306" y="91" on="0"/>
        <pt x="398" y="91" on="0"/>
        <pt x="428" y="108" on="1"/>
        <pt x="494" y="145" on="0"/>
        <pt x="494" y="348" on="1"/>
        <pt x="494" y="432" on="0"/>
        <pt x="478" y="534" on="0"/>
        <pt x="437" y="590" on="0"/>
        <pt x="384" y="608" on="0"/>
        <pt x="296" y="608" on="0"/>
        <pt x="244" y="590" on="0"/>
        <pt x="203" y="534" on="0"/>
        <pt x="187" y="432" on="0"/>
        <pt x="187" y="281" on="0"/>
        <pt x="199" y="189" on="0"/>
        <pt x="221" y="132" on="0"/>
      </contour>
      <contour>
        <pt x="202" y="738" on="1"/>
        <pt x="171" y="786" on="1"/>
        <pt x="313" y="884" on="1"/>
        <pt x="374" y="884" on="1"/>
        <pt x="516" y="786" on="1"/>
        <pt x="486" y="738" on="1"/>
        <pt x="347" y="798" on="1"/>
        <pt x="340" y="798" on="1"/>
      </contour>
    </TTGlyph>
    <TTGlyph name="Odieresis" xMin="64" yMin="-13" xMax="616" yMax="857">
      <contour>
        <pt x="340" y="-13" on="1"/>
        <pt x="292" y="-13" on="0"/>
        <pt x="214" y="6" on="0"/>
        <pt x="142" y="55" on="0"/>
        <pt x="118" y="95" on="1"/>
        <pt x="64" y="182" on="0"/>
        <pt x="64" y="351" on="1"/>
        <pt x="64" y="564" on="0"/>
        <pt x="146" y="642" on="1"/>
        <pt x="186" y="680" on="0"/>
        <pt x="279" y="712" on="0"/>
        <pt x="401" y="712" on="0"/>
        <pt x="494" y="680" on="0"/>
        <pt x="534" y="642" on="1"/>
        <pt x="616" y="564" on="0"/>
        <pt x="616" y="351" on="1"/>
        <pt x="616" y="108" on="0"/>
        <pt x="502" y="30" on="1"/>
        <pt x="438" y="-13" on="0"/>
      </contour>
      <contour>
        <pt x="261" y="102" on="0"/>
        <pt x="306" y="91" on="0"/>
        <pt x="398" y="91" on="0"/>
        <pt x="428" y="108" on="1"/>
        <pt x="494" y="145" on="0"/>
        <pt x="494" y="348" on="1"/>
        <pt x="494" y="432" on="0"/>
        <pt x="478" y="534" on="0"/>
        <pt x="437" y="590" on="0"/>
        <pt x="384" y="608" on="0"/>
        <pt x="296" y="608" on="0"/>
        <pt x="244" y="590" on="0"/>
        <pt x="203" y="534" on="0"/>
        <pt x="187" y="432" on="0"/>
        <pt x="187" y="281" on="0"/>
        <pt x="199" y="189" on="0"/>
        <pt x="221" y="132" on="0"/>
      </contour>
      <contour>
        <pt x="176" y="764" on="1"/>
        <pt x="176" y="857" on="1"/>
        <pt x="297" y="857" on="1"/>
        <pt x="297" y="764" on="1"/>
      </contour>
      <contour>
        <pt x="389" y="764" on="1"/>
        <pt x="389" y="857" on="1"/>
        <pt x="509" y="857" on="1"/>
        <pt x="509" y="764" on="1"/>
      </contour>
    </TTGlyph>
    <TTGlyph name="Ograve" xMin="64" yMin="-13" xMax="616" yMax="886">
      <contour>
        <pt x="340" y="-13" on="1"/>
        <pt x="292" y="-13" on="0"/>
        <pt x="214" y="6" on="0"/>
        <pt x="142" y="55" on="0"/>
        <pt x="118" y="95" on="1"/>
        <pt x="64" y="182" on="0"/>
        <pt x="64" y="351" on="1"/>
        <pt x="64" y="564" on="0"/>
        <pt x="146" y="642" on="1"/>
        <pt x="186" y="680" on="0"/>
        <pt x="279" y="712" on="0"/>
        <pt x="401" y="712" on="0"/>
        <pt x="494" y="680" on="0"/>
        <pt x="534" y="642" on="1"/>
        <pt x="616" y="564" on="0"/>
        <pt x="616" y="351" on="1"/>
        <pt x="616" y="108" on="0"/>
        <pt x="502" y="30" on="1"/>
        <pt x="438" y="-13" on="0"/>
      </contour>
      <contour>
        <pt x="261" y="102" on="0"/>
        <pt x="306" y="91" on="0"/>
        <pt x="398" y="91" on="0"/>
        <pt x="428" y="108" on="1"/>
        <pt x="494" y="145" on="0"/>
        <pt x="494" y="348" on="1"/>
        <pt x="494" y="432" on="0"/>
        <pt x="478" y="534" on="0"/>
        <pt x="437" y="590" on="0"/>
        <pt x="384" y="608" on="0"/>
        <pt x="296" y="608" on="0"/>
        <pt x="244" y="590" on="0"/>
        <pt x="203" y="534" on="0"/>
        <pt x="187" y="432" on="0"/>
        <pt x="187" y="281" on="0"/>
        <pt x="199" y="189" on="0"/>
        <pt x="221" y="132" on="0"/>
      </contour>
      <contour>
        <pt x="208" y="798" on="1"/>
        <pt x="234" y="886" on="1"/>
        <pt x="493" y="809" on="1"/>
        <pt x="474" y="743" on="1"/>
      </contour>
    </TTGlyph>
    <TTGlyph name="Oslash" xMin="64" yMin="-39" xMax="616" yMax="729">
      <contour>
        <pt x="146" y="642" on="1"/>
        <pt x="186" y="680" on="0"/>
        <pt x="279" y="712" on="0"/>
        <pt x="404" y="712" on="0"/>
        <pt x="454" y="692" on="1"/>
        <pt x="470" y="729" on="1"/>
        <pt x="566" y="729" on="1"/>
        <pt x="527" y="647" on="1"/>
        <pt x="616" y="563" on="0"/>
        <pt x="616" y="351" on="1"/>
        <pt x="616" y="108" on="0"/>
        <pt x="502" y="30" on="1"/>
        <pt x="438" y="-13" on="0"/>
        <pt x="340" y="-13" on="1"/>
        <pt x="275" y="-13" on="0"/>
        <pt x="228" y="5" on="1"/>
        <pt x="208" y="-39" on="1"/>
        <pt x="111" y="-39" on="1"/>
        <pt x="154" y="49" on="1"/>
        <pt x="64" y="136" on="0"/>
        <pt x="64" y="564" on="0"/>
      </contour>
      <contour>
        <pt x="271" y="100" on="1"/>
        <pt x="301" y="91" on="0"/>
        <pt x="398" y="91" on="0"/>
        <pt x="428" y="108" on="1"/>
        <pt x="494" y="145" on="0"/>
        <pt x="494" y="348" on="1"/>
        <pt x="494" y="476" on="0"/>
        <pt x="472" y="532" on="1"/>
        <pt x="375" y="328" on="1"/>
      </contour>
      <contour>
        <pt x="411" y="597" on="1"/>
        <pt x="385" y="608" on="0"/>
        <pt x="282" y="608" on="0"/>
        <pt x="252" y="590" on="1"/>
        <pt x="187" y="553" on="0"/>
        <pt x="187" y="348" on="1"/>
        <pt x="187" y="222" on="0"/>
        <pt x="210" y="165" on="1"/>
        <pt x="289" y="327" on="1"/>
      </contour>
    </TTGlyph>
    <TTGlyph name="Otilde" xMin="64" yMin="-13" xMax="616" yMax="870">
      <contour>
        <pt x="340" y="-13" on="1"/>
        <pt x="292" y="-13" on="0"/>
        <pt x="214" y="6" on="0"/>
        <pt x="142" y="55" on="0"/>
        <pt x="118" y="95" on="1"/>
        <pt x="64" y="182" on="0"/>
        <pt x="64" y="351" on="1"/>
        <pt x="64" y="564" on="0"/>
        <pt x="146" y="642" on="1"/>
        <pt x="186" y="680" on="0"/>
        <pt x="279" y="712" on="0"/>
        <pt x="401" y="712" on="0"/>
        <pt x="494" y="680" on="0"/>
        <pt x="534" y="642" on="1"/>
        <pt x="616" y="564" on="0"/>
        <pt x="616" y="351" on="1"/>
        <pt x="616" y="108" on="0"/>
        <pt x="502" y="30" on="1"/>
        <pt x="438" y="-13" on="0"/>
      </contour>
      <contour>
        <pt x="261" y="102" on="0"/>
        <pt x="306" y="91" on="0"/>
        <pt x="398" y="91" on="0"/>
        <pt x="428" y="108" on="1"/>
        <pt x="494" y="145" on="0"/>
        <pt x="494" y="348" on="1"/>
        <pt x="494" y="432" on="0"/>
        <pt x="478" y="534" on="0"/>
        <pt x="437" y="590" on="0"/>
        <pt x="384" y="608" on="0"/>
        <pt x="296" y="608" on="0"/>
        <pt x="244" y="590" on="0"/>
        <pt x="203" y="534" on="0"/>
        <pt x="187" y="432" on="0"/>
        <pt x="187" y="281" on="0"/>
        <pt x="199" y="189" on="0"/>
        <pt x="221" y="132" on="0"/>
      </contour>
      <contour>
        <pt x="238" y="870" on="1"/>
        <pt x="268" y="870" on="0"/>
        <pt x="428" y="825" on="0"/>
        <pt x="436" y="825" on="1"/>
        <pt x="449" y="825" on="0"/>
        <pt x="465" y="867" on="1"/>
        <pt x="528" y="858" on="1"/>
        <pt x="527" y="746" on="0"/>
        <pt x="446" y="746" on="1"/>
        <pt x="417" y="746" on="0"/>
        <pt x="254" y="793" on="0"/>
        <pt x="240" y="793" on="0"/>
        <pt x="225" y="772" on="0"/>
        <pt x="217" y="750" on="1"/>
        <pt x="154" y="758" on="1"/>
        <pt x="155" y="870" on="0"/>
      </contour>
    </TTGlyph>
    <TTGlyph name="P" xMin="97" yMin="0" xMax="552" yMax="712">
      <contour>
        <pt x="97" y="698" on="1"/>
        <pt x="238" y="712" on="0"/>
        <pt x="446" y="712" on="0"/>
        <pt x="552" y="590" on="0"/>
        <pt x="552" y="472" on="1"/>
        <pt x="552" y="328" on="0"/>
        <pt x="480" y="272" on="1"/>
        <pt x="418" y="222" on="0"/>
        <pt x="325" y="222" on="1"/>
        <pt x="214" y="227" on="1"/>
        <pt x="214" y="0" on="1"/>
        <pt x="97" y="0" on="1"/>
        <pt x="101" y="325" on="1"/>
      </contour>
      <contour>
        <pt x="214" y="331" on="1"/>
        <pt x="272" y="321" on="0"/>
        <pt x="398" y="321" on="0"/>
        <pt x="430" y="378" on="0"/>
        <pt x="430" y="583" on="0"/>
        <pt x="402" y="604" on="1"/>
        <pt x="384" y="619" on="0"/>
        <pt x="264" y="619" on="0"/>
        <pt x="214" y="611" on="1"/>
      </contour>
    </TTGlyph>
    <TTGlyph name="Q" xMin="64" yMin="-97" xMax="659" yMax="712">
      <contour>
        <pt x="422" y="-4" on="1"/>
        <pt x="382" y="-13" on="0"/>
        <pt x="277" y="-13" on="0"/>
        <pt x="185" y="19" on="0"/>
        <pt x="106" y="97" on="0"/>
        <pt x="64" y="245" on="0"/>
        <pt x="64" y="457" on="0"/>
        <pt x="106" y="604" on="0"/>
        <pt x="186" y="680" on="0"/>
        <pt x="280" y="712" on="0"/>
        <pt x="402" y="712" on="0"/>
        <pt x="494" y="680" on="0"/>
        <pt x="534" y="642" on="1"/>
        <pt x="616" y="564" on="0"/>
        <pt x="616" y="141" on="0"/>
        <pt x="521" y="51" on="1"/>
        <pt x="521" y="45" on="1"/>
        <pt x="659" y="3" on="1"/>
        <pt x="621" y="-97" on="1"/>
      </contour>
      <contour>
        <pt x="261" y="102" on="0"/>
        <pt x="306" y="91" on="0"/>
        <pt x="398" y="91" on="0"/>
        <pt x="428" y="108" on="1"/>
        <pt x="494" y="145" on="0"/>
        <pt x="494" y="348" on="1"/>
        <pt x="494" y="432" on="0"/>
        <pt x="478" y="534" on="0"/>
        <pt x="437" y="590" on="0"/>
        <pt x="385" y="608" on="0"/>
        <pt x="297" y="608" on="0"/>
        <pt x="244" y="590" on="0"/>
        <pt x="203" y="534" on="0"/>
        <pt x="187" y="432" on="0"/>
        <pt x="187" y="281" on="0"/>
        <pt x="199" y="189" on="0"/>
        <pt x="221" y="132" on="0"/>
      </contour>
    </TTGlyph>
    <TTGlyph name="R" xMin="97" yMin="0" xMax="598" yMax="712">
      <contour>
        <pt x="340" y="712" on="1"/>
        <pt x="581" y="712" on="0"/>
        <pt x="581" y="487" on="1"/>
        <pt x="581" y="321" on="0"/>
        <pt x="435" y="280" on="1"/>
        <pt x="435" y="275" on="1"/>
        <pt x="598" y="0" on="1"/>
        <pt x="461" y="0" on="1"/>
        <pt x="325" y="264" on="1"/>
        <pt x="215" y="268" on="1"/>
        <pt x="215" y="0" on="1"/>
        <pt x="97" y="0" on="1"/>
        <pt x="102" y="328" on="1"/>
        <pt x="99" y="698" on="1"/>
        <pt x="211" y="712" on="0"/>
      </contour>
      <contour>
        <pt x="214" y="368" on="1"/>
        <pt x="293" y="359" on="0"/>
        <pt x="412" y="359" on="0"/>
        <pt x="459" y="418" on="0"/>
        <pt x="459" y="571" on="0"/>
        <pt x="435" y="598" on="1"/>
        <pt x="414" y="620" on="0"/>
        <pt x="283" y="620" on="0"/>
        <pt x="215" y="611" on="1"/>
      </contour>
    </TTGlyph>
    <TTGlyph name="Racute" xMin="97" yMin="0" xMax="598" yMax="892">
      <contour>
        <pt x="340" y="712" on="1"/>
        <pt x="581" y="712" on="0"/>
        <pt x="581" y="487" on="1"/>
        <pt x="581" y="321" on="0"/>
        <pt x="435" y="280" on="1"/>
        <pt x="435" y="275" on="1"/>
        <pt x="598" y="0" on="1"/>
        <pt x="461" y="0" on="1"/>
        <pt x="325" y="264" on="1"/>
        <pt x="215" y="268" on="1"/>
        <pt x="215" y="0" on="1"/>
        <pt x="97" y="0" on="1"/>
        <pt x="102" y="328" on="1"/>
        <pt x="99" y="698" on="1"/>
        <pt x="211" y="712" on="0"/>
      </contour>
      <contour>
        <pt x="214" y="368" on="1"/>
        <pt x="293" y="359" on="0"/>
        <pt x="412" y="359" on="0"/>
        <pt x="459" y="418" on="0"/>
        <pt x="459" y="571" on="0"/>
        <pt x="435" y="598" on="1"/>
        <pt x="414" y="620" on="0"/>
        <pt x="283" y="620" on="0"/>
        <pt x="215" y="611" on="1"/>
      </contour>
      <contour>
        <pt x="216" y="740" on="1"/>
        <pt x="196" y="805" on="1"/>
        <pt x="450" y="892" on="1"/>
        <pt x="480" y="805" on="1"/>
      </contour>
    </TTGlyph>
    <TTGlyph name="Rcaron" xMin="97" yMin="0" xMax="598" yMax="895">
      <contour>
        <pt x="340" y="712" on="1"/>
        <pt x="581" y="712" on="0"/>
        <pt x="581" y="487" on="1"/>
        <pt x="581" y="321" on="0"/>
        <pt x="435" y="280" on="1"/>
        <pt x="435" y="275" on="1"/>
        <pt x="598" y="0" on="1"/>
        <pt x="461" y="0" on="1"/>
        <pt x="325" y="264" on="1"/>
        <pt x="215" y="268" on="1"/>
        <pt x="215" y="0" on="1"/>
        <pt x="97" y="0" on="1"/>
        <pt x="102" y="328" on="1"/>
        <pt x="99" y="698" on="1"/>
        <pt x="211" y="712" on="0"/>
      </contour>
      <contour>
        <pt x="214" y="368" on="1"/>
        <pt x="293" y="359" on="0"/>
        <pt x="412" y="359" on="0"/>
        <pt x="459" y="418" on="0"/>
        <pt x="459" y="571" on="0"/>
        <pt x="435" y="598" on="1"/>
        <pt x="414" y="620" on="0"/>
        <pt x="283" y="620" on="0"/>
        <pt x="215" y="611" on="1"/>
      </contour>
      <contour>
        <pt x="152" y="847" on="1"/>
        <pt x="183" y="895" on="1"/>
        <pt x="321" y="835" on="1"/>
        <pt x="328" y="835" on="1"/>
        <pt x="466" y="895" on="1"/>
        <pt x="497" y="847" on="1"/>
        <pt x="355" y="750" on="1"/>
        <pt x="294" y="750" on="1"/>
      </contour>
    </TTGlyph>
    <TTGlyph name="Rcommaaccent" xMin="97" yMin="-261" xMax="598" yMax="712">
      <contour>
        <pt x="340" y="712" on="1"/>
        <pt x="581" y="712" on="0"/>
        <pt x="581" y="487" on="1"/>
        <pt x="581" y="321" on="0"/>
        <pt x="435" y="280" on="1"/>
        <pt x="435" y="275" on="1"/>
        <pt x="598" y="0" on="1"/>
        <pt x="461" y="0" on="1"/>
        <pt x="325" y="264" on="1"/>
        <pt x="215" y="268" on="1"/>
        <pt x="215" y="0" on="1"/>
        <pt x="97" y="0" on="1"/>
        <pt x="102" y="328" on="1"/>
        <pt x="99" y="698" on="1"/>
        <pt x="211" y="712" on="0"/>
      </contour>
      <contour>
        <pt x="214" y="368" on="1"/>
        <pt x="293" y="359" on="0"/>
        <pt x="412" y="359" on="0"/>
        <pt x="459" y="418" on="0"/>
        <pt x="459" y="571" on="0"/>
        <pt x="435" y="598" on="1"/>
        <pt x="414" y="620" on="0"/>
        <pt x="283" y="620" on="0"/>
        <pt x="215" y="611" on="1"/>
      </contour>
      <contour>
        <pt x="269" y="-126" on="1"/>
        <pt x="269" y="-55" on="1"/>
        <pt x="374" y="-55" on="1"/>
        <pt x="374" y="-65" on="1"/>
        <pt x="374" y="-207" on="0"/>
        <pt x="273" y="-261" on="1"/>
        <pt x="231" y="-224" on="1"/>
        <pt x="252" y="-206" on="0"/>
        <pt x="269" y="-163" on="0"/>
      </contour>
    </TTGlyph>
    <TTGlyph name="S" xMin="37" yMin="-13" xMax="491" yMax="712">
      <contour>
        <pt x="283" y="92" on="1"/>
        <pt x="371" y="92" on="0"/>
        <pt x="371" y="188" on="1"/>
        <pt x="371" y="229" on="0"/>
        <pt x="305" y="285" on="0"/>
        <pt x="188" y="338" on="0"/>
        <pt x="171" y="347" on="0"/>
        <pt x="127" y="371" on="0"/>
        <pt x="110" y="387" on="0"/>
        <pt x="79" y="418" on="0"/>
        <pt x="73" y="434" on="1"/>
        <pt x="56" y="477" on="0"/>
        <pt x="56" y="518" on="1"/>
        <pt x="56" y="603" on="0"/>
        <pt x="173" y="712" on="0"/>
        <pt x="281" y="712" on="1"/>
        <pt x="360" y="712" on="0"/>
        <pt x="437" y="690" on="1"/>
        <pt x="464" y="683" on="1"/>
        <pt x="445" y="585" on="1"/>
        <pt x="336" y="606" on="0"/>
        <pt x="221" y="606" on="0"/>
        <pt x="177" y="569" on="0"/>
        <pt x="177" y="488" on="0"/>
        <pt x="232" y="443" on="0"/>
        <pt x="305" y="408" on="0"/>
        <pt x="350" y="388" on="0"/>
        <pt x="373" y="377" on="0"/>
        <pt x="413" y="354" on="0"/>
        <pt x="435" y="335" on="0"/>
        <pt x="465" y="304" on="0"/>
        <pt x="472" y="288" on="1"/>
        <pt x="491" y="249" on="0"/>
        <pt x="491" y="204" on="1"/>
        <pt x="491" y="107" on="0"/>
        <pt x="365" y="-13" on="0"/>
        <pt x="263" y="-13" on="1"/>
        <pt x="211" y="-13" on="0"/>
        <pt x="98" y="17" on="0"/>
        <pt x="68" y="32" on="1"/>
        <pt x="37" y="48" on="1"/>
        <pt x="46" y="75" on="0"/>
        <pt x="58" y="108" on="0"/>
        <pt x="66" y="131" on="0"/>
        <pt x="71" y="144" on="1"/>
        <pt x="186" y="92" on="0"/>
      </contour>
    </TTGlyph>
    <TTGlyph name="T" xMin="-4" yMin="0" xMax="497" yMax="699">
      <contour>
        <pt x="-4" y="699" on="1"/>
        <pt x="497" y="699" on="1"/>
        <pt x="497" y="596" on="1"/>
        <pt x="302" y="599" on="1"/>
        <pt x="304" y="0" on="1"/>
        <pt x="188" y="0" on="1"/>
        <pt x="191" y="599" on="1"/>
        <pt x="-4" y="596" on="1"/>
      </contour>
    </TTGlyph>
    <TTGlyph name="Thorn" xMin="95" yMin="0" xMax="560" yMax="699">
      <contour>
        <pt x="99" y="343" on="1"/>
        <pt x="95" y="699" on="1"/>
        <pt x="212" y="699" on="1"/>
        <pt x="212" y="611" on="1"/>
        <pt x="298" y="617" on="0"/>
        <pt x="348" y="617" on="1"/>
        <pt x="450" y="617" on="0"/>
        <pt x="560" y="496" on="0"/>
        <pt x="560" y="378" on="1"/>
        <pt x="560" y="235" on="0"/>
        <pt x="486" y="178" on="1"/>
        <pt x="421" y="129" on="0"/>
        <pt x="325" y="129" on="1"/>
        <pt x="212" y="134" on="1"/>
        <pt x="212" y="0" on="1"/>
        <pt x="95" y="0" on="1"/>
      </contour>
      <contour>
        <pt x="211" y="238" on="1"/>
        <pt x="274" y="228" on="0"/>
        <pt x="405" y="228" on="0"/>
        <pt x="439" y="286" on="0"/>
        <pt x="439" y="490" on="0"/>
        <pt x="408" y="509" on="1"/>
        <pt x="390" y="524" on="0"/>
        <pt x="265" y="524" on="0"/>
        <pt x="211" y="516" on="1"/>
      </contour>
    </TTGlyph>
    <TTGlyph name="U" xMin="97" yMin="-13" xMax="587" yMax="699">
      <contour>
        <pt x="97" y="305" on="1"/>
        <pt x="97" y="699" on="1"/>
        <pt x="214" y="699" on="1"/>
        <pt x="214" y="332" on="1"/>
        <pt x="214" y="223" on="0"/>
        <pt x="237" y="122" on="0"/>
        <pt x="287" y="90" on="0"/>
        <pt x="398" y="91" on="0"/>
        <pt x="447" y="122" on="0"/>
        <pt x="470" y="222" on="0"/>
        <pt x="470" y="332" on="1"/>
        <pt x="470" y="699" on="1"/>
        <pt x="587" y="699" on="1"/>
        <pt x="587" y="314" on="1"/>
        <pt x="587" y="124" on="0"/>
        <pt x="523" y="54" on="1"/>
        <pt x="490" y="17" on="0"/>
        <pt x="404" y="-13" on="0"/>
        <pt x="342" y="-13" on="1"/>
        <pt x="218" y="-13" on="0"/>
        <pt x="97" y="127" on="0"/>
      </contour>
    </TTGlyph>
    <TTGlyph name="Uacute" xMin="97" yMin="-13" xMax="587" yMax="887">
      <contour>
        <pt x="97" y="305" on="1"/>
        <pt x="97" y="699" on="1"/>
        <pt x="214" y="699" on="1"/>
        <pt x="214" y="332" on="1"/>
        <pt x="214" y="223" on="0"/>
        <pt x="237" y="122" on="0"/>
        <pt x="287" y="90" on="0"/>
        <pt x="398" y="91" on="0"/>
        <pt x="447" y="122" on="0"/>
        <pt x="470" y="222" on="0"/>
        <pt x="470" y="332" on="1"/>
        <pt x="470" y="699" on="1"/>
        <pt x="587" y="699" on="1"/>
        <pt x="587" y="314" on="1"/>
        <pt x="587" y="124" on="0"/>
        <pt x="523" y="54" on="1"/>
        <pt x="490" y="17" on="0"/>
        <pt x="404" y="-13" on="0"/>
        <pt x="342" y="-13" on="1"/>
        <pt x="218" y="-13" on="0"/>
        <pt x="97" y="127" on="0"/>
      </contour>
      <contour>
        <pt x="235" y="742" on="1"/>
        <pt x="217" y="808" on="1"/>
        <pt x="473" y="887" on="1"/>
        <pt x="501" y="798" on="1"/>
      </contour>
    </TTGlyph>
    <TTGlyph name="Ucircumflex" xMin="97" yMin="-13" xMax="587" yMax="884">
      <contour>
        <pt x="97" y="305" on="1"/>
        <pt x="97" y="699" on="1"/>
        <pt x="214" y="699" on="1"/>
        <pt x="214" y="332" on="1"/>
        <pt x="214" y="223" on="0"/>
        <pt x="237" y="122" on="0"/>
        <pt x="287" y="90" on="0"/>
        <pt x="398" y="91" on="0"/>
        <pt x="447" y="122" on="0"/>
        <pt x="470" y="222" on="0"/>
        <pt x="470" y="332" on="1"/>
        <pt x="470" y="699" on="1"/>
        <pt x="587" y="699" on="1"/>
        <pt x="587" y="314" on="1"/>
        <pt x="587" y="124" on="0"/>
        <pt x="523" y="54" on="1"/>
        <pt x="490" y="17" on="0"/>
        <pt x="404" y="-13" on="0"/>
        <pt x="342" y="-13" on="1"/>
        <pt x="218" y="-13" on="0"/>
        <pt x="97" y="127" on="0"/>
      </contour>
      <contour>
        <pt x="201" y="738" on="1"/>
        <pt x="170" y="786" on="1"/>
        <pt x="312" y="884" on="1"/>
        <pt x="373" y="884" on="1"/>
        <pt x="515" y="786" on="1"/>
        <pt x="484" y="738" on="1"/>
        <pt x="346" y="798" on="1"/>
        <pt x="339" y="798" on="1"/>
      </contour>
    </TTGlyph>
    <TTGlyph name="Udieresis" xMin="97" yMin="-13" xMax="587" yMax="856">
      <contour>
        <pt x="97" y="305" on="1"/>
        <pt x="97" y="699" on="1"/>
        <pt x="214" y="699" on="1"/>
        <pt x="214" y="332" on="1"/>
        <pt x="214" y="223" on="0"/>
        <pt x="237" y="122" on="0"/>
        <pt x="287" y="90" on="0"/>
        <pt x="398" y="91" on="0"/>
        <pt x="447" y="122" on="0"/>
        <pt x="470" y="222" on="0"/>
        <pt x="470" y="332" on="1"/>
        <pt x="470" y="699" on="1"/>
        <pt x="587" y="699" on="1"/>
        <pt x="587" y="314" on="1"/>
        <pt x="587" y="124" on="0"/>
        <pt x="523" y="54" on="1"/>
        <pt x="490" y="17" on="0"/>
        <pt x="404" y="-13" on="0"/>
        <pt x="342" y="-13" on="1"/>
        <pt x="218" y="-13" on="0"/>
        <pt x="97" y="127" on="0"/>
      </contour>
      <contour>
        <pt x="176" y="762" on="1"/>
        <pt x="176" y="856" on="1"/>
        <pt x="296" y="856" on="1"/>
        <pt x="296" y="762" on="1"/>
      </contour>
      <contour>
        <pt x="389" y="762" on="1"/>
        <pt x="389" y="856" on="1"/>
        <pt x="509" y="856" on="1"/>
        <pt x="509" y="762" on="1"/>
      </contour>
    </TTGlyph>
    <TTGlyph name="Ugrave" xMin="97" yMin="-13" xMax="587" yMax="886">
      <contour>
        <pt x="97" y="305" on="1"/>
        <pt x="97" y="699" on="1"/>
        <pt x="214" y="699" on="1"/>
        <pt x="214" y="332" on="1"/>
        <pt x="214" y="223" on="0"/>
        <pt x="237" y="122" on="0"/>
        <pt x="287" y="90" on="0"/>
        <pt x="398" y="91" on="0"/>
        <pt x="447" y="122" on="0"/>
        <pt x="470" y="222" on="0"/>
        <pt x="470" y="332" on="1"/>
        <pt x="470" y="699" on="1"/>
        <pt x="587" y="699" on="1"/>
        <pt x="587" y="314" on="1"/>
        <pt x="587" y="124" on="0"/>
        <pt x="523" y="54" on="1"/>
        <pt x="490" y="17" on="0"/>
        <pt x="404" y="-13" on="0"/>
        <pt x="342" y="-13" on="1"/>
        <pt x="218" y="-13" on="0"/>
        <pt x="97" y="127" on="0"/>
      </contour>
      <contour>
        <pt x="185" y="798" on="1"/>
        <pt x="211" y="886" on="1"/>
        <pt x="470" y="809" on="1"/>
        <pt x="451" y="743" on="1"/>
      </contour>
    </TTGlyph>
    <TTGlyph name="V" xMin="16" yMin="0" xMax="546" yMax="699">
      <contour>
        <pt x="207" y="0" on="1"/>
        <pt x="16" y="699" on="1"/>
        <pt x="139" y="699" on="1"/>
        <pt x="277" y="103" on="1"/>
        <pt x="283" y="103" on="1"/>
        <pt x="422" y="699" on="1"/>
        <pt x="546" y="699" on="1"/>
        <pt x="353" y="0" on="1"/>
      </contour>
    </TTGlyph>
    <TTGlyph name="W" xMin="28" yMin="0" xMax="744" yMax="699">
      <contour>
        <pt x="129" y="0" on="1"/>
        <pt x="28" y="699" on="1"/>
        <pt x="145" y="699" on="1"/>
        <pt x="209" y="114" on="1"/>
        <pt x="215" y="114" on="1"/>
        <pt x="313" y="531" on="1"/>
        <pt x="459" y="531" on="1"/>
        <pt x="557" y="114" on="1"/>
        <pt x="563" y="114" on="1"/>
        <pt x="626" y="699" on="1"/>
        <pt x="744" y="699" on="1"/>
        <pt x="641" y="0" on="1"/>
        <pt x="490" y="0" on="1"/>
        <pt x="389" y="428" on="1"/>
        <pt x="383" y="428" on="1"/>
        <pt x="283" y="0" on="1"/>
      </contour>
    </TTGlyph>
    <TTGlyph name="X" xMin="5" yMin="0" xMax="567" yMax="699">
      <contour>
        <pt x="5" y="0" on="1"/>
        <pt x="211" y="350" on="1"/>
        <pt x="12" y="699" on="1"/>
        <pt x="145" y="699" on="1"/>
        <pt x="282" y="424" on="1"/>
        <pt x="288" y="424" on="1"/>
        <pt x="426" y="699" on="1"/>
        <pt x="559" y="699" on="1"/>
        <pt x="360" y="348" on="1"/>
        <pt x="567" y="0" on="1"/>
        <pt x="433" y="0" on="1"/>
        <pt x="290" y="271" on="1"/>
        <pt x="285" y="271" on="1"/>
        <pt x="139" y="0" on="1"/>
      </contour>
    </TTGlyph>
    <TTGlyph name="Y" xMin="3" yMin="0" xMax="537" yMax="699">
      <contour>
        <pt x="210" y="0" on="1"/>
        <pt x="213" y="256" on="1"/>
        <pt x="3" y="699" on="1"/>
        <pt x="130" y="699" on="1"/>
        <pt x="267" y="352" on="1"/>
        <pt x="272" y="352" on="1"/>
        <pt x="410" y="699" on="1"/>
        <pt x="537" y="699" on="1"/>
        <pt x="327" y="256" on="1"/>
        <pt x="329" y="0" on="1"/>
      </contour>
    </TTGlyph>
    <TTGlyph name="Yacute" xMin="3" yMin="0" xMax="537" yMax="887">
      <contour>
        <pt x="210" y="0" on="1"/>
        <pt x="213" y="256" on="1"/>
        <pt x="3" y="699" on="1"/>
        <pt x="130" y="699" on="1"/>
        <pt x="267" y="352" on="1"/>
        <pt x="272" y="352" on="1"/>
        <pt x="410" y="699" on="1"/>
        <pt x="537" y="699" on="1"/>
        <pt x="327" y="256" on="1"/>
        <pt x="329" y="0" on="1"/>
      </contour>
      <contour>
        <pt x="168" y="742" on="1"/>
        <pt x="150" y="808" on="1"/>
        <pt x="406" y="887" on="1"/>
        <pt x="434" y="798" on="1"/>
      </contour>
    </TTGlyph>
    <TTGlyph name="Z" xMin="29" yMin="0" xMax="520" yMax="699">
      <contour>
        <pt x="29" y="0" on="1"/>
        <pt x="29" y="98" on="1"/>
        <pt x="380" y="596" on="1"/>
        <pt x="380" y="603" on="1"/>
        <pt x="50" y="596" on="1"/>
        <pt x="50" y="699" on="1"/>
        <pt x="516" y="699" on="1"/>
        <pt x="516" y="601" on="1"/>
        <pt x="170" y="102" on="1"/>
        <pt x="170" y="97" on="1"/>
        <pt x="520" y="102" on="1"/>
        <pt x="520" y="0" on="1"/>
      </contour>
    </TTGlyph>
    <TTGlyph name="a" xMin="46" yMin="-13" xMax="501" yMax="598">
      <contour>
        <pt x="216" y="-13" on="1"/>
        <pt x="139" y="-13" on="0"/>
        <pt x="46" y="84" on="0"/>
        <pt x="46" y="277" on="0"/>
        <pt x="171" y="365" on="0"/>
        <pt x="289" y="365" on="1"/>
        <pt x="385" y="364" on="1"/>
        <pt x="385" y="461" on="0"/>
        <pt x="354" y="502" on="0"/>
        <pt x="264" y="502" on="0"/>
        <pt x="153" y="480" on="0"/>
        <pt x="91" y="457" on="1"/>
        <pt x="60" y="542" on="1"/>
        <pt x="74" y="548" on="0"/>
        <pt x="121" y="567" on="0"/>
        <pt x="249" y="598" on="0"/>
        <pt x="302" y="598" on="1"/>
        <pt x="501" y="598" on="0"/>
        <pt x="501" y="382" on="1"/>
        <pt x="501" y="0" on="1"/>
        <pt x="427" y="0" on="1"/>
        <pt x="411" y="63" on="1"/>
        <pt x="406" y="63" on="1"/>
        <pt x="395" y="54" on="0"/>
        <pt x="358" y="29" on="0"/>
        <pt x="257" y="-13" on="0"/>
      </contour>
      <contour>
        <pt x="385" y="270" on="1"/>
        <pt x="344" y="276" on="0"/>
        <pt x="204" y="276" on="0"/>
        <pt x="187" y="259" on="1"/>
        <pt x="165" y="239" on="0"/>
        <pt x="165" y="126" on="0"/>
        <pt x="194" y="85" on="0"/>
        <pt x="259" y="85" on="0"/>
        <pt x="338" y="108" on="0"/>
        <pt x="385" y="130" on="1"/>
      </contour>
    </TTGlyph>
    <TTGlyph name="aacute" xMin="46" yMin="-13" xMax="501" yMax="813">
      <contour>
        <pt x="216" y="-13" on="1"/>
        <pt x="139" y="-13" on="0"/>
        <pt x="46" y="84" on="0"/>
        <pt x="46" y="277" on="0"/>
        <pt x="171" y="365" on="0"/>
        <pt x="289" y="365" on="1"/>
        <pt x="385" y="364" on="1"/>
        <pt x="385" y="461" on="0"/>
        <pt x="354" y="502" on="0"/>
        <pt x="264" y="502" on="0"/>
        <pt x="153" y="480" on="0"/>
        <pt x="91" y="457" on="1"/>
        <pt x="60" y="542" on="1"/>
        <pt x="74" y="548" on="0"/>
        <pt x="121" y="567" on="0"/>
        <pt x="249" y="598" on="0"/>
        <pt x="302" y="598" on="1"/>
        <pt x="501" y="598" on="0"/>
        <pt x="501" y="382" on="1"/>
        <pt x="501" y="0" on="1"/>
        <pt x="427" y="0" on="1"/>
        <pt x="411" y="63" on="1"/>
        <pt x="406" y="63" on="1"/>
        <pt x="395" y="54" on="0"/>
        <pt x="358" y="29" on="0"/>
        <pt x="257" y="-13" on="0"/>
      </contour>
      <contour>
        <pt x="385" y="270" on="1"/>
        <pt x="344" y="276" on="0"/>
        <pt x="204" y="276" on="0"/>
        <pt x="187" y="259" on="1"/>
        <pt x="165" y="239" on="0"/>
        <pt x="165" y="126" on="0"/>
        <pt x="194" y="85" on="0"/>
        <pt x="259" y="85" on="0"/>
        <pt x="338" y="108" on="0"/>
        <pt x="385" y="130" on="1"/>
      </contour>
      <contour>
        <pt x="169" y="652" on="1"/>
        <pt x="147" y="720" on="1"/>
        <pt x="409" y="813" on="1"/>
        <pt x="441" y="721" on="1"/>
      </contour>
    </TTGlyph>
    <TTGlyph name="acircumflex" xMin="46" yMin="-13" xMax="501" yMax="804">
      <contour>
        <pt x="216" y="-13" on="1"/>
        <pt x="139" y="-13" on="0"/>
        <pt x="46" y="84" on="0"/>
        <pt x="46" y="277" on="0"/>
        <pt x="171" y="365" on="0"/>
        <pt x="289" y="365" on="1"/>
        <pt x="385" y="364" on="1"/>
        <pt x="385" y="461" on="0"/>
        <pt x="354" y="502" on="0"/>
        <pt x="264" y="502" on="0"/>
        <pt x="153" y="480" on="0"/>
        <pt x="91" y="457" on="1"/>
        <pt x="60" y="542" on="1"/>
        <pt x="74" y="548" on="0"/>
        <pt x="121" y="567" on="0"/>
        <pt x="249" y="598" on="0"/>
        <pt x="302" y="598" on="1"/>
        <pt x="501" y="598" on="0"/>
        <pt x="501" y="382" on="1"/>
        <pt x="501" y="0" on="1"/>
        <pt x="427" y="0" on="1"/>
        <pt x="411" y="63" on="1"/>
        <pt x="406" y="63" on="1"/>
        <pt x="395" y="54" on="0"/>
        <pt x="358" y="29" on="0"/>
        <pt x="257" y="-13" on="0"/>
      </contour>
      <contour>
        <pt x="385" y="270" on="1"/>
        <pt x="344" y="276" on="0"/>
        <pt x="204" y="276" on="0"/>
        <pt x="187" y="259" on="1"/>
        <pt x="165" y="239" on="0"/>
        <pt x="165" y="126" on="0"/>
        <pt x="194" y="85" on="0"/>
        <pt x="259" y="85" on="0"/>
        <pt x="338" y="108" on="0"/>
        <pt x="385" y="130" on="1"/>
      </contour>
      <contour>
        <pt x="150" y="647" on="1"/>
        <pt x="117" y="697" on="1"/>
        <pt x="263" y="804" on="1"/>
        <pt x="324" y="804" on="1"/>
        <pt x="471" y="697" on="1"/>
        <pt x="436" y="647" on="1"/>
        <pt x="297" y="716" on="1"/>
        <pt x="290" y="716" on="1"/>
      </contour>
    </TTGlyph>
    <TTGlyph name="acute" xMin="167" yMin="652" xMax="461" yMax="813">
      <contour>
        <pt x="189" y="652" on="1"/>
        <pt x="167" y="720" on="1"/>
        <pt x="429" y="813" on="1"/>
        <pt x="461" y="721" on="1"/>
      </contour>
    </TTGlyph>
    <TTGlyph name="acute.cap" xMin="151" yMin="742" xMax="435" yMax="887">
      <contour>
        <pt x="170" y="742" on="1"/>
        <pt x="151" y="808" on="1"/>
        <pt x="407" y="887" on="1"/>
        <pt x="435" y="798" on="1"/>
      </contour>
    </TTGlyph>
    <TTGlyph name="adieresis" xMin="46" yMin="-13" xMax="501" yMax="770">
      <contour>
        <pt x="216" y="-13" on="1"/>
        <pt x="139" y="-13" on="0"/>
        <pt x="46" y="84" on="0"/>
        <pt x="46" y="277" on="0"/>
        <pt x="171" y="365" on="0"/>
        <pt x="289" y="365" on="1"/>
        <pt x="385" y="364" on="1"/>
        <pt x="385" y="461" on="0"/>
        <pt x="354" y="502" on="0"/>
        <pt x="264" y="502" on="0"/>
        <pt x="153" y="480" on="0"/>
        <pt x="91" y="457" on="1"/>
        <pt x="60" y="542" on="1"/>
        <pt x="74" y="548" on="0"/>
        <pt x="121" y="567" on="0"/>
        <pt x="249" y="598" on="0"/>
        <pt x="302" y="598" on="1"/>
        <pt x="501" y="598" on="0"/>
        <pt x="501" y="382" on="1"/>
        <pt x="501" y="0" on="1"/>
        <pt x="427" y="0" on="1"/>
        <pt x="411" y="63" on="1"/>
        <pt x="406" y="63" on="1"/>
        <pt x="395" y="54" on="0"/>
        <pt x="358" y="29" on="0"/>
        <pt x="257" y="-13" on="0"/>
      </contour>
      <contour>
        <pt x="385" y="270" on="1"/>
        <pt x="344" y="276" on="0"/>
        <pt x="204" y="276" on="0"/>
        <pt x="187" y="259" on="1"/>
        <pt x="165" y="239" on="0"/>
        <pt x="165" y="126" on="0"/>
        <pt x="194" y="85" on="0"/>
        <pt x="259" y="85" on="0"/>
        <pt x="338" y="108" on="0"/>
        <pt x="385" y="130" on="1"/>
      </contour>
      <contour>
        <pt x="127" y="677" on="1"/>
        <pt x="127" y="770" on="1"/>
        <pt x="251" y="770" on="1"/>
        <pt x="251" y="677" on="1"/>
      </contour>
      <contour>
        <pt x="338" y="677" on="1"/>
        <pt x="338" y="770" on="1"/>
        <pt x="461" y="770" on="1"/>
        <pt x="461" y="677" on="1"/>
      </contour>
    </TTGlyph>
    <TTGlyph name="ae" xMin="57" yMin="-13" xMax="861" yMax="598">
      <contour>
        <pt x="225" y="-13" on="1"/>
        <pt x="148" y="-13" on="0"/>
        <pt x="57" y="84" on="0"/>
        <pt x="57" y="272" on="0"/>
        <pt x="186" y="354" on="0"/>
        <pt x="304" y="354" on="1"/>
        <pt x="396" y="354" on="1"/>
        <pt x="396" y="458" on="0"/>
        <pt x="366" y="502" on="0"/>
        <pt x="273" y="502" on="0"/>
        <pt x="165" y="480" on="0"/>
        <pt x="102" y="457" on="1"/>
        <pt x="71" y="543" on="1"/>
        <pt x="115" y="563" on="0"/>
        <pt x="253" y="598" on="0"/>
        <pt x="304" y="598" on="1"/>
        <pt x="417" y="598" on="0"/>
        <pt x="467" y="534" on="1"/>
        <pt x="471" y="534" on="1"/>
        <pt x="531" y="598" on="0"/>
        <pt x="751" y="598" on="0"/>
        <pt x="861" y="473" on="0"/>
        <pt x="861" y="328" on="1"/>
        <pt x="861" y="258" on="1"/>
        <pt x="514" y="258" on="1"/>
        <pt x="514" y="138" on="0"/>
        <pt x="545" y="108" on="1"/>
        <pt x="562" y="91" on="0"/>
        <pt x="597" y="82" on="0"/>
        <pt x="662" y="82" on="0"/>
        <pt x="757" y="102" on="0"/>
        <pt x="819" y="123" on="1"/>
        <pt x="848" y="35" on="1"/>
        <pt x="806" y="16" on="0"/>
        <pt x="689" y="-13" on="0"/>
        <pt x="641" y="-13" on="1"/>
        <pt x="509" y="-13" on="0"/>
        <pt x="450" y="71" on="1"/>
        <pt x="446" y="71" on="1"/>
        <pt x="399" y="33" on="0"/>
        <pt x="271" y="-13" on="0"/>
      </contour>
      <contour>
        <pt x="396" y="260" on="1"/>
        <pt x="358" y="266" on="0"/>
        <pt x="220" y="266" on="0"/>
        <pt x="176" y="234" on="0"/>
        <pt x="176" y="126" on="0"/>
        <pt x="210" y="85" on="0"/>
        <pt x="244" y="85" on="1"/>
        <pt x="306" y="85" on="0"/>
        <pt x="374" y="118" on="1"/>
        <pt x="396" y="129" on="1"/>
      </contour>
      <contour>
        <pt x="643" y="503" on="1"/>
        <pt x="564" y="503" on="0"/>
        <pt x="516" y="433" on="0"/>
        <pt x="514" y="345" on="1"/>
        <pt x="743" y="349" on="1"/>
        <pt x="743" y="459" on="0"/>
        <pt x="722" y="478" on="1"/>
        <pt x="694" y="503" on="0"/>
      </contour>
    </TTGlyph>
    <TTGlyph name="agrave" xMin="46" yMin="-13" xMax="501" yMax="813">
      <contour>
        <pt x="216" y="-13" on="1"/>
        <pt x="139" y="-13" on="0"/>
        <pt x="46" y="84" on="0"/>
        <pt x="46" y="277" on="0"/>
        <pt x="171" y="365" on="0"/>
        <pt x="289" y="365" on="1"/>
        <pt x="385" y="364" on="1"/>
        <pt x="385" y="461" on="0"/>
        <pt x="354" y="502" on="0"/>
        <pt x="264" y="502" on="0"/>
        <pt x="153" y="480" on="0"/>
        <pt x="91" y="457" on="1"/>
        <pt x="60" y="542" on="1"/>
        <pt x="74" y="548" on="0"/>
        <pt x="121" y="567" on="0"/>
        <pt x="249" y="598" on="0"/>
        <pt x="302" y="598" on="1"/>
        <pt x="501" y="598" on="0"/>
        <pt x="501" y="382" on="1"/>
        <pt x="501" y="0" on="1"/>
        <pt x="427" y="0" on="1"/>
        <pt x="411" y="63" on="1"/>
        <pt x="406" y="63" on="1"/>
        <pt x="395" y="54" on="0"/>
        <pt x="358" y="29" on="0"/>
        <pt x="257" y="-13" on="0"/>
      </contour>
      <contour>
        <pt x="385" y="270" on="1"/>
        <pt x="344" y="276" on="0"/>
        <pt x="204" y="276" on="0"/>
        <pt x="187" y="259" on="1"/>
        <pt x="165" y="239" on="0"/>
        <pt x="165" y="126" on="0"/>
        <pt x="194" y="85" on="0"/>
        <pt x="259" y="85" on="0"/>
        <pt x="338" y="108" on="0"/>
        <pt x="385" y="130" on="1"/>
      </contour>
      <contour>
        <pt x="147" y="721" on="1"/>
        <pt x="179" y="813" on="1"/>
        <pt x="441" y="720" on="1"/>
        <pt x="419" y="652" on="1"/>
      </contour>
    </TTGlyph>
    <TTGlyph name="ampersand" xMin="23" yMin="-13" xMax="648" yMax="712">
      <contour>
        <pt x="253" y="-13" on="1"/>
        <pt x="149" y="-13" on="0"/>
        <pt x="23" y="112" on="0"/>
        <pt x="23" y="263" on="0"/>
        <pt x="105" y="362" on="0"/>
        <pt x="159" y="384" on="1"/>
        <pt x="73" y="441" on="0"/>
        <pt x="73" y="537" on="1"/>
        <pt x="73" y="613" on="0"/>
        <pt x="179" y="712" on="0"/>
        <pt x="369" y="712" on="0"/>
        <pt x="467" y="611" on="0"/>
        <pt x="467" y="541" on="1"/>
        <pt x="467" y="439" on="0"/>
        <pt x="362" y="379" on="1"/>
        <pt x="436" y="329" on="0"/>
        <pt x="488" y="266" on="1"/>
        <pt x="520" y="322" on="0"/>
        <pt x="546" y="390" on="1"/>
        <pt x="645" y="361" on="1"/>
        <pt x="611" y="272" on="0"/>
        <pt x="554" y="184" on="1"/>
        <pt x="605" y="107" on="0"/>
        <pt x="648" y="-9" on="1"/>
        <pt x="534" y="-13" on="1"/>
        <pt x="522" y="27" on="0"/>
        <pt x="482" y="96" on="1"/>
        <pt x="378" y="-13" on="0"/>
      </contour>
      <contour>
        <pt x="143" y="237" on="0"/>
        <pt x="143" y="141" on="0"/>
        <pt x="206" y="80" on="0"/>
        <pt x="302" y="80" on="0"/>
        <pt x="392" y="136" on="0"/>
        <pt x="425" y="180" on="1"/>
        <pt x="356" y="270" on="0"/>
        <pt x="260" y="328" on="1"/>
        <pt x="206" y="309" on="0"/>
      </contour>
      <contour>
        <pt x="303" y="445" on="0"/>
        <pt x="351" y="503" on="0"/>
        <pt x="351" y="578" on="0"/>
        <pt x="311" y="622" on="0"/>
        <pt x="269" y="622" on="1"/>
        <pt x="189" y="622" on="0"/>
        <pt x="189" y="542" on="1"/>
        <pt x="189" y="469" on="0"/>
        <pt x="267" y="429" on="1"/>
      </contour>
    </TTGlyph>
    <TTGlyph name="aring" xMin="46" yMin="-13" xMax="501" yMax="821">
      <contour>
        <pt x="216" y="-13" on="1"/>
        <pt x="139" y="-13" on="0"/>
        <pt x="46" y="84" on="0"/>
        <pt x="46" y="277" on="0"/>
        <pt x="171" y="365" on="0"/>
        <pt x="289" y="365" on="1"/>
        <pt x="385" y="364" on="1"/>
        <pt x="385" y="461" on="0"/>
        <pt x="354" y="502" on="0"/>
        <pt x="264" y="502" on="0"/>
        <pt x="153" y="480" on="0"/>
        <pt x="91" y="457" on="1"/>
        <pt x="60" y="542" on="1"/>
        <pt x="74" y="548" on="0"/>
        <pt x="121" y="567" on="0"/>
        <pt x="249" y="598" on="0"/>
        <pt x="302" y="598" on="1"/>
        <pt x="501" y="598" on="0"/>
        <pt x="501" y="382" on="1"/>
        <pt x="501" y="0" on="1"/>
        <pt x="427" y="0" on="1"/>
        <pt x="411" y="63" on="1"/>
        <pt x="406" y="63" on="1"/>
        <pt x="395" y="54" on="0"/>
        <pt x="358" y="29" on="0"/>
        <pt x="257" y="-13" on="0"/>
      </contour>
      <contour>
        <pt x="385" y="270" on="1"/>
        <pt x="344" y="276" on="0"/>
        <pt x="204" y="276" on="0"/>
        <pt x="187" y="259" on="1"/>
        <pt x="165" y="239" on="0"/>
        <pt x="165" y="126" on="0"/>
        <pt x="194" y="85" on="0"/>
        <pt x="259" y="85" on="0"/>
        <pt x="338" y="108" on="0"/>
        <pt x="385" y="130" on="1"/>
      </contour>
      <contour>
        <pt x="188" y="731" on="1"/>
        <pt x="188" y="821" on="0"/>
        <pt x="375" y="821" on="0"/>
        <pt x="375" y="731" on="1"/>
        <pt x="375" y="683" on="0"/>
        <pt x="322" y="642" on="0"/>
        <pt x="242" y="642" on="0"/>
        <pt x="188" y="683" on="0"/>
      </contour>
      <contour>
        <pt x="261" y="768" on="0"/>
        <pt x="244" y="753" on="0"/>
        <pt x="244" y="710" on="0"/>
        <pt x="262" y="694" on="0"/>
        <pt x="301" y="694" on="0"/>
        <pt x="318" y="710" on="0"/>
        <pt x="318" y="753" on="0"/>
        <pt x="302" y="768" on="0"/>
      </contour>
    </TTGlyph>
    <TTGlyph name="asciicircum" xMin="50" yMin="314" xMax="469" yMax="700">
      <contour>
        <pt x="50" y="325" on="1"/>
        <pt x="200" y="700" on="1"/>
        <pt x="320" y="700" on="1"/>
        <pt x="469" y="325" on="1"/>
        <pt x="363" y="314" on="1"/>
        <pt x="263" y="606" on="1"/>
        <pt x="257" y="606" on="1"/>
        <pt x="157" y="314" on="1"/>
      </contour>
    </TTGlyph>
    <TTGlyph name="asciitilde" xMin="19" yMin="204" xMax="510" yMax="372">
      <contour>
        <pt x="142" y="372" on="1"/>
        <pt x="181" y="372" on="0"/>
        <pt x="365" y="304" on="0"/>
        <pt x="426" y="304" on="0"/>
        <pt x="475" y="332" on="1"/>
        <pt x="510" y="271" on="1"/>
        <pt x="493" y="246" on="0"/>
        <pt x="430" y="204" on="0"/>
        <pt x="361" y="204" on="0"/>
        <pt x="170" y="272" on="0"/>
        <pt x="105" y="272" on="0"/>
        <pt x="56" y="238" on="1"/>
        <pt x="19" y="300" on="1"/>
        <pt x="85" y="372" on="0"/>
      </contour>
    </TTGlyph>
    <TTGlyph name="asterisk" xMin="28" yMin="361" xMax="391" yMax="715">
      <contour>
        <pt x="158" y="715" on="1"/>
        <pt x="261" y="715" on="1"/>
        <pt x="261" y="695" on="1"/>
        <pt x="243" y="590" on="1"/>
        <pt x="340" y="638" on="1"/>
        <pt x="360" y="645" on="1"/>
        <pt x="391" y="546" on="1"/>
        <pt x="371" y="540" on="1"/>
        <pt x="259" y="524" on="1"/>
        <pt x="348" y="443" on="1"/>
        <pt x="362" y="429" on="1"/>
        <pt x="283" y="362" on="1"/>
        <pt x="272" y="378" on="1"/>
        <pt x="209" y="481" on="1"/>
        <pt x="145" y="377" on="1"/>
        <pt x="133" y="361" on="1"/>
        <pt x="57" y="428" on="1"/>
        <pt x="70" y="443" on="1"/>
        <pt x="158" y="524" on="1"/>
        <pt x="47" y="540" on="1"/>
        <pt x="28" y="546" on="1"/>
        <pt x="59" y="645" on="1"/>
        <pt x="79" y="638" on="1"/>
        <pt x="176" y="590" on="1"/>
        <pt x="158" y="695" on="1"/>
      </contour>
    </TTGlyph>
    <TTGlyph name="at" xMin="58" yMin="-48" xMax="768" yMax="702">
      <contour>
        <pt x="515" y="-33" on="1"/>
        <pt x="470" y="-48" on="0"/>
        <pt x="345" y="-48" on="0"/>
        <pt x="221" y="-1" on="0"/>
        <pt x="119" y="89" on="0"/>
        <pt x="58" y="234" on="0"/>
        <pt x="58" y="417" on="0"/>
        <pt x="123" y="566" on="0"/>
        <pt x="176" y="610" on="1"/>
        <pt x="287" y="702" on="0"/>
        <pt x="567" y="702" on="0"/>
        <pt x="768" y="532" on="0"/>
        <pt x="768" y="387" on="1"/>
        <pt x="768" y="275" on="0"/>
        <pt x="645" y="116" on="0"/>
        <pt x="572" y="116" on="1"/>
        <pt x="531" y="116" on="0"/>
        <pt x="495" y="170" on="0"/>
        <pt x="491" y="222" on="1"/>
        <pt x="487" y="222" on="1"/>
        <pt x="431" y="116" on="0"/>
        <pt x="364" y="116" on="1"/>
        <pt x="318" y="116" on="0"/>
        <pt x="245" y="217" on="0"/>
        <pt x="245" y="453" on="0"/>
        <pt x="326" y="550" on="0"/>
        <pt x="410" y="550" on="1"/>
        <pt x="469" y="550" on="0"/>
        <pt x="571" y="523" on="1"/>
        <pt x="569" y="384" on="0"/>
        <pt x="569" y="265" on="0"/>
        <pt x="570" y="224" on="0"/>
        <pt x="574" y="200" on="0"/>
        <pt x="579" y="195" on="0"/>
        <pt x="584" y="195" on="1"/>
        <pt x="615" y="195" on="0"/>
        <pt x="687" y="303" on="0"/>
        <pt x="687" y="383" on="1"/>
        <pt x="687" y="492" on="0"/>
        <pt x="550" y="620" on="0"/>
        <pt x="301" y="620" on="0"/>
        <pt x="142" y="471" on="0"/>
        <pt x="142" y="192" on="0"/>
        <pt x="300" y="31" on="0"/>
        <pt x="415" y="31" on="1"/>
        <pt x="443" y="31" on="0"/>
        <pt x="505" y="42" on="1"/>
      </contour>
      <contour>
        <pt x="480" y="456" on="1"/>
        <pt x="456" y="464" on="0"/>
        <pt x="364" y="464" on="0"/>
        <pt x="341" y="417" on="0"/>
        <pt x="341" y="336" on="1"/>
        <pt x="341" y="206" on="0"/>
        <pt x="374" y="206" on="1"/>
        <pt x="409" y="206" on="0"/>
        <pt x="480" y="377" on="0"/>
      </contour>
    </TTGlyph>
    <TTGlyph name="atilde" xMin="46" yMin="-13" xMax="501" yMax="786">
      <contour>
        <pt x="216" y="-13" on="1"/>
        <pt x="139" y="-13" on="0"/>
        <pt x="46" y="84" on="0"/>
        <pt x="46" y="277" on="0"/>
        <pt x="171" y="365" on="0"/>
        <pt x="289" y="365" on="1"/>
        <pt x="385" y="364" on="1"/>
        <pt x="385" y="461" on="0"/>
        <pt x="354" y="502" on="0"/>
        <pt x="264" y="502" on="0"/>
        <pt x="153" y="480" on="0"/>
        <pt x="91" y="457" on="1"/>
        <pt x="60" y="542" on="1"/>
        <pt x="74" y="548" on="0"/>
        <pt x="121" y="567" on="0"/>
        <pt x="249" y="598" on="0"/>
        <pt x="302" y="598" on="1"/>
        <pt x="501" y="598" on="0"/>
        <pt x="501" y="382" on="1"/>
        <pt x="501" y="0" on="1"/>
        <pt x="427" y="0" on="1"/>
        <pt x="411" y="63" on="1"/>
        <pt x="406" y="63" on="1"/>
        <pt x="395" y="54" on="0"/>
        <pt x="358" y="29" on="0"/>
        <pt x="257" y="-13" on="0"/>
      </contour>
      <contour>
        <pt x="385" y="270" on="1"/>
        <pt x="344" y="276" on="0"/>
        <pt x="204" y="276" on="0"/>
        <pt x="187" y="259" on="1"/>
        <pt x="165" y="239" on="0"/>
        <pt x="165" y="126" on="0"/>
        <pt x="194" y="85" on="0"/>
        <pt x="259" y="85" on="0"/>
        <pt x="338" y="108" on="0"/>
        <pt x="385" y="130" on="1"/>
      </contour>
      <contour>
        <pt x="191" y="786" on="1"/>
        <pt x="221" y="786" on="0"/>
        <pt x="382" y="743" on="0"/>
        <pt x="389" y="743" on="1"/>
        <pt x="402" y="743" on="0"/>
        <pt x="418" y="785" on="1"/>
        <pt x="481" y="776" on="1"/>
        <pt x="480" y="661" on="0"/>
        <pt x="399" y="661" on="1"/>
        <pt x="370" y="661" on="0"/>
        <pt x="207" y="706" on="0"/>
        <pt x="200" y="706" on="1"/>
        <pt x="186" y="706" on="0"/>
        <pt x="170" y="663" on="1"/>
        <pt x="107" y="671" on="1"/>
        <pt x="108" y="786" on="0"/>
      </contour>
    </TTGlyph>
    <TTGlyph name="b" xMin="82" yMin="-13" xMax="537" yMax="757">
      <contour>
        <pt x="82" y="757" on="1"/>
        <pt x="198" y="757" on="1"/>
        <pt x="198" y="579" on="1"/>
        <pt x="282" y="598" on="0"/>
        <pt x="339" y="598" on="1"/>
        <pt x="537" y="598" on="0"/>
        <pt x="537" y="301" on="1"/>
        <pt x="537" y="-13" on="0"/>
        <pt x="320" y="-13" on="1"/>
        <pt x="274" y="-13" on="0"/>
        <pt x="132" y="11" on="0"/>
        <pt x="82" y="28" on="1"/>
      </contour>
      <contour>
        <pt x="198" y="97" on="1"/>
        <pt x="256" y="83" on="0"/>
        <pt x="360" y="83" on="0"/>
        <pt x="376" y="98" on="1"/>
        <pt x="417" y="132" on="0"/>
        <pt x="417" y="318" on="1"/>
        <pt x="417" y="414" on="0"/>
        <pt x="405" y="460" on="1"/>
        <pt x="400" y="480" on="0"/>
        <pt x="372" y="497" on="0"/>
        <pt x="350" y="500" on="0"/>
        <pt x="323" y="500" on="1"/>
        <pt x="268" y="500" on="0"/>
        <pt x="198" y="480" on="1"/>
      </contour>
    </TTGlyph>
    <TTGlyph name="backslash" xMin="15" yMin="-98" xMax="465" yMax="699">
      <contour>
        <pt x="352" y="-98" on="1"/>
        <pt x="194" y="285" on="1"/>
        <pt x="15" y="699" on="1"/>
        <pt x="129" y="699" on="1"/>
        <pt x="281" y="325" on="1"/>
        <pt x="465" y="-98" on="1"/>
      </contour>
    </TTGlyph>
    <TTGlyph name="bar" xMin="95" yMin="-87" xMax="189" yMax="762">
      <contour>
        <pt x="95" y="-87" on="1"/>
        <pt x="95" y="762" on="1"/>
        <pt x="189" y="762" on="1"/>
        <pt x="189" y="-87" on="1"/>
      </contour>
    </TTGlyph>
    <TTGlyph name="braceleft" xMin="48" yMin="-123" xMax="416" yMax="786">
      <contour>
        <pt x="171" y="70" on="1"/>
        <pt x="171" y="190" on="1"/>
        <pt x="171" y="249" on="0"/>
        <pt x="126" y="285" on="0"/>
        <pt x="48" y="297" on="1"/>
        <pt x="48" y="384" on="1"/>
        <pt x="124" y="395" on="0"/>
        <pt x="171" y="433" on="0"/>
        <pt x="171" y="491" on="1"/>
        <pt x="171" y="588" on="1"/>
        <pt x="171" y="683" on="0"/>
        <pt x="255" y="786" on="0"/>
        <pt x="351" y="786" on="1"/>
        <pt x="416" y="783" on="1"/>
        <pt x="411" y="698" on="1"/>
        <pt x="358" y="701" on="0"/>
        <pt x="309" y="701" on="0"/>
        <pt x="286" y="658" on="0"/>
        <pt x="286" y="586" on="1"/>
        <pt x="286" y="490" on="1"/>
        <pt x="286" y="413" on="0"/>
        <pt x="251" y="378" on="1"/>
        <pt x="224" y="351" on="0"/>
        <pt x="196" y="343" on="1"/>
        <pt x="196" y="337" on="1"/>
        <pt x="286" y="304" on="0"/>
        <pt x="286" y="187" on="1"/>
        <pt x="286" y="81" on="1"/>
        <pt x="286" y="12" on="0"/>
        <pt x="306" y="-37" on="0"/>
        <pt x="336" y="-37" on="1"/>
        <pt x="411" y="-34" on="1"/>
        <pt x="416" y="-121" on="1"/>
        <pt x="373" y="-123" on="0"/>
        <pt x="351" y="-123" on="1"/>
        <pt x="171" y="-123" on="0"/>
      </contour>
    </TTGlyph>
    <TTGlyph name="braceright" xMin="26" yMin="-123" xMax="394" yMax="786">
      <contour>
        <pt x="31" y="-34" on="1"/>
        <pt x="65" y="-37" on="0"/>
        <pt x="136" y="-37" on="0"/>
        <pt x="156" y="12" on="0"/>
        <pt x="156" y="81" on="1"/>
        <pt x="156" y="187" on="1"/>
        <pt x="156" y="304" on="0"/>
        <pt x="246" y="337" on="1"/>
        <pt x="246" y="343" on="1"/>
        <pt x="218" y="351" on="0"/>
        <pt x="196" y="372" on="1"/>
        <pt x="156" y="413" on="0"/>
        <pt x="156" y="490" on="1"/>
        <pt x="156" y="586" on="1"/>
        <pt x="156" y="658" on="0"/>
        <pt x="133" y="701" on="0"/>
        <pt x="102" y="701" on="1"/>
        <pt x="31" y="698" on="1"/>
        <pt x="26" y="783" on="1"/>
        <pt x="69" y="786" on="0"/>
        <pt x="91" y="786" on="1"/>
        <pt x="187" y="786" on="0"/>
        <pt x="271" y="683" on="0"/>
        <pt x="271" y="588" on="1"/>
        <pt x="271" y="491" on="1"/>
        <pt x="271" y="433" on="0"/>
        <pt x="318" y="395" on="0"/>
        <pt x="394" y="384" on="1"/>
        <pt x="394" y="297" on="1"/>
        <pt x="316" y="285" on="0"/>
        <pt x="271" y="249" on="0"/>
        <pt x="271" y="190" on="1"/>
        <pt x="271" y="70" on="1"/>
        <pt x="271" y="-123" on="0"/>
        <pt x="91" y="-123" on="1"/>
        <pt x="26" y="-121" on="1"/>
      </contour>
    </TTGlyph>
    <TTGlyph name="bracketleft" xMin="98" yMin="-124" xMax="296" yMax="787">
      <contour>
        <pt x="98" y="-124" on="1"/>
        <pt x="98" y="787" on="1"/>
        <pt x="296" y="787" on="1"/>
        <pt x="296" y="697" on="1"/>
        <pt x="205" y="700" on="1"/>
        <pt x="205" y="-37" on="1"/>
        <pt x="296" y="-35" on="1"/>
        <pt x="296" y="-124" on="1"/>
      </contour>
    </TTGlyph>
    <TTGlyph name="bracketright" xMin="33" yMin="-124" xMax="231" yMax="787">
      <contour>
        <pt x="33" y="-124" on="1"/>
        <pt x="33" y="-35" on="1"/>
        <pt x="126" y="-37" on="1"/>
        <pt x="126" y="700" on="1"/>
        <pt x="33" y="697" on="1"/>
        <pt x="33" y="787" on="1"/>
        <pt x="231" y="787" on="1"/>
        <pt x="231" y="-124" on="1"/>
      </contour>
    </TTGlyph>
    <TTGlyph name="brokenbar" xMin="95" yMin="-87" xMax="189" yMax="762">
      <contour>
        <pt x="95" y="403" on="1"/>
        <pt x="95" y="762" on="1"/>
        <pt x="189" y="762" on="1"/>
        <pt x="189" y="403" on="1"/>
      </contour>
      <contour>
        <pt x="95" y="-87" on="1"/>
        <pt x="95" y="272" on="1"/>
        <pt x="189" y="272" on="1"/>
        <pt x="189" y="-87" on="1"/>
      </contour>
    </TTGlyph>
    <TTGlyph name="bullet" xMin="62" yMin="292" xMax="330" yMax="563">
      <contour>
        <pt x="330" y="359" on="0"/>
        <pt x="253" y="292" on="0"/>
        <pt x="140" y="292" on="0"/>
        <pt x="62" y="359" on="0"/>
        <pt x="62" y="499" on="0"/>
        <pt x="139" y="563" on="0"/>
        <pt x="253" y="563" on="0"/>
        <pt x="330" y="498" on="0"/>
      </contour>
    </TTGlyph>
    <TTGlyph name="c" xMin="62" yMin="-13" xMax="501" yMax="598">
      <contour>
        <pt x="467" y="129" on="1"/>
        <pt x="478" y="95" on="0"/>
        <pt x="501" y="44" on="1"/>
        <pt x="492" y="38" on="0"/>
        <pt x="461" y="19" on="0"/>
        <pt x="361" y="-13" on="0"/>
        <pt x="309" y="-13" on="1"/>
        <pt x="194" y="-13" on="0"/>
        <pt x="62" y="137" on="0"/>
        <pt x="62" y="294" on="1"/>
        <pt x="62" y="468" on="0"/>
        <pt x="142" y="537" on="1"/>
        <pt x="214" y="598" on="0"/>
        <pt x="332" y="598" on="1"/>
        <pt x="410" y="598" on="0"/>
        <pt x="486" y="579" on="1"/>
        <pt x="473" y="488" on="1"/>
        <pt x="364" y="502" on="0"/>
        <pt x="248" y="502" on="0"/>
        <pt x="224" y="478" on="1"/>
        <pt x="182" y="433" on="0"/>
        <pt x="182" y="139" on="0"/>
        <pt x="239" y="97" on="1"/>
        <pt x="260" y="82" on="0"/>
        <pt x="327" y="82" on="0"/>
        <pt x="413" y="106" on="0"/>
      </contour>
    </TTGlyph>
    <TTGlyph name="caron" xMin="-39" yMin="661" xMax="306" yMax="814">
      <contour>
        <pt x="-39" y="768" on="1"/>
        <pt x="-8" y="814" on="1"/>
        <pt x="130" y="746" on="1"/>
        <pt x="137" y="746" on="1"/>
        <pt x="275" y="814" on="1"/>
        <pt x="306" y="768" on="1"/>
        <pt x="164" y="661" on="1"/>
        <pt x="103" y="661" on="1"/>
      </contour>
    </TTGlyph>
    <TTGlyph name="caron.cap" xMin="5" yMin="750" xMax="350" yMax="895">
      <contour>
        <pt x="5" y="847" on="1"/>
        <pt x="36" y="895" on="1"/>
        <pt x="174" y="835" on="1"/>
        <pt x="181" y="835" on="1"/>
        <pt x="319" y="895" on="1"/>
        <pt x="350" y="847" on="1"/>
        <pt x="208" y="750" on="1"/>
        <pt x="147" y="750" on="1"/>
      </contour>
    </TTGlyph>
    <TTGlyph name="ccedilla" xMin="62" yMin="-179" xMax="501" yMax="598">
      <contour>
        <pt x="201" y="-94" on="1"/>
        <pt x="246" y="-99" on="0"/>
        <pt x="297" y="-99" on="0"/>
        <pt x="318" y="-87" on="0"/>
        <pt x="318" y="-41" on="0"/>
        <pt x="311" y="-13" on="1"/>
        <pt x="196" y="-13" on="0"/>
        <pt x="62" y="135" on="0"/>
        <pt x="62" y="294" on="1"/>
        <pt x="62" y="468" on="0"/>
        <pt x="142" y="537" on="1"/>
        <pt x="214" y="598" on="0"/>
        <pt x="332" y="598" on="1"/>
        <pt x="410" y="598" on="0"/>
        <pt x="486" y="579" on="1"/>
        <pt x="473" y="488" on="1"/>
        <pt x="364" y="502" on="0"/>
        <pt x="248" y="502" on="0"/>
        <pt x="224" y="478" on="1"/>
        <pt x="182" y="433" on="0"/>
        <pt x="182" y="139" on="0"/>
        <pt x="239" y="97" on="1"/>
        <pt x="260" y="82" on="0"/>
        <pt x="327" y="82" on="0"/>
        <pt x="413" y="106" on="0"/>
        <pt x="467" y="129" on="1"/>
        <pt x="501" y="44" on="1"/>
        <pt x="456" y="11" on="0"/>
        <pt x="384" y="-5" on="1"/>
        <pt x="395" y="-47" on="0"/>
        <pt x="395" y="-74" on="1"/>
        <pt x="395" y="-122" on="0"/>
        <pt x="333" y="-179" on="0"/>
        <pt x="281" y="-179" on="1"/>
        <pt x="251" y="-179" on="0"/>
        <pt x="201" y="-170" on="1"/>
      </contour>
    </TTGlyph>
    <TTGlyph name="cedilla" xMin="191" yMin="-179" xMax="385" yMax="23">
      <contour>
        <pt x="191" y="-94" on="1"/>
        <pt x="236" y="-99" on="0"/>
        <pt x="287" y="-99" on="0"/>
        <pt x="308" y="-87" on="0"/>
        <pt x="308" y="-40" on="0"/>
        <pt x="295" y="12" on="1"/>
        <pt x="365" y="23" on="1"/>
        <pt x="385" y="-32" on="0"/>
        <pt x="385" y="-122" on="0"/>
        <pt x="323" y="-179" on="0"/>
        <pt x="271" y="-179" on="1"/>
        <pt x="240" y="-179" on="0"/>
        <pt x="191" y="-170" on="1"/>
      </contour>
    </TTGlyph>
    <TTGlyph name="cent" xMin="62" yMin="-117" xMax="501" yMax="694">
      <contour>
        <pt x="263" y="-117" on="1"/>
        <pt x="263" y="-9" on="1"/>
        <pt x="62" y="19" on="0"/>
        <pt x="62" y="558" on="0"/>
        <pt x="263" y="592" on="1"/>
        <pt x="263" y="694" on="1"/>
        <pt x="359" y="694" on="1"/>
        <pt x="359" y="597" on="1"/>
        <pt x="419" y="595" on="0"/>
        <pt x="486" y="579" on="1"/>
        <pt x="473" y="488" on="1"/>
        <pt x="364" y="502" on="0"/>
        <pt x="315" y="502" on="1"/>
        <pt x="235" y="502" on="0"/>
        <pt x="182" y="415" on="0"/>
        <pt x="182" y="139" on="0"/>
        <pt x="239" y="97" on="1"/>
        <pt x="260" y="82" on="0"/>
        <pt x="327" y="82" on="0"/>
        <pt x="413" y="106" on="0"/>
        <pt x="467" y="129" on="1"/>
        <pt x="501" y="44" on="1"/>
        <pt x="444" y="2" on="0"/>
        <pt x="359" y="-9" on="1"/>
        <pt x="359" y="-117" on="1"/>
      </contour>
    </TTGlyph>
    <TTGlyph name="circumflex" xMin="97" yMin="647" xMax="451" yMax="804">
      <contour>
        <pt x="130" y="647" on="1"/>
        <pt x="97" y="697" on="1"/>
        <pt x="243" y="804" on="1"/>
        <pt x="304" y="804" on="1"/>
        <pt x="451" y="697" on="1"/>
        <pt x="416" y="647" on="1"/>
        <pt x="277" y="716" on="1"/>
        <pt x="270" y="716" on="1"/>
      </contour>
    </TTGlyph>
    <TTGlyph name="circumflex.cap" xMin="-8" yMin="738" xMax="336" yMax="884">
      <contour>
        <pt x="22" y="738" on="1"/>
        <pt x="-8" y="786" on="1"/>
        <pt x="133" y="884" on="1"/>
        <pt x="194" y="884" on="1"/>
        <pt x="336" y="786" on="1"/>
        <pt x="306" y="738" on="1"/>
        <pt x="167" y="798" on="1"/>
        <pt x="160" y="798" on="1"/>
        <pt x="152" y="794" on="0"/>
      </contour>
    </TTGlyph>
    <TTGlyph name="colon" xMin="100" yMin="0" xMax="238" yMax="553">
      <contour>
        <pt x="100" y="441" on="1"/>
        <pt x="100" y="553" on="1"/>
        <pt x="238" y="553" on="1"/>
        <pt x="238" y="441" on="1"/>
      </contour>
      <contour>
        <pt x="100" y="0" on="1"/>
        <pt x="100" y="112" on="1"/>
        <pt x="238" y="112" on="1"/>
        <pt x="238" y="0" on="1"/>
      </contour>
    </TTGlyph>
    <TTGlyph name="comma" xMin="56" yMin="-170" xMax="203" yMax="106">
      <contour>
        <pt x="88" y="-20" on="1"/>
        <pt x="88" y="106" on="1"/>
        <pt x="203" y="106" on="1"/>
        <pt x="203" y="52" on="1"/>
        <pt x="203" y="-104" on="0"/>
        <pt x="119" y="-170" on="1"/>
        <pt x="56" y="-134" on="1"/>
        <pt x="88" y="-93" on="0"/>
      </contour>
    </TTGlyph>
    <TTGlyph name="commaaccent" xMin="49" yMin="-122" xMax="192" yMax="84">
      <contour>
        <pt x="87" y="13" on="1"/>
        <pt x="87" y="84" on="1"/>
        <pt x="192" y="84" on="1"/>
        <pt x="192" y="74" on="1"/>
        <pt x="192" y="-68" on="0"/>
        <pt x="91" y="-122" on="1"/>
        <pt x="49" y="-85" on="1"/>
        <pt x="70" y="-67" on="0"/>
        <pt x="87" y="-24" on="0"/>
      </contour>
    </TTGlyph>
    <TTGlyph name="copyright" xMin="64" yMin="-37" xMax="774" yMax="679">
      <contour>
        <pt x="774" y="165" on="0"/>
        <pt x="574" y="-37" on="0"/>
        <pt x="263" y="-37" on="0"/>
        <pt x="64" y="165" on="0"/>
        <pt x="64" y="475" on="0"/>
        <pt x="269" y="679" on="0"/>
        <pt x="574" y="679" on="0"/>
        <pt x="774" y="477" on="0"/>
      </contour>
      <contour>
        <pt x="145" y="191" on="0"/>
        <pt x="290" y="42" on="0"/>
        <pt x="547" y="42" on="0"/>
        <pt x="693" y="192" on="0"/>
        <pt x="693" y="450" on="0"/>
        <pt x="547" y="600" on="0"/>
        <pt x="295" y="600" on="0"/>
        <pt x="145" y="449" on="0"/>
      </contour>
      <contour>
        <pt x="551" y="141" on="1"/>
        <pt x="499" y="106" on="0"/>
        <pt x="338" y="106" on="0"/>
        <pt x="241" y="208" on="0"/>
        <pt x="241" y="317" on="1"/>
        <pt x="241" y="450" on="0"/>
        <pt x="298" y="497" on="1"/>
        <pt x="347" y="538" on="0"/>
        <pt x="428" y="538" on="1"/>
        <pt x="450" y="538" on="0"/>
        <pt x="521" y="527" on="0"/>
        <pt x="535" y="521" on="1"/>
        <pt x="525" y="442" on="1"/>
        <pt x="466" y="451" on="0"/>
        <pt x="393" y="451" on="0"/>
        <pt x="378" y="444" on="1"/>
        <pt x="346" y="428" on="0"/>
        <pt x="346" y="317" on="1"/>
        <pt x="346" y="241" on="0"/>
        <pt x="379" y="194" on="0"/>
        <pt x="406" y="194" on="1"/>
        <pt x="462" y="194" on="0"/>
        <pt x="529" y="219" on="1"/>
      </contour>
    </TTGlyph>
    <TTGlyph name="currency" xMin="67" yMin="88" xMax="594" yMax="613">
      <contour>
        <pt x="126" y="214" on="1"/>
        <pt x="88" y="273" on="0"/>
        <pt x="88" y="425" on="0"/>
        <pt x="127" y="487" on="1"/>
        <pt x="69" y="546" on="1"/>
        <pt x="135" y="613" on="1"/>
        <pt x="195" y="553" on="1"/>
        <pt x="260" y="593" on="0"/>
        <pt x="403" y="593" on="0"/>
        <pt x="465" y="554" on="1"/>
        <pt x="526" y="613" on="1"/>
        <pt x="592" y="547" on="1"/>
        <pt x="533" y="489" on="1"/>
        <pt x="575" y="428" on="0"/>
        <pt x="575" y="273" on="0"/>
        <pt x="535" y="212" on="1"/>
        <pt x="594" y="154" on="1"/>
        <pt x="527" y="88" on="1"/>
        <pt x="468" y="146" on="1"/>
        <pt x="403" y="106" on="0"/>
        <pt x="259" y="106" on="0"/>
        <pt x="192" y="148" on="1"/>
        <pt x="133" y="88" on="1"/>
        <pt x="67" y="155" on="1"/>
      </contour>
      <contour>
        <pt x="187" y="273" on="0"/>
        <pt x="265" y="200" on="0"/>
        <pt x="407" y="200" on="0"/>
        <pt x="476" y="270" on="0"/>
        <pt x="476" y="426" on="0"/>
        <pt x="399" y="499" on="0"/>
        <pt x="265" y="499" on="0"/>
        <pt x="187" y="426" on="0"/>
      </contour>
    </TTGlyph>
    <TTGlyph name="d" xMin="62" yMin="-13" xMax="522" yMax="757">
      <contour>
        <pt x="255" y="-13" on="1"/>
        <pt x="168" y="-13" on="0"/>
        <pt x="62" y="136" on="0"/>
        <pt x="62" y="284" on="1"/>
        <pt x="62" y="490" on="0"/>
        <pt x="160" y="562" on="1"/>
        <pt x="211" y="598" on="0"/>
        <pt x="283" y="598" on="1"/>
        <pt x="332" y="598" on="0"/>
        <pt x="406" y="579" on="1"/>
        <pt x="406" y="757" on="1"/>
        <pt x="522" y="757" on="1"/>
        <pt x="522" y="0" on="1"/>
        <pt x="446" y="0" on="1"/>
        <pt x="433" y="59" on="1"/>
        <pt x="427" y="59" on="1"/>
        <pt x="398" y="37" on="0"/>
        <pt x="360" y="13" on="0"/>
        <pt x="289" y="-13" on="0"/>
      </contour>
      <contour>
        <pt x="406" y="476" on="1"/>
        <pt x="345" y="501" on="0"/>
        <pt x="232" y="501" on="0"/>
        <pt x="215" y="480" on="1"/>
        <pt x="182" y="438" on="0"/>
        <pt x="182" y="131" on="0"/>
        <pt x="220" y="99" on="1"/>
        <pt x="233" y="87" on="0"/>
        <pt x="264" y="87" on="1"/>
        <pt x="322" y="87" on="0"/>
        <pt x="385" y="120" on="1"/>
        <pt x="406" y="131" on="1"/>
      </contour>
    </TTGlyph>
    <TTGlyph name="degree" xMin="18" yMin="399" xMax="336" yMax="717">
      <contour>
        <pt x="243" y="399" on="0"/>
        <pt x="111" y="399" on="0"/>
        <pt x="18" y="478" on="0"/>
        <pt x="18" y="640" on="0"/>
        <pt x="110" y="717" on="0"/>
        <pt x="244" y="717" on="0"/>
        <pt x="336" y="640" on="0"/>
        <pt x="336" y="478" on="0"/>
      </contour>
      <contour>
        <pt x="110" y="488" on="0"/>
        <pt x="244" y="488" on="0"/>
        <pt x="244" y="628" on="0"/>
        <pt x="110" y="628" on="0"/>
      </contour>
    </TTGlyph>
    <TTGlyph name="dieresis" xMin="127" yMin="677" xMax="461" yMax="770">
      <contour>
        <pt x="127" y="677" on="1"/>
        <pt x="127" y="770" on="1"/>
        <pt x="251" y="770" on="1"/>
        <pt x="251" y="677" on="1"/>
      </contour>
      <contour>
        <pt x="338" y="677" on="1"/>
        <pt x="338" y="770" on="1"/>
        <pt x="461" y="770" on="1"/>
        <pt x="461" y="677" on="1"/>
      </contour>
    </TTGlyph>
    <TTGlyph name="dieresis.cap" xMin="62" yMin="764" xMax="395" yMax="857">
      <contour>
        <pt x="62" y="764" on="1"/>
        <pt x="62" y="857" on="1"/>
        <pt x="182" y="857" on="1"/>
        <pt x="182" y="764" on="1"/>
      </contour>
      <contour>
        <pt x="275" y="764" on="1"/>
        <pt x="275" y="857" on="1"/>
        <pt x="395" y="857" on="1"/>
        <pt x="395" y="764" on="1"/>
      </contour>
    </TTGlyph>
    <TTGlyph name="divide" xMin="44" yMin="28" xMax="592" yMax="559">
      <contour>
        <pt x="44" y="243" on="1"/>
        <pt x="44" y="342" on="1"/>
        <pt x="592" y="342" on="1"/>
        <pt x="592" y="243" on="1"/>
      </contour>
      <contour>
        <pt x="248" y="28" on="1"/>
        <pt x="248" y="137" on="1"/>
        <pt x="387" y="137" on="1"/>
        <pt x="387" y="28" on="1"/>
      </contour>
      <contour>
        <pt x="248" y="449" on="1"/>
        <pt x="248" y="559" on="1"/>
        <pt x="387" y="559" on="1"/>
        <pt x="387" y="449" on="1"/>
      </contour>
    </TTGlyph>
    <TTGlyph name="dollar" xMin="28" yMin="-117" xMax="482" yMax="802">
      <contour>
        <pt x="274" y="92" on="1"/>
        <pt x="362" y="92" on="0"/>
        <pt x="362" y="188" on="1"/>
        <pt x="362" y="229" on="0"/>
        <pt x="297" y="283" on="0"/>
        <pt x="163" y="345" on="0"/>
        <pt x="127" y="365" on="0"/>
        <pt x="99" y="388" on="1"/>
        <pt x="47" y="431" on="0"/>
        <pt x="47" y="590" on="0"/>
        <pt x="133" y="692" on="0"/>
        <pt x="214" y="707" on="1"/>
        <pt x="214" y="802" on="1"/>
        <pt x="311" y="802" on="1"/>
        <pt x="311" y="710" on="1"/>
        <pt x="381" y="703" on="0"/>
        <pt x="455" y="683" on="1"/>
        <pt x="436" y="585" on="1"/>
        <pt x="327" y="606" on="0"/>
        <pt x="209" y="606" on="0"/>
        <pt x="168" y="572" on="0"/>
        <pt x="168" y="488" on="0"/>
        <pt x="192" y="466" on="1"/>
        <pt x="224" y="439" on="0"/>
        <pt x="323" y="395" on="1"/>
        <pt x="351" y="383" on="0"/>
        <pt x="420" y="342" on="0"/>
        <pt x="443" y="316" on="0"/>
        <pt x="456" y="297" on="1"/>
        <pt x="482" y="261" on="0"/>
        <pt x="482" y="203" on="1"/>
        <pt x="482" y="120" on="0"/>
        <pt x="388" y="7" on="0"/>
        <pt x="309" y="-8" on="1"/>
        <pt x="309" y="-117" on="1"/>
        <pt x="213" y="-117" on="1"/>
        <pt x="213" y="-11" on="1"/>
        <pt x="168" y="-6" on="0"/>
        <pt x="76" y="23" on="0"/>
        <pt x="28" y="48" on="1"/>
        <pt x="37" y="75" on="0"/>
        <pt x="49" y="108" on="0"/>
        <pt x="57" y="131" on="0"/>
        <pt x="62" y="144" on="1"/>
        <pt x="177" y="92" on="0"/>
      </contour>
    </TTGlyph>
    <TTGlyph name="dotaccentcmb" xMin="99" yMin="676" xMax="219" yMax="770">
      <contour>
        <pt x="99" y="676" on="1"/>
        <pt x="99" y="770" on="1"/>
        <pt x="219" y="770" on="1"/>
        <pt x="219" y="676" on="1"/>
      </contour>
    </TTGlyph>
    <TTGlyph name="dotaccentcmb.cap" xMin="129" yMin="755" xMax="249" yMax="850">
      <contour>
        <pt x="129" y="755" on="1"/>
        <pt x="129" y="850" on="1"/>
        <pt x="249" y="850" on="1"/>
        <pt x="249" y="755" on="1"/>
      </contour>
    </TTGlyph>
    <TTGlyph name="dotlessi" xMin="97" yMin="0" xMax="213" yMax="585">
      <contour>
        <pt x="97" y="0" on="1"/>
        <pt x="97" y="585" on="1"/>
        <pt x="213" y="585" on="1"/>
        <pt x="213" y="0" on="1"/>
      </contour>
    </TTGlyph>
    <TTGlyph name="dotlessj" xMin="-25" yMin="-178" xMax="230" yMax="585">
      <contour>
        <pt x="-12" y="-74" on="1"/>
        <pt x="27" y="-80" on="0"/>
        <pt x="95" y="-80" on="0"/>
        <pt x="115" y="-33" on="0"/>
        <pt x="115" y="60" on="1"/>
        <pt x="115" y="585" on="1"/>
        <pt x="230" y="585" on="1"/>
        <pt x="230" y="61" on="1"/>
        <pt x="230" y="-66" on="0"/>
        <pt x="134" y="-178" on="0"/>
        <pt x="57" y="-178" on="1"/>
        <pt x="-25" y="-171" on="1"/>
      </contour>
    </TTGlyph>
    <TTGlyph name="e" xMin="62" yMin="-13" xMax="532" yMax="598">
      <contour>
        <pt x="312" y="-13" on="1"/>
        <pt x="62" y="-13" on="0"/>
        <pt x="62" y="598" on="0"/>
        <pt x="310" y="598" on="1"/>
        <pt x="421" y="598" on="0"/>
        <pt x="532" y="470" on="0"/>
        <pt x="532" y="322" on="1"/>
        <pt x="532" y="250" on="1"/>
        <pt x="183" y="250" on="1"/>
        <pt x="183" y="139" on="0"/>
        <pt x="221" y="104" on="1"/>
        <pt x="246" y="82" on="0"/>
        <pt x="288" y="82" on="1"/>
        <pt x="369" y="82" on="0"/>
        <pt x="459" y="112" on="1"/>
        <pt x="490" y="123" on="1"/>
        <pt x="518" y="35" on="1"/>
        <pt x="420" y="-13" on="0"/>
      </contour>
      <contour>
        <pt x="414" y="372" on="1"/>
        <pt x="414" y="378" on="0"/>
        <pt x="412" y="419" on="0"/>
        <pt x="410" y="428" on="0"/>
        <pt x="405" y="459" on="0"/>
        <pt x="398" y="466" on="0"/>
        <pt x="387" y="486" on="0"/>
        <pt x="373" y="491" on="0"/>
        <pt x="364" y="496" on="1"/>
        <pt x="350" y="503" on="0"/>
        <pt x="271" y="503" on="0"/>
        <pt x="220" y="485" on="0"/>
        <pt x="193" y="439" on="0"/>
        <pt x="185" y="385" on="0"/>
        <pt x="184" y="337" on="1"/>
        <pt x="414" y="342" on="1"/>
      </contour>
    </TTGlyph>
    <TTGlyph name="eacute" xMin="62" yMin="-13" xMax="532" yMax="813">
      <contour>
        <pt x="312" y="-13" on="1"/>
        <pt x="62" y="-13" on="0"/>
        <pt x="62" y="598" on="0"/>
        <pt x="310" y="598" on="1"/>
        <pt x="421" y="598" on="0"/>
        <pt x="532" y="470" on="0"/>
        <pt x="532" y="322" on="1"/>
        <pt x="532" y="250" on="1"/>
        <pt x="183" y="250" on="1"/>
        <pt x="183" y="139" on="0"/>
        <pt x="221" y="104" on="1"/>
        <pt x="246" y="82" on="0"/>
        <pt x="288" y="82" on="1"/>
        <pt x="369" y="82" on="0"/>
        <pt x="459" y="112" on="1"/>
        <pt x="490" y="123" on="1"/>
        <pt x="518" y="35" on="1"/>
        <pt x="420" y="-13" on="0"/>
      </contour>
      <contour>
        <pt x="414" y="372" on="1"/>
        <pt x="414" y="378" on="0"/>
        <pt x="412" y="419" on="0"/>
        <pt x="410" y="428" on="0"/>
        <pt x="405" y="459" on="0"/>
        <pt x="398" y="466" on="0"/>
        <pt x="387" y="486" on="0"/>
        <pt x="373" y="491" on="0"/>
        <pt x="364" y="496" on="1"/>
        <pt x="350" y="503" on="0"/>
        <pt x="271" y="503" on="0"/>
        <pt x="220" y="485" on="0"/>
        <pt x="193" y="439" on="0"/>
        <pt x="185" y="385" on="0"/>
        <pt x="184" y="337" on="1"/>
        <pt x="414" y="342" on="1"/>
      </contour>
      <contour>
        <pt x="170" y="652" on="1"/>
        <pt x="148" y="720" on="1"/>
        <pt x="410" y="813" on="1"/>
        <pt x="442" y="721" on="1"/>
      </contour>
    </TTGlyph>
    <TTGlyph name="ecircumflex" xMin="62" yMin="-13" xMax="532" yMax="804">
      <contour>
        <pt x="312" y="-13" on="1"/>
        <pt x="62" y="-13" on="0"/>
        <pt x="62" y="598" on="0"/>
        <pt x="310" y="598" on="1"/>
        <pt x="421" y="598" on="0"/>
        <pt x="532" y="470" on="0"/>
        <pt x="532" y="322" on="1"/>
        <pt x="532" y="250" on="1"/>
        <pt x="183" y="250" on="1"/>
        <pt x="183" y="139" on="0"/>
        <pt x="221" y="104" on="1"/>
        <pt x="246" y="82" on="0"/>
        <pt x="288" y="82" on="1"/>
        <pt x="369" y="82" on="0"/>
        <pt x="459" y="112" on="1"/>
        <pt x="490" y="123" on="1"/>
        <pt x="518" y="35" on="1"/>
        <pt x="420" y="-13" on="0"/>
      </contour>
      <contour>
        <pt x="414" y="372" on="1"/>
        <pt x="414" y="378" on="0"/>
        <pt x="412" y="419" on="0"/>
        <pt x="410" y="428" on="0"/>
        <pt x="405" y="459" on="0"/>
        <pt x="398" y="466" on="0"/>
        <pt x="387" y="486" on="0"/>
        <pt x="373" y="491" on="0"/>
        <pt x="364" y="496" on="1"/>
        <pt x="350" y="503" on="0"/>
        <pt x="271" y="503" on="0"/>
        <pt x="220" y="485" on="0"/>
        <pt x="193" y="439" on="0"/>
        <pt x="185" y="385" on="0"/>
        <pt x="184" y="337" on="1"/>
        <pt x="414" y="342" on="1"/>
      </contour>
      <contour>
        <pt x="150" y="647" on="1"/>
        <pt x="117" y="697" on="1"/>
        <pt x="263" y="804" on="1"/>
        <pt x="324" y="804" on="1"/>
        <pt x="471" y="697" on="1"/>
        <pt x="436" y="647" on="1"/>
        <pt x="297" y="716" on="1"/>
        <pt x="290" y="716" on="1"/>
      </contour>
    </TTGlyph>
    <TTGlyph name="edieresis" xMin="62" yMin="-13" xMax="532" yMax="770">
      <contour>
        <pt x="312" y="-13" on="1"/>
        <pt x="62" y="-13" on="0"/>
        <pt x="62" y="598" on="0"/>
        <pt x="310" y="598" on="1"/>
        <pt x="421" y="598" on="0"/>
        <pt x="532" y="470" on="0"/>
        <pt x="532" y="322" on="1"/>
        <pt x="532" y="250" on="1"/>
        <pt x="183" y="250" on="1"/>
        <pt x="183" y="139" on="0"/>
        <pt x="221" y="104" on="1"/>
        <pt x="246" y="82" on="0"/>
        <pt x="288" y="82" on="1"/>
        <pt x="369" y="82" on="0"/>
        <pt x="459" y="112" on="1"/>
        <pt x="490" y="123" on="1"/>
        <pt x="518" y="35" on="1"/>
        <pt x="420" y="-13" on="0"/>
      </contour>
      <contour>
        <pt x="414" y="372" on="1"/>
        <pt x="414" y="378" on="0"/>
        <pt x="412" y="419" on="0"/>
        <pt x="410" y="428" on="0"/>
        <pt x="405" y="459" on="0"/>
        <pt x="398" y="466" on="0"/>
        <pt x="387" y="486" on="0"/>
        <pt x="373" y="491" on="0"/>
        <pt x="364" y="496" on="1"/>
        <pt x="350" y="503" on="0"/>
        <pt x="271" y="503" on="0"/>
        <pt x="220" y="485" on="0"/>
        <pt x="193" y="439" on="0"/>
        <pt x="185" y="385" on="0"/>
        <pt x="184" y="337" on="1"/>
        <pt x="414" y="342" on="1"/>
      </contour>
      <contour>
        <pt x="127" y="677" on="1"/>
        <pt x="127" y="770" on="1"/>
        <pt x="251" y="770" on="1"/>
        <pt x="251" y="677" on="1"/>
      </contour>
      <contour>
        <pt x="338" y="677" on="1"/>
        <pt x="338" y="770" on="1"/>
        <pt x="461" y="770" on="1"/>
        <pt x="461" y="677" on="1"/>
      </contour>
    </TTGlyph>
    <TTGlyph name="egrave" xMin="62" yMin="-13" xMax="532" yMax="813">
      <contour>
        <pt x="312" y="-13" on="1"/>
        <pt x="62" y="-13" on="0"/>
        <pt x="62" y="598" on="0"/>
        <pt x="310" y="598" on="1"/>
        <pt x="421" y="598" on="0"/>
        <pt x="532" y="470" on="0"/>
        <pt x="532" y="322" on="1"/>
        <pt x="532" y="250" on="1"/>
        <pt x="183" y="250" on="1"/>
        <pt x="183" y="139" on="0"/>
        <pt x="221" y="104" on="1"/>
        <pt x="246" y="82" on="0"/>
        <pt x="288" y="82" on="1"/>
        <pt x="369" y="82" on="0"/>
        <pt x="459" y="112" on="1"/>
        <pt x="490" y="123" on="1"/>
        <pt x="518" y="35" on="1"/>
        <pt x="420" y="-13" on="0"/>
      </contour>
      <contour>
        <pt x="414" y="372" on="1"/>
        <pt x="414" y="378" on="0"/>
        <pt x="412" y="419" on="0"/>
        <pt x="410" y="428" on="0"/>
        <pt x="405" y="459" on="0"/>
        <pt x="398" y="466" on="0"/>
        <pt x="387" y="486" on="0"/>
        <pt x="373" y="491" on="0"/>
        <pt x="364" y="496" on="1"/>
        <pt x="350" y="503" on="0"/>
        <pt x="271" y="503" on="0"/>
        <pt x="220" y="485" on="0"/>
        <pt x="193" y="439" on="0"/>
        <pt x="185" y="385" on="0"/>
        <pt x="184" y="337" on="1"/>
        <pt x="414" y="342" on="1"/>
      </contour>
      <contour>
        <pt x="148" y="721" on="1"/>
        <pt x="180" y="813" on="1"/>
        <pt x="442" y="720" on="1"/>
        <pt x="420" y="652" on="1"/>
      </contour>
    </TTGlyph>
    <TTGlyph name="eight" xMin="39" yMin="-13" xMax="523" yMax="712">
      <contour>
        <pt x="64" y="531" on="1"/>
        <pt x="64" y="612" on="0"/>
        <pt x="176" y="712" on="0"/>
        <pt x="386" y="712" on="0"/>
        <pt x="498" y="610" on="0"/>
        <pt x="498" y="530" on="1"/>
        <pt x="498" y="422" on="0"/>
        <pt x="400" y="361" on="1"/>
        <pt x="523" y="295" on="0"/>
        <pt x="523" y="188" on="1"/>
        <pt x="523" y="105" on="0"/>
        <pt x="389" y="-13" on="0"/>
        <pt x="166" y="-13" on="0"/>
        <pt x="39" y="112" on="0"/>
        <pt x="39" y="196" on="1"/>
        <pt x="39" y="253" on="0"/>
        <pt x="104" y="346" on="0"/>
        <pt x="149" y="369" on="1"/>
        <pt x="64" y="431" on="0"/>
      </contour>
      <contour>
        <pt x="161" y="192" on="1"/>
        <pt x="161" y="86" on="0"/>
        <pt x="402" y="86" on="0"/>
        <pt x="402" y="181" on="1"/>
        <pt x="402" y="231" on="0"/>
        <pt x="337" y="289" on="0"/>
        <pt x="253" y="317" on="1"/>
        <pt x="206" y="299" on="0"/>
        <pt x="161" y="244" on="0"/>
      </contour>
      <contour>
        <pt x="382" y="525" on="1"/>
        <pt x="382" y="618" on="0"/>
        <pt x="179" y="618" on="0"/>
        <pt x="179" y="535" on="1"/>
        <pt x="179" y="491" on="0"/>
        <pt x="233" y="432" on="0"/>
        <pt x="297" y="406" on="1"/>
        <pt x="382" y="439" on="0"/>
      </contour>
    </TTGlyph>
    <TTGlyph name="emdash" xMin="62" yMin="278" xMax="762" yMax="376">
      <contour>
        <pt x="62" y="278" on="1"/>
        <pt x="62" y="376" on="1"/>
        <pt x="762" y="376" on="1"/>
        <pt x="762" y="278" on="1"/>
      </contour>
    </TTGlyph>
    <TTGlyph name="endash" xMin="42" yMin="278" xMax="547" yMax="376">
      <contour>
        <pt x="547" y="376" on="1"/>
        <pt x="547" y="278" on="1"/>
        <pt x="42" y="278" on="1"/>
        <pt x="43" y="376" on="1"/>
      </contour>
    </TTGlyph>
    <TTGlyph name="equal" xMin="44" yMin="143" xMax="592" yMax="440">
      <contour>
        <pt x="44" y="340" on="1"/>
        <pt x="44" y="440" on="1"/>
        <pt x="592" y="440" on="1"/>
        <pt x="592" y="340" on="1"/>
      </contour>
      <contour>
        <pt x="44" y="143" on="1"/>
        <pt x="44" y="242" on="1"/>
        <pt x="592" y="242" on="1"/>
        <pt x="592" y="143" on="1"/>
      </contour>
    </TTGlyph>
    <TTGlyph name="eth" xMin="65" yMin="-13" xMax="537" yMax="770">
      <contour>
        <pt x="294" y="660" on="1"/>
        <pt x="232" y="706" on="1"/>
        <pt x="292" y="770" on="1"/>
        <pt x="344" y="742" on="0"/>
        <pt x="388" y="707" on="1"/>
        <pt x="491" y="762" on="1"/>
        <pt x="498" y="681" on="1"/>
        <pt x="441" y="651" on="1"/>
        <pt x="532" y="545" on="0"/>
        <pt x="537" y="327" on="1"/>
        <pt x="537" y="289" on="0"/>
        <pt x="536" y="271" on="1"/>
        <pt x="531" y="132" on="0"/>
        <pt x="422" y="-13" on="0"/>
        <pt x="300" y="-13" on="1"/>
        <pt x="65" y="-13" on="0"/>
        <pt x="65" y="266" on="1"/>
        <pt x="65" y="383" on="0"/>
        <pt x="173" y="521" on="0"/>
        <pt x="291" y="521" on="1"/>
        <pt x="368" y="521" on="0"/>
        <pt x="428" y="480" on="1"/>
        <pt x="433" y="483" on="1"/>
        <pt x="412" y="547" on="0"/>
        <pt x="352" y="607" on="1"/>
        <pt x="241" y="553" on="1"/>
        <pt x="233" y="632" on="1"/>
      </contour>
      <contour>
        <pt x="182" y="154" on="0"/>
        <pt x="232" y="79" on="0"/>
        <pt x="371" y="79" on="0"/>
        <pt x="419" y="154" on="0"/>
        <pt x="419" y="361" on="0"/>
        <pt x="369" y="428" on="0"/>
        <pt x="234" y="428" on="0"/>
        <pt x="182" y="361" on="0"/>
      </contour>
    </TTGlyph>
    <TTGlyph name="exclam" xMin="74" yMin="0" xMax="212" yMax="699">
      <contour>
        <pt x="94" y="196" on="1"/>
        <pt x="79" y="699" on="1"/>
        <pt x="206" y="699" on="1"/>
        <pt x="190" y="196" on="1"/>
      </contour>
      <contour>
        <pt x="74" y="0" on="1"/>
        <pt x="74" y="109" on="1"/>
        <pt x="212" y="109" on="1"/>
        <pt x="212" y="0" on="1"/>
      </contour>
    </TTGlyph>
    <TTGlyph name="exclamdown" xMin="74" yMin="-113" xMax="212" yMax="585">
      <contour>
        <pt x="80" y="-113" on="1"/>
        <pt x="95" y="389" on="1"/>
        <pt x="191" y="389" on="1"/>
        <pt x="206" y="-113" on="1"/>
      </contour>
      <contour>
        <pt x="74" y="475" on="1"/>
        <pt x="74" y="585" on="1"/>
        <pt x="212" y="585" on="1"/>
        <pt x="212" y="475" on="1"/>
      </contour>
    </TTGlyph>
    <TTGlyph name="f" xMin="42" yMin="0" xMax="374" yMax="770">
      <contour>
        <pt x="109" y="0" on="1"/>
        <pt x="109" y="466" on="1"/>
        <pt x="42" y="466" on="1"/>
        <pt x="42" y="537" on="1"/>
        <pt x="109" y="551" on="1"/>
        <pt x="115" y="671" on="0"/>
        <pt x="214" y="770" on="0"/>
        <pt x="302" y="770" on="1"/>
        <pt x="374" y="767" on="1"/>
        <pt x="366" y="673" on="1"/>
        <pt x="316" y="676" on="0"/>
        <pt x="264" y="676" on="0"/>
        <pt x="252" y="669" on="1"/>
        <pt x="225" y="653" on="0"/>
        <pt x="225" y="553" on="1"/>
        <pt x="354" y="553" on="1"/>
        <pt x="354" y="463" on="1"/>
        <pt x="225" y="463" on="1"/>
        <pt x="225" y="0" on="1"/>
      </contour>
    </TTGlyph>
    <TTGlyph name="five" xMin="20" yMin="-13" xMax="484" yMax="699">
      <contour>
        <pt x="269" y="89" on="1"/>
        <pt x="322" y="89" on="0"/>
        <pt x="363" y="143" on="0"/>
        <pt x="363" y="277" on="0"/>
        <pt x="307" y="328" on="0"/>
        <pt x="165" y="328" on="1"/>
        <pt x="69" y="326" on="1"/>
        <pt x="124" y="699" on="1"/>
        <pt x="453" y="699" on="1"/>
        <pt x="453" y="600" on="1"/>
        <pt x="221" y="604" on="1"/>
        <pt x="196" y="427" on="1"/>
        <pt x="264" y="423" on="0"/>
        <pt x="359" y="403" on="0"/>
        <pt x="400" y="380" on="1"/>
        <pt x="484" y="335" on="0"/>
        <pt x="484" y="212" on="1"/>
        <pt x="484" y="106" on="0"/>
        <pt x="362" y="-13" on="0"/>
        <pt x="256" y="-13" on="1"/>
        <pt x="197" y="-13" on="0"/>
        <pt x="79" y="25" on="0"/>
        <pt x="50" y="44" on="1"/>
        <pt x="20" y="63" on="1"/>
        <pt x="58" y="149" on="1"/>
        <pt x="180" y="89" on="0"/>
      </contour>
    </TTGlyph>
    <TTGlyph name="four" xMin="21" yMin="0" xMax="519" yMax="711">
      <contour>
        <pt x="21" y="152" on="1"/>
        <pt x="21" y="232" on="1"/>
        <pt x="186" y="711" on="1"/>
        <pt x="298" y="696" on="1"/>
        <pt x="145" y="251" on="1"/>
        <pt x="145" y="246" on="1"/>
        <pt x="340" y="251" on="1"/>
        <pt x="366" y="510" on="1"/>
        <pt x="454" y="510" on="1"/>
        <pt x="454" y="253" on="1"/>
        <pt x="519" y="255" on="1"/>
        <pt x="519" y="152" on="1"/>
        <pt x="454" y="152" on="1"/>
        <pt x="455" y="0" on="1"/>
        <pt x="338" y="0" on="1"/>
        <pt x="340" y="152" on="1"/>
      </contour>
    </TTGlyph>
    <TTGlyph name="g" xMin="39" yMin="-179" xMax="520" yMax="598">
      <contour>
        <pt x="66" y="-59" on="1"/>
        <pt x="240" y="-85" on="0"/>
        <pt x="403" y="-85" on="0"/>
        <pt x="403" y="-60" on="1"/>
        <pt x="403" y="-44" on="0"/>
        <pt x="350" y="-12" on="0"/>
        <pt x="142" y="75" on="0"/>
        <pt x="142" y="77" on="1"/>
        <pt x="183" y="192" on="1"/>
        <pt x="39" y="239" on="0"/>
        <pt x="39" y="384" on="1"/>
        <pt x="39" y="497" on="0"/>
        <pt x="178" y="598" on="0"/>
        <pt x="290" y="598" on="1"/>
        <pt x="352" y="598" on="0"/>
        <pt x="520" y="586" on="1"/>
        <pt x="520" y="516" on="1"/>
        <pt x="456" y="506" on="1"/>
        <pt x="486" y="440" on="0"/>
        <pt x="486" y="381" on="1"/>
        <pt x="486" y="293" on="0"/>
        <pt x="363" y="183" on="0"/>
        <pt x="255" y="182" on="1"/>
        <pt x="251" y="143" on="0"/>
        <pt x="251" y="133" on="0"/>
        <pt x="436" y="57" on="0"/>
        <pt x="501" y="0" on="0"/>
        <pt x="501" y="-44" on="1"/>
        <pt x="501" y="-108" on="0"/>
        <pt x="372" y="-179" on="0"/>
        <pt x="266" y="-179" on="1"/>
        <pt x="169" y="-179" on="0"/>
        <pt x="81" y="-157" on="1"/>
        <pt x="53" y="-150" on="1"/>
      </contour>
      <contour>
        <pt x="201" y="506" on="0"/>
        <pt x="144" y="456" on="0"/>
        <pt x="144" y="322" on="0"/>
        <pt x="197" y="274" on="0"/>
        <pt x="324" y="274" on="0"/>
        <pt x="374" y="321" on="0"/>
        <pt x="374" y="385" on="1"/>
        <pt x="374" y="449" on="0"/>
        <pt x="360" y="496" on="0"/>
        <pt x="357" y="498" on="1"/>
        <pt x="351" y="502" on="0"/>
        <pt x="272" y="506" on="1"/>
      </contour>
    </TTGlyph>
    <TTGlyph name="germandbls" xMin="97" yMin="-13" xMax="573" yMax="712">
      <contour>
        <pt x="97" y="0" on="1"/>
        <pt x="97" y="474" on="1"/>
        <pt x="97" y="593" on="0"/>
        <pt x="223" y="712" on="0"/>
        <pt x="408" y="712" on="0"/>
        <pt x="537" y="613" on="0"/>
        <pt x="537" y="523" on="1"/>
        <pt x="537" y="460" on="0"/>
        <pt x="481" y="387" on="0"/>
        <pt x="447" y="375" on="1"/>
        <pt x="447" y="369" on="1"/>
        <pt x="573" y="338" on="0"/>
        <pt x="573" y="199" on="1"/>
        <pt x="573" y="96" on="0"/>
        <pt x="455" y="-13" on="0"/>
        <pt x="363" y="-13" on="1"/>
        <pt x="327" y="-13" on="0"/>
        <pt x="283" y="-5" on="1"/>
        <pt x="295" y="84" on="1"/>
        <pt x="319" y="80" on="0"/>
        <pt x="406" y="80" on="0"/>
        <pt x="451" y="134" on="0"/>
        <pt x="451" y="264" on="0"/>
        <pt x="395" y="323" on="0"/>
        <pt x="330" y="323" on="1"/>
        <pt x="307" y="323" on="1"/>
        <pt x="307" y="409" on="1"/>
        <pt x="371" y="414" on="0"/>
        <pt x="422" y="463" on="0"/>
        <pt x="422" y="518" on="1"/>
        <pt x="422" y="622" on="0"/>
        <pt x="317" y="622" on="1"/>
        <pt x="263" y="622" on="0"/>
        <pt x="214" y="555" on="0"/>
        <pt x="214" y="480" on="1"/>
        <pt x="214" y="0" on="1"/>
      </contour>
    </TTGlyph>
    <TTGlyph name="grave" xMin="162" yMin="652" xMax="456" yMax="813">
      <contour>
        <pt x="162" y="721" on="1"/>
        <pt x="194" y="813" on="1"/>
        <pt x="456" y="720" on="1"/>
        <pt x="434" y="652" on="1"/>
      </contour>
    </TTGlyph>
    <TTGlyph name="grave.cap" xMin="114" yMin="743" xMax="399" yMax="886">
      <contour>
        <pt x="114" y="798" on="1"/>
        <pt x="140" y="886" on="1"/>
        <pt x="399" y="809" on="1"/>
        <pt x="380" y="743" on="1"/>
      </contour>
    </TTGlyph>
    <TTGlyph name="greater" xMin="57" yMin="11" xMax="597" yMax="577">
      <contour>
        <pt x="57" y="11" on="1"/>
        <pt x="57" y="122" on="1"/>
        <pt x="452" y="291" on="1"/>
        <pt x="452" y="297" on="1"/>
        <pt x="57" y="465" on="1"/>
        <pt x="57" y="577" on="1"/>
        <pt x="597" y="337" on="1"/>
        <pt x="597" y="251" on="1"/>
      </contour>
    </TTGlyph>
    <TTGlyph name="guillemotleft" xMin="32" yMin="82" xMax="490" yMax="592">
      <contour>
        <pt x="182" y="82" on="1"/>
        <pt x="32" y="337" on="1"/>
        <pt x="182" y="592" on="1"/>
        <pt x="268" y="541" on="1"/>
        <pt x="145" y="340" on="1"/>
        <pt x="145" y="334" on="1"/>
        <pt x="268" y="133" on="1"/>
      </contour>
      <contour>
        <pt x="405" y="83" on="1"/>
        <pt x="256" y="337" on="1"/>
        <pt x="405" y="590" on="1"/>
        <pt x="490" y="539" on="1"/>
        <pt x="369" y="340" on="1"/>
        <pt x="369" y="334" on="1"/>
        <pt x="490" y="135" on="1"/>
      </contour>
    </TTGlyph>
    <TTGlyph name="guillemotright" xMin="31" yMin="82" xMax="489" yMax="592">
      <contour>
        <pt x="253" y="133" on="1"/>
        <pt x="376" y="334" on="1"/>
        <pt x="376" y="340" on="1"/>
        <pt x="253" y="541" on="1"/>
        <pt x="339" y="592" on="1"/>
        <pt x="489" y="337" on="1"/>
        <pt x="339" y="82" on="1"/>
      </contour>
      <contour>
        <pt x="31" y="135" on="1"/>
        <pt x="153" y="334" on="1"/>
        <pt x="153" y="340" on="1"/>
        <pt x="31" y="539" on="1"/>
        <pt x="117" y="590" on="1"/>
        <pt x="266" y="337" on="1"/>
        <pt x="117" y="83" on="1"/>
      </contour>
    </TTGlyph>
    <TTGlyph name="guilsinglleft" xMin="32" yMin="83" xMax="269" yMax="590">
      <contour>
        <pt x="182" y="83" on="1"/>
        <pt x="32" y="337" on="1"/>
        <pt x="182" y="590" on="1"/>
        <pt x="269" y="538" on="1"/>
        <pt x="146" y="340" on="1"/>
        <pt x="146" y="334" on="1"/>
        <pt x="269" y="136" on="1"/>
      </contour>
    </TTGlyph>
    <TTGlyph name="guilsinglright" xMin="31" yMin="83" xMax="268" yMax="590">
      <contour>
        <pt x="31" y="136" on="1"/>
        <pt x="154" y="334" on="1"/>
        <pt x="154" y="340" on="1"/>
        <pt x="31" y="538" on="1"/>
        <pt x="119" y="590" on="1"/>
        <pt x="268" y="337" on="1"/>
        <pt x="119" y="83" on="1"/>
      </contour>
    </TTGlyph>
    <TTGlyph name="h" xMin="77" yMin="0" xMax="527" yMax="757">
      <contour>
        <pt x="77" y="0" on="1"/>
        <pt x="77" y="757" on="1"/>
        <pt x="193" y="757" on="1"/>
        <pt x="193" y="548" on="1"/>
        <pt x="304" y="599" on="0"/>
        <pt x="460" y="599" on="0"/>
        <pt x="527" y="492" on="0"/>
        <pt x="527" y="386" on="1"/>
        <pt x="527" y="0" on="1"/>
        <pt x="411" y="0" on="1"/>
        <pt x="411" y="358" on="1"/>
        <pt x="411" y="443" on="0"/>
        <pt x="383" y="495" on="0"/>
        <pt x="341" y="495" on="1"/>
        <pt x="315" y="495" on="0"/>
        <pt x="241" y="476" on="0"/>
        <pt x="193" y="456" on="1"/>
        <pt x="193" y="0" on="1"/>
      </contour>
    </TTGlyph>
    <TTGlyph name="hbar" xMin="8" yMin="0" xMax="539" yMax="757">
      <contour>
        <pt x="89" y="0" on="1"/>
        <pt x="89" y="642" on="1"/>
        <pt x="8" y="642" on="1"/>
        <pt x="8" y="722" on="1"/>
        <pt x="89" y="722" on="1"/>
        <pt x="89" y="757" on="1"/>
        <pt x="205" y="757" on="1"/>
        <pt x="205" y="722" on="1"/>
        <pt x="385" y="722" on="1"/>
        <pt x="385" y="642" on="1"/>
        <pt x="205" y="642" on="1"/>
        <pt x="205" y="548" on="1"/>
        <pt x="316" y="599" on="0"/>
        <pt x="472" y="599" on="0"/>
        <pt x="539" y="492" on="0"/>
        <pt x="539" y="386" on="1"/>
        <pt x="539" y="0" on="1"/>
        <pt x="423" y="0" on="1"/>
        <pt x="423" y="358" on="1"/>
        <pt x="423" y="443" on="0"/>
        <pt x="395" y="495" on="0"/>
        <pt x="353" y="495" on="1"/>
        <pt x="327" y="495" on="0"/>
        <pt x="253" y="476" on="0"/>
        <pt x="205" y="456" on="1"/>
        <pt x="205" y="0" on="1"/>
      </contour>
    </TTGlyph>
    <TTGlyph name="hyphen" xMin="38" yMin="278" xMax="281" yMax="376">
      <contour>
        <pt x="38" y="278" on="1"/>
        <pt x="38" y="376" on="1"/>
        <pt x="281" y="376" on="1"/>
        <pt x="281" y="278" on="1"/>
      </contour>
    </TTGlyph>
    <TTGlyph name="i" xMin="88" yMin="0" xMax="222" yMax="757">
      <contour>
        <pt x="97" y="0" on="1"/>
        <pt x="97" y="585" on="1"/>
        <pt x="213" y="585" on="1"/>
        <pt x="213" y="0" on="1"/>
      </contour>
      <contour>
        <pt x="88" y="663" on="1"/>
        <pt x="88" y="757" on="1"/>
        <pt x="222" y="757" on="1"/>
        <pt x="222" y="663" on="1"/>
      </contour>
    </TTGlyph>
    <TTGlyph name="iacute" xMin="22" yMin="0" xMax="306" yMax="813">
      <contour>
        <pt x="44" y="652" on="1"/>
        <pt x="22" y="720" on="1"/>
        <pt x="274" y="813" on="1"/>
        <pt x="306" y="720" on="1"/>
      </contour>
      <contour>
        <pt x="97" y="0" on="1"/>
        <pt x="97" y="585" on="1"/>
        <pt x="213" y="585" on="1"/>
        <pt x="213" y="0" on="1"/>
      </contour>
    </TTGlyph>
    <TTGlyph name="icircumflex" xMin="-13" yMin="0" xMax="323" yMax="804">
      <contour>
        <pt x="20" y="649" on="1"/>
        <pt x="-13" y="700" on="1"/>
        <pt x="124" y="804" on="1"/>
        <pt x="185" y="804" on="1"/>
        <pt x="323" y="700" on="1"/>
        <pt x="288" y="649" on="1"/>
        <pt x="158" y="716" on="1"/>
        <pt x="151" y="716" on="1"/>
      </contour>
      <contour>
        <pt x="97" y="0" on="1"/>
        <pt x="97" y="585" on="1"/>
        <pt x="213" y="585" on="1"/>
        <pt x="213" y="0" on="1"/>
      </contour>
    </TTGlyph>
    <TTGlyph name="idieresis" xMin="1" yMin="0" xMax="308" yMax="770">
      <contour>
        <pt x="1" y="677" on="1"/>
        <pt x="1" y="770" on="1"/>
        <pt x="122" y="770" on="1"/>
        <pt x="122" y="677" on="1"/>
      </contour>
      <contour>
        <pt x="188" y="677" on="1"/>
        <pt x="188" y="770" on="1"/>
        <pt x="308" y="770" on="1"/>
        <pt x="308" y="677" on="1"/>
      </contour>
      <contour>
        <pt x="97" y="0" on="1"/>
        <pt x="97" y="585" on="1"/>
        <pt x="213" y="585" on="1"/>
        <pt x="213" y="0" on="1"/>
      </contour>
    </TTGlyph>
    <TTGlyph name="igrave" xMin="-9" yMin="0" xMax="275" yMax="813">
      <contour>
        <pt x="-9" y="720" on="1"/>
        <pt x="23" y="813" on="1"/>
        <pt x="275" y="720" on="1"/>
        <pt x="253" y="652" on="1"/>
      </contour>
      <contour>
        <pt x="97" y="0" on="1"/>
        <pt x="97" y="585" on="1"/>
        <pt x="213" y="585" on="1"/>
        <pt x="213" y="0" on="1"/>
      </contour>
    </TTGlyph>
    <TTGlyph name="ij" xMin="88" yMin="-178" xMax="523" yMax="757">
      <contour>
        <pt x="99" y="0" on="1"/>
        <pt x="99" y="585" on="1"/>
        <pt x="214" y="585" on="1"/>
        <pt x="214" y="0" on="1"/>
      </contour>
      <contour>
        <pt x="271" y="-74" on="1"/>
        <pt x="310" y="-80" on="0"/>
        <pt x="379" y="-80" on="0"/>
        <pt x="398" y="-33" on="0"/>
        <pt x="398" y="60" on="1"/>
        <pt x="398" y="582" on="1"/>
        <pt x="513" y="582" on="1"/>
        <pt x="513" y="61" on="1"/>
        <pt x="513" y="-178" on="0"/>
        <pt x="337" y="-178" on="1"/>
        <pt x="259" y="-171" on="1"/>
      </contour>
      <contour>
        <pt x="88" y="663" on="1"/>
        <pt x="88" y="757" on="1"/>
        <pt x="223" y="757" on="1"/>
        <pt x="223" y="663" on="1"/>
      </contour>
      <contour>
        <pt x="388" y="663" on="1"/>
        <pt x="388" y="757" on="1"/>
        <pt x="523" y="757" on="1"/>
        <pt x="523" y="663" on="1"/>
      </contour>
    </TTGlyph>
    <TTGlyph name="itilde" xMin="-21" yMin="0" xMax="313" yMax="786">
      <contour>
        <pt x="52" y="786" on="1"/>
        <pt x="78" y="786" on="0"/>
        <pt x="220" y="745" on="0"/>
        <pt x="226" y="745" on="1"/>
        <pt x="238" y="745" on="0"/>
        <pt x="248" y="785" on="1"/>
        <pt x="313" y="776" on="1"/>
        <pt x="312" y="661" on="0"/>
        <pt x="242" y="661" on="1"/>
        <pt x="216" y="661" on="0"/>
        <pt x="73" y="704" on="0"/>
        <pt x="67" y="704" on="1"/>
        <pt x="56" y="704" on="0"/>
        <pt x="44" y="663" on="1"/>
        <pt x="-21" y="671" on="1"/>
        <pt x="-20" y="786" on="0"/>
      </contour>
      <contour>
        <pt x="97" y="0" on="1"/>
        <pt x="97" y="585" on="1"/>
        <pt x="213" y="585" on="1"/>
        <pt x="213" y="0" on="1"/>
      </contour>
    </TTGlyph>
    <TTGlyph name="j" xMin="-25" yMin="-178" xMax="240" yMax="757">
      <contour>
        <pt x="-12" y="-74" on="1"/>
        <pt x="27" y="-80" on="0"/>
        <pt x="95" y="-80" on="0"/>
        <pt x="115" y="-33" on="0"/>
        <pt x="115" y="60" on="1"/>
        <pt x="115" y="585" on="1"/>
        <pt x="231" y="585" on="1"/>
        <pt x="231" y="61" on="1"/>
        <pt x="231" y="-66" on="0"/>
        <pt x="135" y="-178" on="0"/>
        <pt x="57" y="-178" on="1"/>
        <pt x="-25" y="-171" on="1"/>
      </contour>
      <contour>
        <pt x="106" y="663" on="1"/>
        <pt x="106" y="757" on="1"/>
        <pt x="240" y="757" on="1"/>
        <pt x="240" y="663" on="1"/>
      </contour>
    </TTGlyph>
    <TTGlyph name="jcircumflex" xMin="-25" yMin="-178" xMax="338" yMax="804">
      <contour>
        <pt x="31" y="649" on="1"/>
        <pt x="-2" y="700" on="1"/>
        <pt x="137" y="804" on="1"/>
        <pt x="198" y="804" on="1"/>
        <pt x="338" y="700" on="1"/>
        <pt x="303" y="649" on="1"/>
        <pt x="171" y="716" on="1"/>
        <pt x="164" y="716" on="1"/>
      </contour>
      <contour>
        <pt x="-12" y="-74" on="1"/>
        <pt x="27" y="-80" on="0"/>
        <pt x="95" y="-80" on="0"/>
        <pt x="115" y="-33" on="0"/>
        <pt x="115" y="60" on="1"/>
        <pt x="115" y="585" on="1"/>
        <pt x="230" y="585" on="1"/>
        <pt x="230" y="61" on="1"/>
        <pt x="230" y="-66" on="0"/>
        <pt x="134" y="-178" on="0"/>
        <pt x="57" y="-178" on="1"/>
        <pt x="-25" y="-171" on="1"/>
      </contour>
    </TTGlyph>
    <TTGlyph name="k" xMin="82" yMin="0" xMax="588" yMax="753">
      <contour>
        <pt x="198" y="753" on="1"/>
        <pt x="198" y="0" on="1"/>
        <pt x="82" y="0" on="1"/>
        <pt x="87" y="321" on="1"/>
        <pt x="82" y="753" on="1"/>
      </contour>
      <contour>
        <pt x="438" y="0" on="1"/>
        <pt x="199" y="314" on="1"/>
        <pt x="422" y="582" on="1"/>
        <pt x="570" y="582" on="1"/>
        <pt x="325" y="319" on="1"/>
        <pt x="325" y="314" on="1"/>
        <pt x="588" y="0" on="1"/>
      </contour>
    </TTGlyph>
    <TTGlyph name="kcommaaccent" xMin="82" yMin="-261" xMax="588" yMax="753">
      <contour>
        <pt x="198" y="753" on="1"/>
        <pt x="198" y="0" on="1"/>
        <pt x="82" y="0" on="1"/>
        <pt x="87" y="321" on="1"/>
        <pt x="82" y="753" on="1"/>
      </contour>
      <contour>
        <pt x="448" y="0" on="1"/>
        <pt x="199" y="314" on="1"/>
        <pt x="431" y="582" on="1"/>
        <pt x="570" y="582" on="1"/>
        <pt x="323" y="319" on="1"/>
        <pt x="323" y="314" on="1"/>
        <pt x="588" y="0" on="1"/>
      </contour>
      <contour>
        <pt x="242" y="-126" on="1"/>
        <pt x="242" y="-55" on="1"/>
        <pt x="347" y="-55" on="1"/>
        <pt x="347" y="-65" on="1"/>
        <pt x="347" y="-207" on="0"/>
        <pt x="246" y="-261" on="1"/>
        <pt x="204" y="-224" on="1"/>
        <pt x="225" y="-206" on="0"/>
        <pt x="242" y="-163" on="0"/>
      </contour>
    </TTGlyph>
    <TTGlyph name="kgreenlandic" xMin="93" yMin="0" xMax="588" yMax="582">
      <contour>
        <pt x="448" y="0" on="1"/>
        <pt x="199" y="314" on="1"/>
        <pt x="431" y="582" on="1"/>
        <pt x="570" y="582" on="1"/>
        <pt x="323" y="319" on="1"/>
        <pt x="323" y="314" on="1"/>
        <pt x="588" y="0" on="1"/>
      </contour>
      <contour>
        <pt x="93" y="0" on="1"/>
        <pt x="93" y="582" on="1"/>
        <pt x="173" y="582" on="1"/>
        <pt x="199" y="506" on="1"/>
        <pt x="199" y="0" on="1"/>
      </contour>
    </TTGlyph>
    <TTGlyph name="l" xMin="82" yMin="0" xMax="198" yMax="757">
      <contour>
        <pt x="82" y="0" on="1"/>
        <pt x="82" y="757" on="1"/>
        <pt x="198" y="757" on="1"/>
        <pt x="198" y="0" on="1"/>
      </contour>
    </TTGlyph>
    <TTGlyph name="ldot" xMin="82" yMin="0" xMax="401" yMax="757">
      <contour>
        <pt x="82" y="0" on="1"/>
        <pt x="82" y="757" on="1"/>
        <pt x="197" y="757" on="1"/>
        <pt x="197" y="0" on="1"/>
      </contour>
      <contour>
        <pt x="274" y="352" on="1"/>
        <pt x="274" y="464" on="1"/>
        <pt x="401" y="464" on="1"/>
        <pt x="401" y="352" on="1"/>
      </contour>
    </TTGlyph>
    <TTGlyph name="less" xMin="67" yMin="11" xMax="608" yMax="577">
      <contour>
        <pt x="67" y="251" on="1"/>
        <pt x="67" y="337" on="1"/>
        <pt x="608" y="577" on="1"/>
        <pt x="608" y="465" on="1"/>
        <pt x="212" y="297" on="1"/>
        <pt x="212" y="291" on="1"/>
        <pt x="608" y="122" on="1"/>
        <pt x="608" y="11" on="1"/>
      </contour>
    </TTGlyph>
    <TTGlyph name="logicalnot" xMin="20" yMin="118" xMax="561" yMax="343">
      <contour>
        <pt x="20" y="243" on="1"/>
        <pt x="20" y="343" on="1"/>
        <pt x="561" y="343" on="1"/>
        <pt x="561" y="118" on="1"/>
        <pt x="459" y="118" on="1"/>
        <pt x="459" y="243" on="1"/>
      </contour>
    </TTGlyph>
    <TTGlyph name="lslash" xMin="21" yMin="0" xMax="305" yMax="757">
      <contour>
        <pt x="108" y="0" on="1"/>
        <pt x="108" y="312" on="1"/>
        <pt x="21" y="258" on="1"/>
        <pt x="21" y="353" on="1"/>
        <pt x="108" y="407" on="1"/>
        <pt x="108" y="757" on="1"/>
        <pt x="223" y="757" on="1"/>
        <pt x="223" y="480" on="1"/>
        <pt x="305" y="532" on="1"/>
        <pt x="305" y="435" on="1"/>
        <pt x="223" y="384" on="1"/>
        <pt x="223" y="0" on="1"/>
      </contour>
    </TTGlyph>
    <TTGlyph name="m" xMin="93" yMin="0" xMax="861" yMax="599">
      <contour>
        <pt x="93" y="0" on="1"/>
        <pt x="93" y="585" on="1"/>
        <pt x="169" y="585" on="1"/>
        <pt x="182" y="527" on="1"/>
        <pt x="187" y="527" on="1"/>
        <pt x="308" y="599" on="0"/>
        <pt x="480" y="599" on="0"/>
        <pt x="512" y="523" on="1"/>
        <pt x="551" y="547" on="0"/>
        <pt x="595" y="572" on="0"/>
        <pt x="677" y="599" on="0"/>
        <pt x="714" y="599" on="1"/>
        <pt x="795" y="599" on="0"/>
        <pt x="861" y="488" on="0"/>
        <pt x="861" y="384" on="1"/>
        <pt x="861" y="0" on="1"/>
        <pt x="745" y="0" on="1"/>
        <pt x="745" y="356" on="1"/>
        <pt x="745" y="439" on="0"/>
        <pt x="722" y="494" on="0"/>
        <pt x="643" y="494" on="0"/>
        <pt x="556" y="460" on="0"/>
        <pt x="531" y="444" on="1"/>
        <pt x="535" y="404" on="0"/>
        <pt x="535" y="382" on="1"/>
        <pt x="535" y="0" on="1"/>
        <pt x="419" y="0" on="1"/>
        <pt x="419" y="358" on="1"/>
        <pt x="419" y="469" on="0"/>
        <pt x="393" y="486" on="1"/>
        <pt x="381" y="494" on="0"/>
        <pt x="356" y="494" on="1"/>
        <pt x="294" y="494" on="0"/>
        <pt x="209" y="447" on="1"/>
        <pt x="209" y="0" on="1"/>
      </contour>
    </TTGlyph>
    <TTGlyph name="macron" xMin="137" yMin="680" xMax="455" yMax="757">
      <contour>
        <pt x="137" y="680" on="1"/>
        <pt x="137" y="757" on="1"/>
        <pt x="455" y="757" on="1"/>
        <pt x="455" y="680" on="1"/>
      </contour>
    </TTGlyph>
    <TTGlyph name="mu" xMin="80" yMin="-166" xMax="526" yMax="585">
      <contour>
        <pt x="80" y="-166" on="1"/>
        <pt x="80" y="585" on="1"/>
        <pt x="196" y="585" on="1"/>
        <pt x="196" y="233" on="1"/>
        <pt x="196" y="128" on="0"/>
        <pt x="209" y="109" on="1"/>
        <pt x="225" y="90" on="0"/>
        <pt x="298" y="90" on="0"/>
        <pt x="386" y="123" on="0"/>
        <pt x="410" y="138" on="1"/>
        <pt x="410" y="585" on="1"/>
        <pt x="526" y="585" on="1"/>
        <pt x="526" y="0" on="1"/>
        <pt x="451" y="0" on="1"/>
        <pt x="437" y="58" on="1"/>
        <pt x="431" y="58" on="1"/>
        <pt x="306" y="-13" on="0"/>
        <pt x="240" y="-13" on="1"/>
        <pt x="206" y="-13" on="0"/>
        <pt x="182" y="0" on="1"/>
        <pt x="178" y="-4" on="1"/>
        <pt x="188" y="-166" on="1"/>
      </contour>
    </TTGlyph>
    <TTGlyph name="multiply" xMin="47" yMin="48" xMax="540" yMax="542">
      <contour>
        <pt x="117" y="48" on="1"/>
        <pt x="47" y="119" on="1"/>
        <pt x="223" y="295" on="1"/>
        <pt x="48" y="470" on="1"/>
        <pt x="117" y="540" on="1"/>
        <pt x="292" y="364" on="1"/>
        <pt x="470" y="542" on="1"/>
        <pt x="540" y="471" on="1"/>
        <pt x="363" y="294" on="1"/>
        <pt x="538" y="119" on="1"/>
        <pt x="469" y="49" on="1"/>
        <pt x="294" y="224" on="1"/>
      </contour>
    </TTGlyph>
    <TTGlyph name="n" xMin="93" yMin="0" xMax="540" yMax="598">
      <contour>
        <pt x="93" y="0" on="1"/>
        <pt x="93" y="585" on="1"/>
        <pt x="169" y="585" on="1"/>
        <pt x="182" y="527" on="1"/>
        <pt x="187" y="527" on="1"/>
        <pt x="310" y="598" on="0"/>
        <pt x="479" y="598" on="0"/>
        <pt x="540" y="488" on="0"/>
        <pt x="540" y="386" on="1"/>
        <pt x="540" y="0" on="1"/>
        <pt x="424" y="0" on="1"/>
        <pt x="424" y="357" on="1"/>
        <pt x="424" y="446" on="0"/>
        <pt x="401" y="493" on="0"/>
        <pt x="323" y="493" on="0"/>
        <pt x="234" y="461" on="0"/>
        <pt x="209" y="445" on="1"/>
        <pt x="209" y="0" on="1"/>
      </contour>
    </TTGlyph>
    <TTGlyph name="nacute" xMin="93" yMin="0" xMax="540" yMax="813">
      <contour>
        <pt x="93" y="0" on="1"/>
        <pt x="93" y="585" on="1"/>
        <pt x="169" y="585" on="1"/>
        <pt x="182" y="527" on="1"/>
        <pt x="187" y="527" on="1"/>
        <pt x="310" y="598" on="0"/>
        <pt x="479" y="598" on="0"/>
        <pt x="540" y="488" on="0"/>
        <pt x="540" y="386" on="1"/>
        <pt x="540" y="0" on="1"/>
        <pt x="424" y="0" on="1"/>
        <pt x="424" y="357" on="1"/>
        <pt x="424" y="446" on="0"/>
        <pt x="401" y="493" on="0"/>
        <pt x="323" y="493" on="0"/>
        <pt x="234" y="461" on="0"/>
        <pt x="209" y="445" on="1"/>
        <pt x="209" y="0" on="1"/>
      </contour>
      <contour>
        <pt x="199" y="652" on="1"/>
        <pt x="177" y="720" on="1"/>
        <pt x="439" y="813" on="1"/>
        <pt x="471" y="721" on="1"/>
      </contour>
    </TTGlyph>
    <TTGlyph name="nine" xMin="52" yMin="-13" xMax="520" yMax="712">
      <contour>
        <pt x="284" y="86" on="1"/>
        <pt x="331" y="86" on="0"/>
        <pt x="352" y="107" on="1"/>
        <pt x="395" y="148" on="0"/>
        <pt x="398" y="282" on="1"/>
        <pt x="332" y="270" on="0"/>
        <pt x="278" y="270" on="1"/>
        <pt x="172" y="270" on="0"/>
        <pt x="52" y="375" on="0"/>
        <pt x="52" y="591" on="0"/>
        <pt x="173" y="712" on="0"/>
        <pt x="396" y="712" on="0"/>
        <pt x="520" y="550" on="0"/>
        <pt x="520" y="175" on="0"/>
        <pt x="404" y="-13" on="0"/>
        <pt x="277" y="-13" on="1"/>
        <pt x="230" y="-13" on="0"/>
        <pt x="126" y="18" on="0"/>
        <pt x="98" y="34" on="1"/>
        <pt x="70" y="50" on="1"/>
        <pt x="106" y="137" on="1"/>
        <pt x="206" y="86" on="0"/>
      </contour>
      <contour>
        <pt x="354" y="598" on="1"/>
        <pt x="329" y="613" on="0"/>
        <pt x="211" y="613" on="0"/>
        <pt x="168" y="552" on="0"/>
        <pt x="168" y="424" on="0"/>
        <pt x="207" y="371" on="0"/>
        <pt x="274" y="371" on="1"/>
        <pt x="328" y="371" on="0"/>
        <pt x="398" y="391" on="1"/>
        <pt x="398" y="573" on="0"/>
      </contour>
    </TTGlyph>
    <TTGlyph name="ntilde" xMin="93" yMin="0" xMax="540" yMax="786">
      <contour>
        <pt x="93" y="0" on="1"/>
        <pt x="93" y="585" on="1"/>
        <pt x="169" y="585" on="1"/>
        <pt x="182" y="527" on="1"/>
        <pt x="187" y="527" on="1"/>
        <pt x="310" y="598" on="0"/>
        <pt x="479" y="598" on="0"/>
        <pt x="540" y="488" on="0"/>
        <pt x="540" y="386" on="1"/>
        <pt x="540" y="0" on="1"/>
        <pt x="424" y="0" on="1"/>
        <pt x="424" y="357" on="1"/>
        <pt x="424" y="446" on="0"/>
        <pt x="401" y="493" on="0"/>
        <pt x="323" y="493" on="0"/>
        <pt x="234" y="461" on="0"/>
        <pt x="209" y="445" on="1"/>
        <pt x="209" y="0" on="1"/>
      </contour>
      <contour>
        <pt x="207" y="786" on="1"/>
        <pt x="236" y="786" on="0"/>
        <pt x="398" y="743" on="0"/>
        <pt x="405" y="743" on="1"/>
        <pt x="418" y="743" on="0"/>
        <pt x="434" y="785" on="1"/>
        <pt x="497" y="776" on="1"/>
        <pt x="496" y="661" on="0"/>
        <pt x="415" y="661" on="1"/>
        <pt x="386" y="661" on="0"/>
        <pt x="223" y="706" on="0"/>
        <pt x="216" y="706" on="1"/>
        <pt x="202" y="706" on="0"/>
        <pt x="186" y="663" on="1"/>
        <pt x="123" y="671" on="1"/>
        <pt x="124" y="786" on="0"/>
      </contour>
    </TTGlyph>
    <TTGlyph name="numbersign" xMin="17" yMin="0" xMax="542" yMax="695">
      <contour>
        <pt x="17" y="183" on="1"/>
        <pt x="17" y="282" on="1"/>
        <pt x="113" y="282" on="1"/>
        <pt x="133" y="412" on="1"/>
        <pt x="52" y="412" on="1"/>
        <pt x="52" y="511" on="1"/>
        <pt x="149" y="511" on="1"/>
        <pt x="178" y="695" on="1"/>
        <pt x="276" y="695" on="1"/>
        <pt x="247" y="511" on="1"/>
        <pt x="362" y="511" on="1"/>
        <pt x="391" y="695" on="1"/>
        <pt x="490" y="695" on="1"/>
        <pt x="461" y="511" on="1"/>
        <pt x="542" y="511" on="1"/>
        <pt x="542" y="412" on="1"/>
        <pt x="445" y="412" on="1"/>
        <pt x="425" y="282" on="1"/>
        <pt x="507" y="282" on="1"/>
        <pt x="507" y="183" on="1"/>
        <pt x="409" y="183" on="1"/>
        <pt x="381" y="0" on="1"/>
        <pt x="283" y="0" on="1"/>
        <pt x="311" y="183" on="1"/>
        <pt x="196" y="183" on="1"/>
        <pt x="168" y="0" on="1"/>
        <pt x="69" y="0" on="1"/>
        <pt x="97" y="183" on="1"/>
      </contour>
      <contour>
        <pt x="212" y="282" on="1"/>
        <pt x="327" y="282" on="1"/>
        <pt x="347" y="412" on="1"/>
        <pt x="232" y="412" on="1"/>
      </contour>
    </TTGlyph>
    <TTGlyph name="o" xMin="62" yMin="-13" xMax="536" yMax="598">
      <contour>
        <pt x="536" y="142" on="0"/>
        <pt x="428" y="-13" on="0"/>
        <pt x="171" y="-13" on="0"/>
        <pt x="62" y="142" on="0"/>
        <pt x="62" y="442" on="0"/>
        <pt x="171" y="598" on="0"/>
        <pt x="428" y="598" on="0"/>
        <pt x="536" y="442" on="0"/>
      </contour>
      <contour>
        <pt x="231" y="79" on="0"/>
        <pt x="369" y="79" on="0"/>
        <pt x="417" y="162" on="0"/>
        <pt x="417" y="423" on="0"/>
        <pt x="369" y="505" on="0"/>
        <pt x="231" y="505" on="0"/>
        <pt x="182" y="423" on="0"/>
        <pt x="182" y="162" on="0"/>
      </contour>
    </TTGlyph>
    <TTGlyph name="oacute" xMin="62" yMin="-13" xMax="536" yMax="813">
      <contour>
        <pt x="536" y="142" on="0"/>
        <pt x="428" y="-13" on="0"/>
        <pt x="171" y="-13" on="0"/>
        <pt x="62" y="142" on="0"/>
        <pt x="62" y="442" on="0"/>
        <pt x="171" y="598" on="0"/>
        <pt x="428" y="598" on="0"/>
        <pt x="536" y="442" on="0"/>
      </contour>
      <contour>
        <pt x="231" y="79" on="0"/>
        <pt x="369" y="79" on="0"/>
        <pt x="417" y="162" on="0"/>
        <pt x="417" y="423" on="0"/>
        <pt x="369" y="505" on="0"/>
        <pt x="231" y="505" on="0"/>
        <pt x="182" y="423" on="0"/>
        <pt x="182" y="162" on="0"/>
      </contour>
      <contour>
        <pt x="174" y="652" on="1"/>
        <pt x="152" y="720" on="1"/>
        <pt x="414" y="813" on="1"/>
        <pt x="446" y="721" on="1"/>
      </contour>
    </TTGlyph>
    <TTGlyph name="ocircumflex" xMin="62" yMin="-13" xMax="536" yMax="804">
      <contour>
        <pt x="536" y="142" on="0"/>
        <pt x="428" y="-13" on="0"/>
        <pt x="171" y="-13" on="0"/>
        <pt x="62" y="142" on="0"/>
        <pt x="62" y="442" on="0"/>
        <pt x="171" y="598" on="0"/>
        <pt x="428" y="598" on="0"/>
        <pt x="536" y="442" on="0"/>
      </contour>
      <contour>
        <pt x="231" y="79" on="0"/>
        <pt x="369" y="79" on="0"/>
        <pt x="417" y="162" on="0"/>
        <pt x="417" y="423" on="0"/>
        <pt x="369" y="505" on="0"/>
        <pt x="231" y="505" on="0"/>
        <pt x="182" y="423" on="0"/>
        <pt x="182" y="162" on="0"/>
      </contour>
      <contour>
        <pt x="155" y="647" on="1"/>
        <pt x="122" y="697" on="1"/>
        <pt x="268" y="804" on="1"/>
        <pt x="329" y="804" on="1"/>
        <pt x="476" y="697" on="1"/>
        <pt x="441" y="647" on="1"/>
        <pt x="302" y="716" on="1"/>
        <pt x="295" y="716" on="1"/>
      </contour>
    </TTGlyph>
    <TTGlyph name="odieresis" xMin="62" yMin="-13" xMax="536" yMax="770">
      <contour>
        <pt x="536" y="142" on="0"/>
        <pt x="428" y="-13" on="0"/>
        <pt x="171" y="-13" on="0"/>
        <pt x="62" y="142" on="0"/>
        <pt x="62" y="442" on="0"/>
        <pt x="171" y="598" on="0"/>
        <pt x="428" y="598" on="0"/>
        <pt x="536" y="442" on="0"/>
      </contour>
      <contour>
        <pt x="231" y="79" on="0"/>
        <pt x="369" y="79" on="0"/>
        <pt x="417" y="162" on="0"/>
        <pt x="417" y="423" on="0"/>
        <pt x="369" y="505" on="0"/>
        <pt x="231" y="505" on="0"/>
        <pt x="182" y="423" on="0"/>
        <pt x="182" y="162" on="0"/>
      </contour>
      <contour>
        <pt x="132" y="677" on="1"/>
        <pt x="132" y="770" on="1"/>
        <pt x="256" y="770" on="1"/>
        <pt x="256" y="677" on="1"/>
      </contour>
      <contour>
        <pt x="343" y="677" on="1"/>
        <pt x="343" y="770" on="1"/>
        <pt x="466" y="770" on="1"/>
        <pt x="466" y="677" on="1"/>
      </contour>
    </TTGlyph>
    <TTGlyph name="oe" xMin="62" yMin="-13" xMax="888" yMax="598">
      <contour>
        <pt x="480" y="65" on="1"/>
        <pt x="422" y="-13" on="0"/>
        <pt x="171" y="-13" on="0"/>
        <pt x="62" y="142" on="0"/>
        <pt x="62" y="442" on="0"/>
        <pt x="171" y="598" on="0"/>
        <pt x="423" y="598" on="0"/>
        <pt x="480" y="519" on="1"/>
        <pt x="484" y="519" on="1"/>
        <pt x="544" y="598" on="0"/>
        <pt x="777" y="598" on="0"/>
        <pt x="888" y="470" on="0"/>
        <pt x="888" y="322" on="1"/>
        <pt x="888" y="250" on="1"/>
        <pt x="539" y="250" on="1"/>
        <pt x="539" y="139" on="0"/>
        <pt x="577" y="104" on="1"/>
        <pt x="602" y="82" on="0"/>
        <pt x="644" y="82" on="1"/>
        <pt x="725" y="82" on="0"/>
        <pt x="815" y="112" on="1"/>
        <pt x="846" y="123" on="1"/>
        <pt x="874" y="35" on="1"/>
        <pt x="776" y="-13" on="0"/>
        <pt x="545" y="-13" on="0"/>
        <pt x="484" y="65" on="1"/>
      </contour>
      <contour>
        <pt x="231" y="79" on="0"/>
        <pt x="369" y="79" on="0"/>
        <pt x="417" y="162" on="0"/>
        <pt x="417" y="423" on="0"/>
        <pt x="369" y="505" on="0"/>
        <pt x="231" y="505" on="0"/>
        <pt x="182" y="423" on="0"/>
        <pt x="182" y="162" on="0"/>
      </contour>
      <contour>
        <pt x="540" y="337" on="1"/>
        <pt x="770" y="342" on="1"/>
        <pt x="769" y="436" on="0"/>
        <pt x="759" y="461" on="1"/>
        <pt x="739" y="503" on="0"/>
        <pt x="670" y="503" on="1"/>
        <pt x="627" y="503" on="0"/>
        <pt x="576" y="485" on="0"/>
        <pt x="549" y="439" on="0"/>
        <pt x="541" y="385" on="0"/>
      </contour>
    </TTGlyph>
    <TTGlyph name="ograve" xMin="62" yMin="-13" xMax="536" yMax="813">
      <contour>
        <pt x="536" y="142" on="0"/>
        <pt x="428" y="-13" on="0"/>
        <pt x="171" y="-13" on="0"/>
        <pt x="62" y="142" on="0"/>
        <pt x="62" y="442" on="0"/>
        <pt x="171" y="598" on="0"/>
        <pt x="428" y="598" on="0"/>
        <pt x="536" y="442" on="0"/>
      </contour>
      <contour>
        <pt x="231" y="79" on="0"/>
        <pt x="369" y="79" on="0"/>
        <pt x="417" y="162" on="0"/>
        <pt x="417" y="423" on="0"/>
        <pt x="369" y="505" on="0"/>
        <pt x="231" y="505" on="0"/>
        <pt x="182" y="423" on="0"/>
        <pt x="182" y="162" on="0"/>
      </contour>
      <contour>
        <pt x="152" y="721" on="1"/>
        <pt x="184" y="813" on="1"/>
        <pt x="446" y="720" on="1"/>
        <pt x="424" y="652" on="1"/>
      </contour>
    </TTGlyph>
    <TTGlyph name="one" xMin="35" yMin="0" xMax="509" yMax="706">
      <contour>
        <pt x="73" y="0" on="1"/>
        <pt x="73" y="100" on="1"/>
        <pt x="243" y="98" on="1"/>
        <pt x="249" y="581" on="1"/>
        <pt x="244" y="581" on="1"/>
        <pt x="111" y="443" on="1"/>
        <pt x="35" y="519" on="1"/>
        <pt x="244" y="706" on="1"/>
        <pt x="360" y="698" on="1"/>
        <pt x="360" y="98" on="1"/>
        <pt x="509" y="100" on="1"/>
        <pt x="509" y="0" on="1"/>
      </contour>
    </TTGlyph>
    <TTGlyph name="onehalf" xMin="36" yMin="-9" xMax="905" yMax="733">
      <contour>
        <pt x="261" y="-9" on="1"/>
        <pt x="466" y="393" on="1"/>
        <pt x="623" y="733" on="1"/>
        <pt x="729" y="733" on="1"/>
        <pt x="538" y="347" on="1"/>
        <pt x="368" y="-9" on="1"/>
      </contour>
      <contour>
        <pt x="67" y="298" on="1"/>
        <pt x="67" y="378" on="1"/>
        <pt x="167" y="378" on="1"/>
        <pt x="167" y="611" on="1"/>
        <pt x="163" y="611" on="1"/>
        <pt x="82" y="547" on="1"/>
        <pt x="36" y="611" on="1"/>
        <pt x="176" y="707" on="1"/>
        <pt x="258" y="701" on="1"/>
        <pt x="258" y="378" on="1"/>
        <pt x="345" y="378" on="1"/>
        <pt x="345" y="298" on="1"/>
      </contour>
      <contour>
        <pt x="631" y="0" on="1"/>
        <pt x="631" y="63" on="1"/>
        <pt x="695" y="133" on="0"/>
        <pt x="733" y="179" on="1"/>
        <pt x="806" y="264" on="0"/>
        <pt x="806" y="329" on="0"/>
        <pt x="774" y="329" on="1"/>
        <pt x="723" y="329" on="0"/>
        <pt x="654" y="289" on="1"/>
        <pt x="620" y="363" on="1"/>
        <pt x="643" y="379" on="0"/>
        <pt x="728" y="410" on="0"/>
        <pt x="824" y="410" on="0"/>
        <pt x="895" y="351" on="0"/>
        <pt x="895" y="302" on="1"/>
        <pt x="895" y="231" on="0"/>
        <pt x="771" y="94" on="1"/>
        <pt x="757" y="78" on="1"/>
        <pt x="757" y="74" on="1"/>
        <pt x="905" y="80" on="1"/>
        <pt x="905" y="0" on="1"/>
      </contour>
    </TTGlyph>
    <TTGlyph name="onequarter" xMin="36" yMin="-9" xMax="899" yMax="733">
      <contour>
        <pt x="260" y="-9" on="1"/>
        <pt x="466" y="393" on="1"/>
        <pt x="623" y="733" on="1"/>
        <pt x="728" y="733" on="1"/>
        <pt x="538" y="347" on="1"/>
        <pt x="367" y="-9" on="1"/>
      </contour>
      <contour>
        <pt x="585" y="79" on="1"/>
        <pt x="585" y="136" on="1"/>
        <pt x="585" y="145" on="0"/>
        <pt x="587" y="151" on="1"/>
        <pt x="686" y="418" on="1"/>
        <pt x="767" y="409" on="1"/>
        <pt x="673" y="155" on="1"/>
        <pt x="773" y="158" on="1"/>
        <pt x="785" y="305" on="1"/>
        <pt x="859" y="305" on="1"/>
        <pt x="859" y="158" on="1"/>
        <pt x="899" y="159" on="1"/>
        <pt x="899" y="79" on="1"/>
        <pt x="859" y="79" on="1"/>
        <pt x="859" y="0" on="1"/>
        <pt x="771" y="0" on="1"/>
        <pt x="772" y="79" on="1"/>
      </contour>
      <contour>
        <pt x="67" y="298" on="1"/>
        <pt x="67" y="378" on="1"/>
        <pt x="167" y="378" on="1"/>
        <pt x="167" y="611" on="1"/>
        <pt x="163" y="611" on="1"/>
        <pt x="82" y="547" on="1"/>
        <pt x="36" y="611" on="1"/>
        <pt x="176" y="707" on="1"/>
        <pt x="258" y="701" on="1"/>
        <pt x="258" y="378" on="1"/>
        <pt x="345" y="378" on="1"/>
        <pt x="345" y="298" on="1"/>
      </contour>
    </TTGlyph>
    <TTGlyph name="onesuperior" xMin="36" yMin="298" xMax="345" yMax="707">
      <contour>
        <pt x="67" y="298" on="1"/>
        <pt x="67" y="378" on="1"/>
        <pt x="167" y="378" on="1"/>
        <pt x="167" y="611" on="1"/>
        <pt x="163" y="611" on="1"/>
        <pt x="82" y="547" on="1"/>
        <pt x="36" y="611" on="1"/>
        <pt x="176" y="707" on="1"/>
        <pt x="258" y="701" on="1"/>
        <pt x="258" y="378" on="1"/>
        <pt x="345" y="378" on="1"/>
        <pt x="345" y="298" on="1"/>
      </contour>
    </TTGlyph>
    <TTGlyph name="ordfeminine" xMin="42" yMin="289" xMax="364" yMax="707">
      <contour>
        <pt x="283" y="336" on="1"/>
        <pt x="214" y="289" on="0"/>
        <pt x="158" y="289" on="1"/>
        <pt x="42" y="289" on="0"/>
        <pt x="42" y="424" on="1"/>
        <pt x="42" y="489" on="0"/>
        <pt x="88" y="520" on="1"/>
        <pt x="123" y="544" on="0"/>
        <pt x="204" y="548" on="1"/>
        <pt x="231" y="550" on="0"/>
        <pt x="275" y="550" on="1"/>
        <pt x="275" y="599" on="0"/>
        <pt x="251" y="628" on="0"/>
        <pt x="216" y="628" on="1"/>
        <pt x="152" y="628" on="0"/>
        <pt x="95" y="606" on="1"/>
        <pt x="76" y="598" on="1"/>
        <pt x="55" y="673" on="1"/>
        <pt x="144" y="707" on="0"/>
        <pt x="218" y="707" on="1"/>
        <pt x="364" y="707" on="0"/>
        <pt x="364" y="557" on="1"/>
        <pt x="364" y="298" on="1"/>
        <pt x="301" y="298" on="1"/>
        <pt x="287" y="336" on="1"/>
      </contour>
      <contour>
        <pt x="275" y="474" on="1"/>
        <pt x="250" y="476" on="0"/>
        <pt x="162" y="476" on="0"/>
        <pt x="133" y="452" on="0"/>
        <pt x="133" y="393" on="0"/>
        <pt x="156" y="369" on="0"/>
        <pt x="178" y="369" on="1"/>
        <pt x="217" y="369" on="0"/>
        <pt x="275" y="397" on="1"/>
      </contour>
    </TTGlyph>
    <TTGlyph name="ordmasculine" xMin="16" yMin="289" xMax="356" yMax="707">
      <contour>
        <pt x="356" y="395" on="0"/>
        <pt x="279" y="289" on="0"/>
        <pt x="93" y="289" on="0"/>
        <pt x="16" y="395" on="0"/>
        <pt x="16" y="601" on="0"/>
        <pt x="93" y="707" on="0"/>
        <pt x="279" y="707" on="0"/>
        <pt x="356" y="601" on="0"/>
      </contour>
      <contour>
        <pt x="111" y="421" on="0"/>
        <pt x="143" y="371" on="0"/>
        <pt x="228" y="371" on="0"/>
        <pt x="261" y="421" on="0"/>
        <pt x="261" y="576" on="0"/>
        <pt x="228" y="626" on="0"/>
        <pt x="143" y="626" on="0"/>
        <pt x="111" y="576" on="0"/>
      </contour>
    </TTGlyph>
    <TTGlyph name="oslash" xMin="63" yMin="-38" xMax="536" yMax="627">
      <contour>
        <pt x="132" y="49" on="1"/>
        <pt x="63" y="121" on="0"/>
        <pt x="63" y="442" on="0"/>
        <pt x="172" y="598" on="0"/>
        <pt x="300" y="598" on="1"/>
        <pt x="349" y="598" on="0"/>
        <pt x="385" y="586" on="1"/>
        <pt x="404" y="627" on="1"/>
        <pt x="493" y="627" on="1"/>
        <pt x="455" y="549" on="1"/>
        <pt x="536" y="478" on="0"/>
        <pt x="536" y="292" on="1"/>
        <pt x="536" y="142" on="0"/>
        <pt x="428" y="-13" on="0"/>
        <pt x="300" y="-13" on="1"/>
        <pt x="243" y="-13" on="0"/>
        <pt x="199" y="6" on="1"/>
        <pt x="179" y="-38" on="1"/>
        <pt x="90" y="-38" on="1"/>
      </contour>
      <contour>
        <pt x="346" y="500" on="1"/>
        <pt x="330" y="505" on="0"/>
        <pt x="254" y="505" on="0"/>
        <pt x="206" y="473" on="0"/>
        <pt x="183" y="382" on="0"/>
        <pt x="183" y="208" on="0"/>
        <pt x="190" y="166" on="1"/>
        <pt x="266" y="324" on="1"/>
      </contour>
      <contour>
        <pt x="300" y="79" on="1"/>
        <pt x="369" y="79" on="0"/>
        <pt x="416" y="161" on="0"/>
        <pt x="416" y="393" on="0"/>
        <pt x="400" y="437" on="1"/>
        <pt x="239" y="91" on="1"/>
        <pt x="257" y="79" on="0"/>
      </contour>
    </TTGlyph>
    <TTGlyph name="otilde" xMin="62" yMin="-13" xMax="536" yMax="786">
      <contour>
        <pt x="536" y="142" on="0"/>
        <pt x="428" y="-13" on="0"/>
        <pt x="171" y="-13" on="0"/>
        <pt x="62" y="142" on="0"/>
        <pt x="62" y="442" on="0"/>
        <pt x="171" y="598" on="0"/>
        <pt x="428" y="598" on="0"/>
        <pt x="536" y="442" on="0"/>
      </contour>
      <contour>
        <pt x="231" y="79" on="0"/>
        <pt x="369" y="79" on="0"/>
        <pt x="417" y="162" on="0"/>
        <pt x="417" y="423" on="0"/>
        <pt x="369" y="505" on="0"/>
        <pt x="231" y="505" on="0"/>
        <pt x="182" y="423" on="0"/>
        <pt x="182" y="162" on="0"/>
      </contour>
      <contour>
        <pt x="196" y="786" on="1"/>
        <pt x="226" y="786" on="0"/>
        <pt x="386" y="743" on="0"/>
        <pt x="394" y="743" on="1"/>
        <pt x="407" y="743" on="0"/>
        <pt x="423" y="785" on="1"/>
        <pt x="486" y="776" on="1"/>
        <pt x="485" y="661" on="0"/>
        <pt x="404" y="661" on="1"/>
        <pt x="375" y="661" on="0"/>
        <pt x="212" y="706" on="0"/>
        <pt x="205" y="706" on="1"/>
        <pt x="191" y="706" on="0"/>
        <pt x="175" y="663" on="1"/>
        <pt x="112" y="671" on="1"/>
        <pt x="113" y="786" on="0"/>
      </contour>
    </TTGlyph>
    <TTGlyph name="p" xMin="82" yMin="-166" xMax="543" yMax="598">
      <contour>
        <pt x="82" y="-166" on="1"/>
        <pt x="82" y="585" on="1"/>
        <pt x="158" y="585" on="1"/>
        <pt x="172" y="525" on="1"/>
        <pt x="177" y="525" on="1"/>
        <pt x="179" y="526" on="0"/>
        <pt x="210" y="548" on="0"/>
        <pt x="227" y="559" on="0"/>
        <pt x="264" y="579" on="0"/>
        <pt x="279" y="584" on="1"/>
        <pt x="321" y="598" on="0"/>
        <pt x="356" y="598" on="1"/>
        <pt x="443" y="598" on="0"/>
        <pt x="543" y="453" on="0"/>
        <pt x="543" y="303" on="1"/>
        <pt x="543" y="-13" on="0"/>
        <pt x="315" y="-13" on="1"/>
        <pt x="272" y="-13" on="0"/>
        <pt x="198" y="-1" on="1"/>
        <pt x="198" y="-166" on="1"/>
      </contour>
      <contour>
        <pt x="198" y="102" on="1"/>
        <pt x="266" y="84" on="0"/>
        <pt x="362" y="84" on="0"/>
        <pt x="381" y="98" on="1"/>
        <pt x="423" y="131" on="0"/>
        <pt x="423" y="313" on="1"/>
        <pt x="423" y="380" on="0"/>
        <pt x="416" y="456" on="0"/>
        <pt x="393" y="490" on="0"/>
        <pt x="372" y="496" on="0"/>
        <pt x="317" y="496" on="0"/>
        <pt x="242" y="472" on="0"/>
        <pt x="198" y="449" on="1"/>
      </contour>
    </TTGlyph>
    <TTGlyph name="paragraph" xMin="41" yMin="-164" xMax="607" yMax="699">
      <contour>
        <pt x="263" y="-164" on="1"/>
        <pt x="263" y="184" on="1"/>
        <pt x="154" y="187" on="0"/>
        <pt x="41" y="305" on="0"/>
        <pt x="41" y="583" on="0"/>
        <pt x="162" y="699" on="0"/>
        <pt x="279" y="699" on="1"/>
        <pt x="607" y="699" on="1"/>
        <pt x="607" y="-164" on="1"/>
        <pt x="491" y="-164" on="1"/>
        <pt x="491" y="598" on="1"/>
        <pt x="379" y="598" on="1"/>
        <pt x="379" y="-164" on="1"/>
      </contour>
    </TTGlyph>
    <TTGlyph name="parenleft" xMin="61" yMin="-124" xMax="312" yMax="796">
      <contour>
        <pt x="61" y="336" on="1"/>
        <pt x="61" y="682" on="0"/>
        <pt x="262" y="796" on="1"/>
        <pt x="312" y="728" on="1"/>
        <pt x="179" y="641" on="0"/>
        <pt x="179" y="33" on="0"/>
        <pt x="312" y="-56" on="1"/>
        <pt x="262" y="-124" on="1"/>
        <pt x="173" y="-74" on="0"/>
        <pt x="61" y="149" on="0"/>
      </contour>
    </TTGlyph>
    <TTGlyph name="parenright" xMin="23" yMin="-124" xMax="274" yMax="796">
      <contour>
        <pt x="23" y="-56" on="1"/>
        <pt x="156" y="33" on="0"/>
        <pt x="156" y="641" on="0"/>
        <pt x="23" y="728" on="1"/>
        <pt x="74" y="796" on="1"/>
        <pt x="274" y="681" on="0"/>
        <pt x="274" y="-9" on="0"/>
        <pt x="74" y="-124" on="1"/>
      </contour>
    </TTGlyph>
    <TTGlyph name="percent" xMin="45" yMin="-13" xMax="767" yMax="733">
      <contour>
        <pt x="170" y="-9" on="1"/>
        <pt x="374" y="393" on="1"/>
        <pt x="531" y="733" on="1"/>
        <pt x="633" y="733" on="1"/>
        <pt x="443" y="347" on="1"/>
        <pt x="273" y="-9" on="1"/>
      </contour>
      <contour>
        <pt x="270" y="399" on="0"/>
        <pt x="138" y="399" on="0"/>
        <pt x="45" y="478" on="0"/>
        <pt x="45" y="640" on="0"/>
        <pt x="137" y="717" on="0"/>
        <pt x="271" y="717" on="0"/>
        <pt x="363" y="640" on="0"/>
        <pt x="363" y="478" on="0"/>
      </contour>
      <contour>
        <pt x="675" y="-13" on="0"/>
        <pt x="541" y="-13" on="0"/>
        <pt x="449" y="65" on="0"/>
        <pt x="449" y="228" on="0"/>
        <pt x="541" y="305" on="0"/>
        <pt x="675" y="305" on="0"/>
        <pt x="767" y="228" on="0"/>
        <pt x="767" y="65" on="0"/>
      </contour>
      <contour>
        <pt x="137" y="488" on="0"/>
        <pt x="272" y="488" on="0"/>
        <pt x="272" y="628" on="0"/>
        <pt x="137" y="628" on="0"/>
      </contour>
      <contour>
        <pt x="541" y="76" on="0"/>
        <pt x="675" y="76" on="0"/>
        <pt x="675" y="216" on="0"/>
        <pt x="541" y="216" on="0"/>
      </contour>
    </TTGlyph>
    <TTGlyph name="period" xMin="68" yMin="0" xMax="206" yMax="112">
      <contour>
        <pt x="68" y="0" on="1"/>
        <pt x="68" y="112" on="1"/>
        <pt x="206" y="112" on="1"/>
        <pt x="206" y="0" on="1"/>
      </contour>
    </TTGlyph>
    <TTGlyph name="periodcentered" xMin="88" yMin="268" xMax="242" yMax="421">
      <contour>
        <pt x="134" y="268" on="0"/>
        <pt x="88" y="306" on="0"/>
        <pt x="88" y="386" on="0"/>
        <pt x="133" y="421" on="0"/>
        <pt x="165" y="421" on="1"/>
        <pt x="242" y="421" on="0"/>
        <pt x="242" y="345" on="1"/>
        <pt x="242" y="306" on="0"/>
        <pt x="197" y="268" on="0"/>
      </contour>
    </TTGlyph>
    <TTGlyph name="plus" xMin="44" yMin="19" xMax="585" yMax="564">
      <contour>
        <pt x="264" y="19" on="1"/>
        <pt x="264" y="243" on="1"/>
        <pt x="44" y="243" on="1"/>
        <pt x="44" y="342" on="1"/>
        <pt x="264" y="342" on="1"/>
        <pt x="264" y="564" on="1"/>
        <pt x="365" y="564" on="1"/>
        <pt x="365" y="342" on="1"/>
        <pt x="585" y="342" on="1"/>
        <pt x="585" y="243" on="1"/>
        <pt x="365" y="243" on="1"/>
        <pt x="365" y="19" on="1"/>
      </contour>
    </TTGlyph>
    <TTGlyph name="plusminus" xMin="44" yMin="9" xMax="535" yMax="577">
      <contour>
        <pt x="44" y="9" on="1"/>
        <pt x="44" y="108" on="1"/>
        <pt x="535" y="108" on="1"/>
        <pt x="535" y="9" on="1"/>
      </contour>
      <contour>
        <pt x="44" y="327" on="1"/>
        <pt x="44" y="425" on="1"/>
        <pt x="239" y="425" on="1"/>
        <pt x="239" y="577" on="1"/>
        <pt x="340" y="577" on="1"/>
        <pt x="340" y="425" on="1"/>
        <pt x="535" y="425" on="1"/>
        <pt x="535" y="327" on="1"/>
        <pt x="340" y="327" on="1"/>
        <pt x="340" y="169" on="1"/>
        <pt x="239" y="169" on="1"/>
        <pt x="239" y="327" on="1"/>
      </contour>
    </TTGlyph>
    <TTGlyph name="q" xMin="62" yMin="-166" xMax="518" yMax="598">
      <contour>
        <pt x="402" y="-166" on="1"/>
        <pt x="402" y="15" on="1"/>
        <pt x="337" y="-13" on="0"/>
        <pt x="228" y="-13" on="0"/>
        <pt x="159" y="16" on="0"/>
        <pt x="128" y="49" on="1"/>
        <pt x="62" y="119" on="0"/>
        <pt x="62" y="464" on="0"/>
        <pt x="175" y="598" on="0"/>
        <pt x="291" y="598" on="1"/>
        <pt x="337" y="598" on="0"/>
        <pt x="450" y="580" on="0"/>
        <pt x="518" y="562" on="1"/>
        <pt x="518" y="-166" on="1"/>
      </contour>
      <contour>
        <pt x="402" y="487" on="1"/>
        <pt x="346" y="501" on="0"/>
        <pt x="229" y="501" on="0"/>
        <pt x="211" y="483" on="1"/>
        <pt x="182" y="449" on="0"/>
        <pt x="182" y="302" on="1"/>
        <pt x="182" y="130" on="0"/>
        <pt x="217" y="101" on="1"/>
        <pt x="235" y="86" on="0"/>
        <pt x="268" y="86" on="1"/>
        <pt x="330" y="86" on="0"/>
        <pt x="402" y="110" on="1"/>
      </contour>
    </TTGlyph>
    <TTGlyph name="question" xMin="23" yMin="0" xMax="458" yMax="712">
      <contour>
        <pt x="62" y="559" on="1"/>
        <pt x="23" y="649" on="1"/>
        <pt x="35" y="656" on="0"/>
        <pt x="75" y="677" on="0"/>
        <pt x="189" y="712" on="0"/>
        <pt x="240" y="712" on="1"/>
        <pt x="336" y="712" on="0"/>
        <pt x="458" y="605" on="0"/>
        <pt x="458" y="522" on="1"/>
        <pt x="458" y="446" on="0"/>
        <pt x="415" y="399" on="1"/>
        <pt x="392" y="374" on="0"/>
        <pt x="361" y="348" on="0"/>
        <pt x="300" y="305" on="0"/>
        <pt x="271" y="279" on="0"/>
        <pt x="243" y="228" on="0"/>
        <pt x="242" y="196" on="1"/>
        <pt x="139" y="196" on="1"/>
        <pt x="139" y="201" on="0"/>
        <pt x="139" y="206" on="1"/>
        <pt x="139" y="258" on="0"/>
        <pt x="177" y="339" on="0"/>
        <pt x="236" y="387" on="0"/>
        <pt x="266" y="408" on="1"/>
        <pt x="338" y="458" on="0"/>
        <pt x="338" y="527" on="1"/>
        <pt x="338" y="607" on="0"/>
        <pt x="249" y="607" on="1"/>
        <pt x="212" y="607" on="0"/>
        <pt x="119" y="583" on="0"/>
      </contour>
      <contour>
        <pt x="124" y="0" on="1"/>
        <pt x="124" y="109" on="1"/>
        <pt x="261" y="109" on="1"/>
        <pt x="261" y="0" on="1"/>
      </contour>
    </TTGlyph>
    <TTGlyph name="questiondown" xMin="22" yMin="-126" xMax="458" yMax="585">
      <contour>
        <pt x="419" y="27" on="1"/>
        <pt x="432" y="1" on="0"/>
        <pt x="458" y="-64" on="1"/>
        <pt x="446" y="-71" on="0"/>
        <pt x="406" y="-92" on="0"/>
        <pt x="291" y="-126" on="0"/>
        <pt x="241" y="-126" on="1"/>
        <pt x="145" y="-126" on="0"/>
        <pt x="22" y="-20" on="0"/>
        <pt x="22" y="63" on="1"/>
        <pt x="22" y="147" on="0"/>
        <pt x="81" y="203" on="1"/>
        <pt x="109" y="230" on="0"/>
        <pt x="180" y="280" on="0"/>
        <pt x="210" y="306" on="0"/>
        <pt x="237" y="357" on="0"/>
        <pt x="239" y="389" on="1"/>
        <pt x="342" y="389" on="1"/>
        <pt x="342" y="384" on="0"/>
        <pt x="342" y="379" on="1"/>
        <pt x="342" y="327" on="0"/>
        <pt x="304" y="246" on="0"/>
        <pt x="245" y="198" on="0"/>
        <pt x="215" y="177" on="1"/>
        <pt x="143" y="127" on="0"/>
        <pt x="143" y="59" on="1"/>
        <pt x="143" y="11" on="0"/>
        <pt x="175" y="-10" on="1"/>
        <pt x="193" y="-22" on="0"/>
        <pt x="269" y="-22" on="0"/>
        <pt x="362" y="2" on="0"/>
      </contour>
      <contour>
        <pt x="221" y="476" on="1"/>
        <pt x="221" y="585" on="1"/>
        <pt x="359" y="585" on="1"/>
        <pt x="359" y="476" on="1"/>
      </contour>
    </TTGlyph>
    <TTGlyph name="quotedbl" xMin="48" yMin="464" xMax="327" yMax="721">
      <contour>
        <pt x="150" y="721" on="1"/>
        <pt x="150" y="688" on="1"/>
        <pt x="133" y="464" on="1"/>
        <pt x="64" y="464" on="1"/>
        <pt x="48" y="721" on="1"/>
      </contour>
      <contour>
        <pt x="327" y="721" on="1"/>
        <pt x="327" y="688" on="1"/>
        <pt x="309" y="464" on="1"/>
        <pt x="240" y="464" on="1"/>
        <pt x="225" y="671" on="1"/>
        <pt x="224" y="721" on="1"/>
      </contour>
    </TTGlyph>
    <TTGlyph name="quotedblbase" xMin="54" yMin="-140" xMax="362" yMax="132">
      <contour>
        <pt x="110" y="-138" on="1"/>
        <pt x="54" y="-101" on="1"/>
        <pt x="82" y="-60" on="0"/>
        <pt x="82" y="11" on="1"/>
        <pt x="76" y="132" on="1"/>
        <pt x="177" y="132" on="1"/>
        <pt x="182" y="97" on="0"/>
        <pt x="182" y="61" on="1"/>
        <pt x="181" y="-73" on="0"/>
      </contour>
      <contour>
        <pt x="362" y="60" on="1"/>
        <pt x="362" y="-75" on="0"/>
        <pt x="291" y="-140" on="1"/>
        <pt x="235" y="-102" on="1"/>
        <pt x="263" y="-61" on="0"/>
        <pt x="263" y="10" on="1"/>
        <pt x="257" y="132" on="1"/>
        <pt x="358" y="132" on="1"/>
        <pt x="362" y="104" on="0"/>
      </contour>
    </TTGlyph>
    <TTGlyph name="quotedblleft" xMin="52" yMin="465" xMax="359" yMax="738">
      <contour>
        <pt x="338" y="465" on="1"/>
        <pt x="235" y="465" on="1"/>
        <pt x="231" y="493" on="0"/>
        <pt x="231" y="534" on="1"/>
        <pt x="232" y="656" on="0"/>
        <pt x="305" y="729" on="1"/>
        <pt x="359" y="694" on="1"/>
        <pt x="332" y="652" on="0"/>
        <pt x="332" y="583" on="1"/>
      </contour>
      <contour>
        <pt x="52" y="535" on="1"/>
        <pt x="52" y="668" on="0"/>
        <pt x="124" y="738" on="1"/>
        <pt x="180" y="700" on="1"/>
        <pt x="152" y="655" on="0"/>
        <pt x="152" y="584" on="1"/>
        <pt x="158" y="465" on="1"/>
        <pt x="56" y="465" on="1"/>
        <pt x="52" y="493" on="0"/>
      </contour>
    </TTGlyph>
    <TTGlyph name="quotedblright" xMin="52" yMin="448" xMax="360" yMax="722">
      <contour>
        <pt x="180" y="653" on="1"/>
        <pt x="180" y="531" on="0"/>
        <pt x="106" y="457" on="1"/>
        <pt x="52" y="493" on="1"/>
        <pt x="79" y="533" on="0"/>
        <pt x="79" y="604" on="1"/>
        <pt x="73" y="722" on="1"/>
        <pt x="176" y="722" on="1"/>
        <pt x="180" y="694" on="0"/>
      </contour>
      <contour>
        <pt x="360" y="651" on="1"/>
        <pt x="360" y="518" on="0"/>
        <pt x="288" y="448" on="1"/>
        <pt x="232" y="487" on="1"/>
        <pt x="260" y="531" on="0"/>
        <pt x="260" y="602" on="1"/>
        <pt x="253" y="722" on="1"/>
        <pt x="356" y="722" on="1"/>
        <pt x="360" y="684" on="0"/>
      </contour>
    </TTGlyph>
    <TTGlyph name="quoteleft" xMin="55" yMin="465" xMax="183" yMax="736">
      <contour>
        <pt x="55" y="535" on="1"/>
        <pt x="55" y="666" on="0"/>
        <pt x="127" y="736" on="1"/>
        <pt x="183" y="698" on="1"/>
        <pt x="155" y="653" on="0"/>
        <pt x="155" y="584" on="1"/>
        <pt x="161" y="465" on="1"/>
        <pt x="59" y="465" on="1"/>
        <pt x="55" y="493" on="0"/>
      </contour>
    </TTGlyph>
    <TTGlyph name="quoteright" xMin="55" yMin="450" xMax="183" yMax="722">
      <contour>
        <pt x="183" y="651" on="1"/>
        <pt x="183" y="520" on="0"/>
        <pt x="111" y="450" on="1"/>
        <pt x="55" y="489" on="1"/>
        <pt x="83" y="533" on="0"/>
        <pt x="83" y="602" on="1"/>
        <pt x="76" y="722" on="1"/>
        <pt x="179" y="722" on="1"/>
        <pt x="183" y="684" on="0"/>
      </contour>
    </TTGlyph>
    <TTGlyph name="quotesinglbase" xMin="56" yMin="-138" xMax="184" yMax="133">
      <contour>
        <pt x="112" y="-138" on="1"/>
        <pt x="56" y="-100" on="1"/>
        <pt x="84" y="-57" on="0"/>
        <pt x="84" y="13" on="1"/>
        <pt x="78" y="133" on="1"/>
        <pt x="179" y="133" on="1"/>
        <pt x="184" y="98" on="0"/>
        <pt x="184" y="62" on="1"/>
        <pt x="183" y="-71" on="0"/>
      </contour>
    </TTGlyph>
    <TTGlyph name="quotesingle" xMin="53" yMin="466" xMax="155" yMax="723">
      <contour>
        <pt x="155" y="723" on="1"/>
        <pt x="155" y="689" on="1"/>
        <pt x="138" y="466" on="1"/>
        <pt x="68" y="466" on="1"/>
        <pt x="54" y="675" on="1"/>
        <pt x="53" y="723" on="1"/>
      </contour>
    </TTGlyph>
    <TTGlyph name="r" xMin="93" yMin="0" xMax="400" yMax="598">
      <contour>
        <pt x="318" y="598" on="0"/>
        <pt x="376" y="598" on="0"/>
        <pt x="400" y="590" on="1"/>
        <pt x="391" y="486" on="1"/>
        <pt x="366" y="488" on="0"/>
        <pt x="346" y="488" on="1"/>
        <pt x="271" y="488" on="0"/>
        <pt x="209" y="444" on="1"/>
        <pt x="209" y="0" on="1"/>
        <pt x="93" y="0" on="1"/>
        <pt x="93" y="585" on="1"/>
        <pt x="166" y="585" on="1"/>
        <pt x="175" y="538" on="0"/>
        <pt x="181" y="524" on="1"/>
        <pt x="187" y="524" on="1"/>
        <pt x="223" y="553" on="0"/>
      </contour>
    </TTGlyph>
    <TTGlyph name="rcaron" xMin="62" yMin="0" xMax="407" yMax="814">
      <contour>
        <pt x="318" y="598" on="0"/>
        <pt x="376" y="598" on="0"/>
        <pt x="400" y="590" on="1"/>
        <pt x="391" y="486" on="1"/>
        <pt x="366" y="488" on="0"/>
        <pt x="346" y="488" on="1"/>
        <pt x="271" y="488" on="0"/>
        <pt x="209" y="444" on="1"/>
        <pt x="209" y="0" on="1"/>
        <pt x="93" y="0" on="1"/>
        <pt x="93" y="585" on="1"/>
        <pt x="166" y="585" on="1"/>
        <pt x="175" y="538" on="0"/>
        <pt x="181" y="524" on="1"/>
        <pt x="187" y="524" on="1"/>
        <pt x="223" y="553" on="0"/>
      </contour>
      <contour>
        <pt x="62" y="768" on="1"/>
        <pt x="93" y="814" on="1"/>
        <pt x="231" y="746" on="1"/>
        <pt x="238" y="746" on="1"/>
        <pt x="376" y="814" on="1"/>
        <pt x="407" y="768" on="1"/>
        <pt x="265" y="661" on="1"/>
        <pt x="204" y="661" on="1"/>
      </contour>
    </TTGlyph>
    <TTGlyph name="rcommaaccent" xMin="60" yMin="-261" xMax="400" yMax="598">
      <contour>
        <pt x="98" y="-126" on="1"/>
        <pt x="98" y="-55" on="1"/>
        <pt x="203" y="-55" on="1"/>
        <pt x="203" y="-65" on="1"/>
        <pt x="203" y="-207" on="0"/>
        <pt x="102" y="-261" on="1"/>
        <pt x="60" y="-224" on="1"/>
        <pt x="81" y="-206" on="0"/>
        <pt x="98" y="-163" on="0"/>
      </contour>
      <contour>
        <pt x="318" y="598" on="0"/>
        <pt x="376" y="598" on="0"/>
        <pt x="400" y="590" on="1"/>
        <pt x="391" y="486" on="1"/>
        <pt x="366" y="488" on="0"/>
        <pt x="346" y="488" on="1"/>
        <pt x="271" y="488" on="0"/>
        <pt x="209" y="444" on="1"/>
        <pt x="209" y="0" on="1"/>
        <pt x="93" y="0" on="1"/>
        <pt x="93" y="585" on="1"/>
        <pt x="166" y="585" on="1"/>
        <pt x="181" y="524" on="1"/>
        <pt x="187" y="524" on="1"/>
        <pt x="223" y="553" on="0"/>
      </contour>
    </TTGlyph>
    <TTGlyph name="registered" xMin="64" yMin="-37" xMax="774" yMax="679">
      <contour>
        <pt x="774" y="165" on="0"/>
        <pt x="574" y="-37" on="0"/>
        <pt x="263" y="-37" on="0"/>
        <pt x="64" y="165" on="0"/>
        <pt x="64" y="475" on="0"/>
        <pt x="269" y="679" on="0"/>
        <pt x="574" y="679" on="0"/>
        <pt x="774" y="477" on="0"/>
      </contour>
      <contour>
        <pt x="145" y="191" on="0"/>
        <pt x="290" y="42" on="0"/>
        <pt x="547" y="42" on="0"/>
        <pt x="693" y="192" on="0"/>
        <pt x="693" y="450" on="0"/>
        <pt x="547" y="600" on="0"/>
        <pt x="295" y="600" on="0"/>
        <pt x="145" y="449" on="0"/>
      </contour>
      <contour>
        <pt x="414" y="261" on="1"/>
        <pt x="361" y="262" on="1"/>
        <pt x="361" y="119" on="1"/>
        <pt x="269" y="119" on="1"/>
        <pt x="272" y="310" on="1"/>
        <pt x="270" y="523" on="1"/>
        <pt x="354" y="531" on="0"/>
        <pt x="425" y="531" on="1"/>
        <pt x="576" y="531" on="0"/>
        <pt x="576" y="399" on="1"/>
        <pt x="576" y="347" on="0"/>
        <pt x="533" y="283" on="0"/>
        <pt x="500" y="271" on="1"/>
        <pt x="500" y="268" on="1"/>
        <pt x="580" y="119" on="1"/>
        <pt x="474" y="119" on="1"/>
      </contour>
      <contour>
        <pt x="427" y="453" on="1"/>
        <pt x="362" y="449" on="1"/>
        <pt x="361" y="342" on="1"/>
        <pt x="391" y="339" on="0"/>
        <pt x="457" y="339" on="0"/>
        <pt x="479" y="366" on="0"/>
        <pt x="479" y="429" on="0"/>
        <pt x="457" y="453" on="0"/>
      </contour>
    </TTGlyph>
    <TTGlyph name="ring" xMin="22" yMin="642" xMax="209" yMax="821">
      <contour>
        <pt x="22" y="731" on="1"/>
        <pt x="22" y="821" on="0"/>
        <pt x="209" y="821" on="0"/>
        <pt x="209" y="731" on="1"/>
        <pt x="209" y="683" on="0"/>
        <pt x="156" y="642" on="0"/>
        <pt x="76" y="642" on="0"/>
        <pt x="22" y="683" on="0"/>
      </contour>
      <contour>
        <pt x="95" y="768" on="0"/>
        <pt x="78" y="753" on="0"/>
        <pt x="78" y="710" on="0"/>
        <pt x="96" y="694" on="0"/>
        <pt x="135" y="694" on="0"/>
        <pt x="152" y="710" on="0"/>
        <pt x="152" y="753" on="0"/>
        <pt x="136" y="768" on="0"/>
      </contour>
    </TTGlyph>
    <TTGlyph name="ring.cap" xMin="48" yMin="727" xMax="236" yMax="903">
      <contour>
        <pt x="102" y="727" on="0"/>
        <pt x="48" y="768" on="0"/>
        <pt x="48" y="862" on="0"/>
        <pt x="102" y="903" on="0"/>
        <pt x="183" y="903" on="0"/>
        <pt x="236" y="862" on="0"/>
        <pt x="236" y="768" on="0"/>
        <pt x="182" y="727" on="0"/>
      </contour>
      <contour>
        <pt x="123" y="848" on="0"/>
        <pt x="106" y="835" on="0"/>
        <pt x="106" y="795" on="0"/>
        <pt x="123" y="781" on="0"/>
        <pt x="162" y="781" on="0"/>
        <pt x="177" y="794" on="0"/>
        <pt x="177" y="835" on="0"/>
        <pt x="162" y="848" on="0"/>
      </contour>
    </TTGlyph>
    <TTGlyph name="s" xMin="47" yMin="-13" xMax="462" yMax="598">
      <contour>
        <pt x="270" y="83" on="1"/>
        <pt x="309" y="83" on="0"/>
        <pt x="349" y="119" on="0"/>
        <pt x="349" y="199" on="0"/>
        <pt x="297" y="234" on="0"/>
        <pt x="227" y="255" on="0"/>
        <pt x="219" y="258" on="0"/>
        <pt x="181" y="270" on="0"/>
        <pt x="147" y="282" on="0"/>
        <pt x="94" y="310" on="0"/>
        <pt x="82" y="326" on="1"/>
        <pt x="49" y="366" on="0"/>
        <pt x="49" y="426" on="1"/>
        <pt x="49" y="505" on="0"/>
        <pt x="150" y="598" on="0"/>
        <pt x="343" y="598" on="0"/>
        <pt x="436" y="566" on="1"/>
        <pt x="418" y="474" on="1"/>
        <pt x="314" y="499" on="0"/>
        <pt x="189" y="499" on="0"/>
        <pt x="160" y="466" on="0"/>
        <pt x="160" y="406" on="0"/>
        <pt x="217" y="369" on="0"/>
        <pt x="322" y="338" on="0"/>
        <pt x="344" y="331" on="0"/>
        <pt x="390" y="314" on="0"/>
        <pt x="409" y="300" on="0"/>
        <pt x="439" y="275" on="0"/>
        <pt x="446" y="260" on="1"/>
        <pt x="462" y="224" on="0"/>
        <pt x="462" y="180" on="1"/>
        <pt x="462" y="92" on="0"/>
        <pt x="357" y="-13" on="0"/>
        <pt x="261" y="-13" on="1"/>
        <pt x="213" y="-13" on="0"/>
        <pt x="106" y="13" on="0"/>
        <pt x="47" y="39" on="1"/>
        <pt x="75" y="133" on="1"/>
        <pt x="192" y="83" on="0"/>
      </contour>
    </TTGlyph>
    <TTGlyph name="section" xMin="50" yMin="-93" xMax="504" yMax="711">
      <contour>
        <pt x="279" y="6" on="1"/>
        <pt x="323" y="6" on="0"/>
        <pt x="339" y="18" on="1"/>
        <pt x="359" y="32" on="0"/>
        <pt x="359" y="75" on="1"/>
        <pt x="359" y="114" on="0"/>
        <pt x="313" y="135" on="1"/>
        <pt x="278" y="151" on="0"/>
        <pt x="192" y="174" on="0"/>
        <pt x="109" y="206" on="0"/>
        <pt x="52" y="274" on="0"/>
        <pt x="52" y="326" on="1"/>
        <pt x="52" y="401" on="0"/>
        <pt x="115" y="448" on="1"/>
        <pt x="73" y="487" on="0"/>
        <pt x="73" y="625" on="0"/>
        <pt x="179" y="711" on="0"/>
        <pt x="367" y="711" on="0"/>
        <pt x="442" y="685" on="1"/>
        <pt x="423" y="589" on="1"/>
        <pt x="339" y="614" on="0"/>
        <pt x="259" y="614" on="1"/>
        <pt x="221" y="614" on="0"/>
        <pt x="184" y="589" on="0"/>
        <pt x="184" y="522" on="0"/>
        <pt x="250" y="480" on="0"/>
        <pt x="344" y="455" on="0"/>
        <pt x="438" y="424" on="0"/>
        <pt x="504" y="356" on="0"/>
        <pt x="504" y="305" on="1"/>
        <pt x="504" y="236" on="0"/>
        <pt x="439" y="181" on="1"/>
        <pt x="472" y="144" on="0"/>
        <pt x="472" y="85" on="1"/>
        <pt x="472" y="1" on="0"/>
        <pt x="353" y="-93" on="0"/>
        <pt x="265" y="-93" on="1"/>
        <pt x="214" y="-93" on="0"/>
        <pt x="106" y="-66" on="0"/>
        <pt x="78" y="-52" on="1"/>
        <pt x="50" y="-39" on="1"/>
        <pt x="81" y="57" on="1"/>
        <pt x="194" y="6" on="0"/>
      </contour>
      <contour>
        <pt x="359" y="230" on="1"/>
        <pt x="393" y="264" on="0"/>
        <pt x="393" y="317" on="0"/>
        <pt x="348" y="346" on="0"/>
        <pt x="282" y="366" on="0"/>
        <pt x="258" y="374" on="1"/>
        <pt x="214" y="387" on="0"/>
        <pt x="193" y="396" on="1"/>
        <pt x="163" y="368" on="0"/>
        <pt x="163" y="330" on="1"/>
        <pt x="163" y="299" on="0"/>
        <pt x="199" y="283" on="1"/>
        <pt x="221" y="273" on="0"/>
        <pt x="331" y="240" on="0"/>
      </contour>
    </TTGlyph>
    <TTGlyph name="semicolon" xMin="79" yMin="-170" xMax="238" yMax="553">
      <contour>
        <pt x="111" y="-20" on="1"/>
        <pt x="111" y="106" on="1"/>
        <pt x="226" y="106" on="1"/>
        <pt x="226" y="52" on="1"/>
        <pt x="226" y="-104" on="0"/>
        <pt x="142" y="-170" on="1"/>
        <pt x="79" y="-134" on="1"/>
        <pt x="111" y="-93" on="0"/>
      </contour>
      <contour>
        <pt x="100" y="441" on="1"/>
        <pt x="100" y="553" on="1"/>
        <pt x="238" y="553" on="1"/>
        <pt x="238" y="441" on="1"/>
      </contour>
    </TTGlyph>
    <TTGlyph name="seven" xMin="27" yMin="-8" xMax="488" yMax="699">
      <contour>
        <pt x="27" y="699" on="1"/>
        <pt x="488" y="699" on="1"/>
        <pt x="488" y="627" on="1"/>
        <pt x="196" y="-8" on="1"/>
        <pt x="73" y="2" on="1"/>
        <pt x="365" y="598" on="1"/>
        <pt x="365" y="604" on="1"/>
        <pt x="27" y="597" on="1"/>
      </contour>
    </TTGlyph>
    <TTGlyph name="six" xMin="52" yMin="-13" xMax="522" yMax="712">
      <contour>
        <pt x="464" y="588" on="1"/>
        <pt x="378" y="609" on="0"/>
        <pt x="243" y="609" on="0"/>
        <pt x="184" y="537" on="0"/>
        <pt x="176" y="425" on="1"/>
        <pt x="227" y="430" on="0"/>
        <pt x="267" y="430" on="1"/>
        <pt x="391" y="430" on="0"/>
        <pt x="522" y="331" on="0"/>
        <pt x="522" y="107" on="0"/>
        <pt x="400" y="-13" on="0"/>
        <pt x="175" y="-13" on="0"/>
        <pt x="52" y="147" on="0"/>
        <pt x="52" y="332" on="1"/>
        <pt x="52" y="553" on="0"/>
        <pt x="135" y="638" on="1"/>
        <pt x="175" y="678" on="0"/>
        <pt x="269" y="712" on="0"/>
        <pt x="320" y="712" on="1"/>
        <pt x="410" y="712" on="0"/>
        <pt x="470" y="690" on="1"/>
        <pt x="490" y="682" on="1"/>
      </contour>
      <contour>
        <pt x="173" y="254" on="1"/>
        <pt x="173" y="142" on="0"/>
        <pt x="210" y="108" on="1"/>
        <pt x="238" y="85" on="0"/>
        <pt x="360" y="85" on="0"/>
        <pt x="407" y="143" on="0"/>
        <pt x="407" y="282" on="0"/>
        <pt x="359" y="331" on="0"/>
        <pt x="288" y="331" on="1"/>
        <pt x="239" y="331" on="0"/>
        <pt x="173" y="321" on="1"/>
      </contour>
    </TTGlyph>
    <TTGlyph name="slash" xMin="-4" yMin="-98" xMax="447" yMax="699">
      <contour>
        <pt x="-4" y="-98" on="1"/>
        <pt x="180" y="325" on="1"/>
        <pt x="333" y="699" on="1"/>
        <pt x="447" y="699" on="1"/>
        <pt x="268" y="285" on="1"/>
        <pt x="110" y="-98" on="1"/>
      </contour>
    </TTGlyph>
    <TTGlyph name="sterling" xMin="64" yMin="0" xMax="534" yMax="712">
      <contour>
        <pt x="64" y="0" on="1"/>
        <pt x="64" y="100" on="1"/>
        <pt x="154" y="100" on="1"/>
        <pt x="154" y="337" on="1"/>
        <pt x="64" y="337" on="1"/>
        <pt x="64" y="424" on="1"/>
        <pt x="155" y="424" on="1"/>
        <pt x="161" y="583" on="0"/>
        <pt x="288" y="712" on="0"/>
        <pt x="396" y="712" on="1"/>
        <pt x="462" y="712" on="0"/>
        <pt x="534" y="692" on="1"/>
        <pt x="522" y="598" on="1"/>
        <pt x="422" y="612" on="0"/>
        <pt x="385" y="612" on="1"/>
        <pt x="318" y="612" on="0"/>
        <pt x="274" y="543" on="0"/>
        <pt x="271" y="424" on="1"/>
        <pt x="454" y="424" on="1"/>
        <pt x="454" y="337" on="1"/>
        <pt x="270" y="337" on="1"/>
        <pt x="270" y="101" on="1"/>
        <pt x="519" y="103" on="1"/>
        <pt x="519" y="0" on="1"/>
      </contour>
    </TTGlyph>
    <TTGlyph name="t" xMin="37" yMin="-11" xMax="338" yMax="689">
      <contour>
        <pt x="104" y="190" on="1"/>
        <pt x="104" y="465" on="1"/>
        <pt x="37" y="465" on="1"/>
        <pt x="37" y="537" on="1"/>
        <pt x="109" y="551" on="1"/>
        <pt x="132" y="689" on="1"/>
        <pt x="221" y="689" on="1"/>
        <pt x="221" y="553" on="1"/>
        <pt x="338" y="553" on="1"/>
        <pt x="338" y="463" on="1"/>
        <pt x="220" y="463" on="1"/>
        <pt x="220" y="185" on="1"/>
        <pt x="220" y="118" on="0"/>
        <pt x="237" y="87" on="0"/>
        <pt x="273" y="87" on="1"/>
        <pt x="337" y="90" on="1"/>
        <pt x="337" y="-3" on="1"/>
        <pt x="303" y="-11" on="0"/>
        <pt x="258" y="-11" on="1"/>
        <pt x="179" y="-11" on="0"/>
        <pt x="104" y="72" on="0"/>
      </contour>
    </TTGlyph>
    <TTGlyph name="thorn" xMin="96" yMin="-166" xMax="550" yMax="757">
      <contour>
        <pt x="211" y="97" on="1"/>
        <pt x="288" y="83" on="0"/>
        <pt x="372" y="83" on="0"/>
        <pt x="389" y="98" on="1"/>
        <pt x="431" y="133" on="0"/>
        <pt x="431" y="306" on="1"/>
        <pt x="431" y="410" on="0"/>
        <pt x="418" y="457" on="0"/>
        <pt x="414" y="477" on="0"/>
        <pt x="400" y="490" on="0"/>
        <pt x="394" y="497" on="0"/>
        <pt x="375" y="500" on="0"/>
        <pt x="367" y="501" on="0"/>
        <pt x="343" y="500" on="0"/>
        <pt x="326" y="500" on="1"/>
        <pt x="283" y="500" on="0"/>
        <pt x="211" y="480" on="1"/>
      </contour>
      <contour>
        <pt x="96" y="-166" on="1"/>
        <pt x="96" y="757" on="1"/>
        <pt x="211" y="757" on="1"/>
        <pt x="211" y="579" on="1"/>
        <pt x="296" y="598" on="0"/>
        <pt x="351" y="598" on="1"/>
        <pt x="450" y="598" on="0"/>
        <pt x="550" y="453" on="0"/>
        <pt x="550" y="297" on="1"/>
        <pt x="550" y="-13" on="0"/>
        <pt x="328" y="-13" on="1"/>
        <pt x="293" y="-13" on="0"/>
        <pt x="211" y="0" on="1"/>
        <pt x="211" y="-166" on="1"/>
      </contour>
    </TTGlyph>
</ttFont>
